<?xml version="1.0" encoding="UTF-8" standalone="no"?>
<svg width="1389px" height="617px" viewBox="0 0 1389 617"
 xmlns="http://www.w3.org/2000/svg" xmlns:xlink="http://www.w3.org/1999/xlink" version="1.2" baseProfile="tiny">
<title>01-1_rna</title>
<desc>Generated by MuseScore 3.6.2</desc>
<path class="" stroke="#000000" stroke-width="1.75" stroke-linecap="round" stroke-linejoin="round" fill-rule="evenodd" d="M815.353,47.5887 C876.079,-4.58762 1052.08,2.07332 1108.69,58.6902 C1051.82,9.06831 875.815,2.40737 815.353,47.5887"/>
<polyline class="" stroke="#000000" stroke-width="4.50" stroke-linejoin="bevel" points="1263.57,381.214 1263.57,483.964"/>
<polyline class="" stroke="#000000" stroke-width="4.50" stroke-linejoin="bevel" points="758.107,381.214 758.107,483.964"/>
<polyline class="" stroke="#000000" stroke-width="4.50" stroke-linejoin="bevel" points="455.573,381.214 455.573,483.964"/>
<polyline class="" stroke="#000000" stroke-width="4.50" stroke-linejoin="bevel" points="53.1649,381.214 53.1649,483.964"/>
<polyline class="" stroke="#000000" stroke-width="4.50" stroke-linejoin="bevel" points="1263.57,93.7137 1263.57,382.589"/>
<polyline class="" stroke="#000000" stroke-width="4.50" stroke-linejoin="bevel" points="758.107,93.7137 758.107,382.589"/>
<polyline class="" stroke="#000000" stroke-width="4.50" stroke-linejoin="bevel" points="455.573,93.7137 455.573,382.589"/>
<polyline class="" stroke="#000000" stroke-width="4.50" stroke-linejoin="bevel" points="53.1649,93.7137 53.1649,382.589"/>
<polyline class="" stroke="#000000" stroke-width="2.75" stroke-linejoin="bevel" points="1265.82,382.589 1623.61,382.589"/>
<polyline class="" stroke="#000000" stroke-width="2.75" stroke-linejoin="bevel" points="1265.82,407.589 1623.61,407.589"/>
<polyline class="" stroke="#000000" stroke-width="2.75" stroke-linejoin="bevel" points="1265.82,432.589 1623.61,432.589"/>
<polyline class="" stroke="#000000" stroke-width="2.75" stroke-linejoin="bevel" points="1265.82,457.589 1623.61,457.589"/>
<polyline class="" stroke="#000000" stroke-width="2.75" stroke-linejoin="bevel" points="1265.82,482.589 1623.61,482.589"/>
<polyline class="" stroke="#000000" stroke-width="2.75" stroke-linejoin="bevel" points="760.357,382.589 1265.82,382.589"/>
<polyline class="" stroke="#000000" stroke-width="2.75" stroke-linejoin="bevel" points="760.357,407.589 1265.82,407.589"/>
<polyline class="" stroke="#000000" stroke-width="2.75" stroke-linejoin="bevel" points="760.357,432.589 1265.82,432.589"/>
<polyline class="" stroke="#000000" stroke-width="2.75" stroke-linejoin="bevel" points="760.357,457.589 1265.82,457.589"/>
<polyline class="" stroke="#000000" stroke-width="2.75" stroke-linejoin="bevel" points="760.357,482.589 1265.82,482.589"/>
<polyline class="" stroke="#000000" stroke-width="2.75" stroke-linejoin="bevel" points="457.823,382.589 760.357,382.589"/>
<polyline class="" stroke="#000000" stroke-width="2.75" stroke-linejoin="bevel" points="457.823,407.589 760.357,407.589"/>
<polyline class="" stroke="#000000" stroke-width="2.75" stroke-linejoin="bevel" points="457.823,432.589 760.357,432.589"/>
<polyline class="" stroke="#000000" stroke-width="2.75" stroke-linejoin="bevel" points="457.823,457.589 760.357,457.589"/>
<polyline class="" stroke="#000000" stroke-width="2.75" stroke-linejoin="bevel" points="457.823,482.589 760.357,482.589"/>
<polyline class="" stroke="#000000" stroke-width="2.75" stroke-linejoin="bevel" points="50.9149,382.589 457.823,382.589"/>
<polyline class="" stroke="#000000" stroke-width="2.75" stroke-linejoin="bevel" points="50.9149,407.589 457.823,407.589"/>
<polyline class="" stroke="#000000" stroke-width="2.75" stroke-linejoin="bevel" points="50.9149,432.589 457.823,432.589"/>
<polyline class="" stroke="#000000" stroke-width="2.75" stroke-linejoin="bevel" points="50.9149,457.589 457.823,457.589"/>
<polyline class="" stroke="#000000" stroke-width="2.75" stroke-linejoin="bevel" points="50.9149,482.589 457.823,482.589"/>
<polyline class="" stroke="#000000" stroke-width="2.75" stroke-linejoin="bevel" points="1265.82,95.0887 1623.61,95.0887"/>
<polyline class="" stroke="#000000" stroke-width="2.75" stroke-linejoin="bevel" points="1265.82,120.089 1623.61,120.089"/>
<polyline class="" stroke="#000000" stroke-width="2.75" stroke-linejoin="bevel" points="1265.82,145.089 1623.61,145.089"/>
<polyline class="" stroke="#000000" stroke-width="2.75" stroke-linejoin="bevel" points="1265.82,170.089 1623.61,170.089"/>
<polyline class="" stroke="#000000" stroke-width="2.75" stroke-linejoin="bevel" points="1265.82,195.089 1623.61,195.089"/>
<polyline class="" stroke="#000000" stroke-width="2.75" stroke-linejoin="bevel" points="760.357,95.0887 1265.82,95.0887"/>
<polyline class="" stroke="#000000" stroke-width="2.75" stroke-linejoin="bevel" points="760.357,120.089 1265.82,120.089"/>
<polyline class="" stroke="#000000" stroke-width="2.75" stroke-linejoin="bevel" points="760.357,145.089 1265.82,145.089"/>
<polyline class="" stroke="#000000" stroke-width="2.75" stroke-linejoin="bevel" points="760.357,170.089 1265.82,170.089"/>
<polyline class="" stroke="#000000" stroke-width="2.75" stroke-linejoin="bevel" points="760.357,195.089 1265.82,195.089"/>
<polyline class="" stroke="#000000" stroke-width="2.75" stroke-linejoin="bevel" points="457.823,95.0887 760.357,95.0887"/>
<polyline class="" stroke="#000000" stroke-width="2.75" stroke-linejoin="bevel" points="457.823,120.089 760.357,120.089"/>
<polyline class="" stroke="#000000" stroke-width="2.75" stroke-linejoin="bevel" points="457.823,145.089 760.357,145.089"/>
<polyline class="" stroke="#000000" stroke-width="2.75" stroke-linejoin="bevel" points="457.823,170.089 760.357,170.089"/>
<polyline class="" stroke="#000000" stroke-width="2.75" stroke-linejoin="bevel" points="457.823,195.089 760.357,195.089"/>
<polyline class="" stroke="#000000" stroke-width="2.75" stroke-linejoin="bevel" points="50.9149,95.0887 457.823,95.0887"/>
<polyline class="" stroke="#000000" stroke-width="2.75" stroke-linejoin="bevel" points="50.9149,120.089 457.823,120.089"/>
<polyline class="" stroke="#000000" stroke-width="2.75" stroke-linejoin="bevel" points="50.9149,145.089 457.823,145.089"/>
<polyline class="" stroke="#000000" stroke-width="2.75" stroke-linejoin="bevel" points="50.9149,170.089 457.823,170.089"/>
<polyline class="" stroke="#000000" stroke-width="2.75" stroke-linejoin="bevel" points="50.9149,195.089 457.823,195.089"/>
<path class="" d="M1295.42,401.792 C1295.23,401.589 1294.92,401.495 1294.62,401.495 C1294.53,401.495 1294.32,401.589 1294.23,401.589 L1281.62,405.089 L1281.62,387.589 L1278.82,387.589 L1278.82,437.089 C1278.82,437.886 1279.42,438.386 1280.23,438.386 L1280.62,438.386 L1293.23,434.886 L1293.23,452.386 L1295.92,452.386 L1295.92,402.886 C1295.92,402.495 1295.73,401.995 1295.42,401.792 M1293.23,426.589 L1281.62,429.792 L1281.62,413.386 L1293.23,410.089 L1293.23,426.589 "/>
<path class="" d="M1047.7,89.2918 C1047.52,89.0887 1047.2,88.995 1046.91,88.995 C1046.81,88.995 1046.61,89.0887 1046.52,89.0887 L1033.91,92.5887 L1033.91,75.0887 L1031.11,75.0887 L1031.11,124.589 C1031.11,125.386 1031.7,125.886 1032.52,125.886 L1032.91,125.886 L1045.52,122.386 L1045.52,139.886 L1048.2,139.886 L1048.2,90.3856 C1048.2,89.995 1048.02,89.495 1047.7,89.2918 M1045.52,114.089 L1033.91,117.292 L1033.91,100.886 L1045.52,97.5887 L1045.52,114.089 "/>
<polyline class="" stroke="#000000" stroke-width="4.00" stroke-linejoin="bevel" points="1308.62,357.589 1358.61,357.589"/>
<polyline class="" stroke="#000000" stroke-width="4.00" stroke-linejoin="bevel" points="1168.14,357.589 1218.13,357.589"/>
<polyline class="" stroke="#000000" stroke-width="4.00" stroke-linejoin="bevel" points="1083.7,357.589 1133.69,357.589"/>
<polyline class="" stroke="#000000" stroke-width="4.00" stroke-linejoin="bevel" points="874.796,357.589 924.788,357.589"/>
<polyline class="" stroke="#000000" stroke-width="4.00" stroke-linejoin="bevel" points="790.357,70.0887 840.349,70.0887"/>
<polyline class="" stroke="#000000" stroke-width="4.00" stroke-linejoin="bevel" points="369.313,220.089 419.306,220.089"/>
<polyline class="" stroke="#000000" stroke-width="2.75" stroke-linejoin="bevel" points="1318.74,360.949 1318.74,501.339"/>
<polyline class="" stroke="#000000" stroke-width="2.75" stroke-linejoin="bevel" points="1093.82,360.949 1093.82,491.964"/>
<polyline class="" stroke="#000000" stroke-width="2.75" stroke-linejoin="bevel" points="1178.26,360.949 1178.26,491.964"/>
<polyline class="" stroke="#000000" stroke-width="2.75" stroke-linejoin="bevel" points="884.921,360.949 884.921,491.964"/>
<polyline class="" stroke="#000000" stroke-width="2.75" stroke-linejoin="bevel" points="1348.48,166.889 1348.48,85.7137"/>
<polyline class="" stroke="#000000" stroke-width="2.75" stroke-linejoin="bevel" points="1093.82,98.4487 1093.82,182.589"/>
<polyline class="" stroke="#000000" stroke-width="2.75" stroke-linejoin="bevel" points="1055.08,110.949 1055.08,188.839"/>
<polyline class="" stroke="#000000" stroke-width="2.75" stroke-linejoin="bevel" points="949.5,85.9487 949.5,163.839"/>
<polyline class="" stroke="#000000" stroke-width="2.75" stroke-linejoin="bevel" points="988.242,98.4487 988.242,173.013"/>
<polyline class="" stroke="#000000" stroke-width="2.75" stroke-linejoin="bevel" points="800.482,73.4487 800.482,157.589"/>
<polyline class="" stroke="#000000" stroke-width="2.75" stroke-linejoin="bevel" points="690.223,98.4487 690.223,182.589"/>
<polyline class="" stroke="#000000" stroke-width="2.75" stroke-linejoin="bevel" points="585.949,154.389 585.949,76.3387"/>
<polyline class="" stroke="#000000" stroke-width="2.75" stroke-linejoin="bevel" points="623.215,135.949 623.215,213.839"/>
<polyline class="" stroke="#000000" stroke-width="2.75" stroke-linejoin="bevel" points="518.94,179.389 518.94,95.0887"/>
<polyline class="" stroke="#000000" stroke-width="2.75" stroke-linejoin="bevel" points="409.181,216.889 409.181,132.589"/>
<path class="" d="M1348.87,411.995 C1347.07,408.683 1343.27,406.886 1338.66,406.886 C1335.27,406.886 1331.57,407.886 1327.96,409.792 C1321.37,413.292 1317.37,419.183 1317.37,424.292 C1317.37,425.683 1317.66,427.089 1318.37,428.386 C1320.16,431.683 1323.96,433.386 1328.57,433.386 C1331.96,433.386 1335.66,432.495 1339.27,430.589 C1345.87,427.089 1349.87,421.183 1349.87,416.089 C1349.87,414.683 1349.57,413.292 1348.87,411.995"/>
<path class="" d="M1348.87,386.995 C1347.07,383.683 1343.27,381.886 1338.66,381.886 C1335.27,381.886 1331.57,382.886 1327.96,384.792 C1321.37,388.292 1317.37,394.183 1317.37,399.292 C1317.37,400.683 1317.66,402.089 1318.37,403.386 C1320.16,406.683 1323.96,408.386 1328.57,408.386 C1331.96,408.386 1335.66,407.495 1339.27,405.589 C1345.87,402.089 1349.87,396.183 1349.87,391.089 C1349.87,389.683 1349.57,388.292 1348.87,386.995"/>
<path class="" d="M1319.12,361.995 C1317.33,358.683 1313.53,356.886 1308.92,356.886 C1305.53,356.886 1301.83,357.886 1298.22,359.792 C1291.62,363.292 1287.62,369.183 1287.62,374.292 C1287.62,375.683 1287.92,377.089 1288.62,378.386 C1290.42,381.683 1294.22,383.386 1298.83,383.386 C1302.22,383.386 1305.92,382.495 1309.53,380.589 C1316.12,377.089 1320.12,371.183 1320.12,366.089 C1320.12,364.683 1319.83,363.292 1319.12,361.995"/>
<path class="" d="M1348.87,349.495 C1347.07,346.183 1343.27,344.386 1338.66,344.386 C1335.27,344.386 1331.57,345.386 1327.96,347.292 C1321.37,350.792 1317.37,356.683 1317.37,361.792 C1317.37,363.183 1317.66,364.589 1318.37,365.886 C1320.16,369.183 1323.96,370.886 1328.57,370.886 C1331.96,370.886 1335.66,369.995 1339.27,368.089 C1345.87,364.589 1349.87,358.683 1349.87,353.589 C1349.87,352.183 1349.57,350.792 1348.87,349.495"/>
<path class="" d="M1123.95,399.495 C1122.15,396.183 1118.35,394.386 1113.74,394.386 C1110.35,394.386 1106.65,395.386 1103.04,397.292 C1096.45,400.792 1092.45,406.683 1092.45,411.792 C1092.45,413.183 1092.74,414.589 1093.45,415.886 C1095.24,419.183 1099.04,420.886 1103.65,420.886 C1107.04,420.886 1110.74,419.995 1114.35,418.089 C1120.95,414.589 1124.95,408.683 1124.95,403.589 C1124.95,402.183 1124.65,400.792 1123.95,399.495"/>
<path class="" d="M1123.95,374.495 C1122.15,371.183 1118.35,369.386 1113.74,369.386 C1110.35,369.386 1106.65,370.386 1103.04,372.292 C1096.45,375.792 1092.45,381.683 1092.45,386.792 C1092.45,388.183 1092.74,389.589 1093.45,390.886 C1095.24,394.183 1099.04,395.886 1103.65,395.886 C1107.04,395.886 1110.74,394.995 1114.35,393.089 C1120.95,389.589 1124.95,383.683 1124.95,378.589 C1124.95,377.183 1124.65,375.792 1123.95,374.495"/>
<path class="" d="M1123.95,349.495 C1122.15,346.183 1118.35,344.386 1113.74,344.386 C1110.35,344.386 1106.65,345.386 1103.04,347.292 C1096.45,350.792 1092.45,356.683 1092.45,361.792 C1092.45,363.183 1092.74,364.589 1093.45,365.886 C1095.24,369.183 1099.04,370.886 1103.65,370.886 C1107.04,370.886 1110.74,369.995 1114.35,368.089 C1120.95,364.589 1124.95,358.683 1124.95,353.589 C1124.95,352.183 1124.65,350.792 1123.95,349.495"/>
<path class="" d="M1208.39,399.495 C1206.59,396.183 1202.79,394.386 1198.18,394.386 C1194.79,394.386 1191.09,395.386 1187.48,397.292 C1180.89,400.792 1176.89,406.683 1176.89,411.792 C1176.89,413.183 1177.18,414.589 1177.89,415.886 C1179.68,419.183 1183.48,420.886 1188.09,420.886 C1191.48,420.886 1195.18,419.995 1198.79,418.089 C1205.39,414.589 1209.39,408.683 1209.39,403.589 C1209.39,402.183 1209.09,400.792 1208.39,399.495"/>
<path class="" d="M1208.39,374.495 C1206.59,371.183 1202.79,369.386 1198.18,369.386 C1194.79,369.386 1191.09,370.386 1187.48,372.292 C1180.89,375.792 1176.89,381.683 1176.89,386.792 C1176.89,388.183 1177.18,389.589 1177.89,390.886 C1179.68,394.183 1183.48,395.886 1188.09,395.886 C1191.48,395.886 1195.18,394.995 1198.79,393.089 C1205.39,389.589 1209.39,383.683 1209.39,378.589 C1209.39,377.183 1209.09,375.792 1208.39,374.495"/>
<path class="" d="M1208.39,349.495 C1206.59,346.183 1202.79,344.386 1198.18,344.386 C1194.79,344.386 1191.09,345.386 1187.48,347.292 C1180.89,350.792 1176.89,356.683 1176.89,361.792 C1176.89,363.183 1177.18,364.589 1177.89,365.886 C1179.68,369.183 1183.48,370.886 1188.09,370.886 C1191.48,370.886 1195.18,369.995 1198.79,368.089 C1205.39,364.589 1209.39,358.683 1209.39,353.589 C1209.39,352.183 1209.09,350.792 1208.39,349.495"/>
<path class="" d="M915.046,399.495 C913.249,396.183 909.452,394.386 904.843,394.386 C901.452,394.386 897.749,395.386 894.14,397.292 C887.546,400.792 883.546,406.683 883.546,411.792 C883.546,413.183 883.843,414.589 884.546,415.886 C886.343,419.183 890.14,420.886 894.749,420.886 C898.14,420.886 901.843,419.995 905.452,418.089 C912.046,414.589 916.046,408.683 916.046,403.589 C916.046,402.183 915.749,400.792 915.046,399.495"/>
<path class="" d="M915.046,374.495 C913.249,371.183 909.452,369.386 904.843,369.386 C901.452,369.386 897.749,370.386 894.14,372.292 C887.546,375.792 883.546,381.683 883.546,386.792 C883.546,388.183 883.843,389.589 884.546,390.886 C886.343,394.183 890.14,395.886 894.749,395.886 C898.14,395.886 901.843,394.995 905.452,393.089 C912.046,389.589 916.046,383.683 916.046,378.589 C916.046,377.183 915.749,375.792 915.046,374.495"/>
<path class="" d="M915.046,349.495 C913.249,346.183 909.452,344.386 904.843,344.386 C901.452,344.386 897.749,345.386 894.14,347.292 C887.546,350.792 883.546,356.683 883.546,361.792 C883.546,363.183 883.843,364.589 884.546,365.886 C886.343,369.183 890.14,370.886 894.749,370.886 C898.14,370.886 901.843,369.995 905.452,368.089 C912.046,364.589 916.046,358.683 916.046,353.589 C916.046,352.183 915.749,350.792 915.046,349.495"/>
<path class="" d="M1348.87,161.995 C1347.07,158.682 1343.27,156.886 1338.66,156.886 C1335.27,156.886 1331.57,157.886 1327.96,159.792 C1321.37,163.292 1317.37,169.182 1317.37,174.292 C1317.37,175.682 1317.66,177.089 1318.37,178.386 C1320.16,181.682 1323.96,183.386 1328.57,183.386 C1331.96,183.386 1335.66,182.495 1339.27,180.589 C1345.87,177.089 1349.87,171.182 1349.87,166.089 C1349.87,164.682 1349.57,163.292 1348.87,161.995"/>
<path class="" d="M1123.95,86.9949 C1122.15,83.6824 1118.35,81.8856 1113.74,81.8856 C1110.35,81.8856 1106.65,82.8856 1103.04,84.7918 C1096.45,88.2918 1092.45,94.1824 1092.45,99.2918 C1092.45,100.682 1092.74,102.089 1093.45,103.386 C1095.24,106.682 1099.04,108.386 1103.65,108.386 C1107.04,108.386 1110.74,107.495 1114.35,105.589 C1120.95,102.089 1124.95,96.1824 1124.95,91.0887 C1124.95,89.6824 1124.65,88.2918 1123.95,86.9949"/>
<path class="" d="M1085.2,99.495 C1083.41,96.1825 1079.61,94.3856 1075,94.3856 C1071.61,94.3856 1067.91,95.3856 1064.3,97.2918 C1057.7,100.792 1053.7,106.682 1053.7,111.792 C1053.7,113.182 1054,114.589 1054.7,115.886 C1056.5,119.182 1060.3,120.886 1064.91,120.886 C1068.3,120.886 1072,119.995 1075.61,118.089 C1082.2,114.589 1086.2,108.682 1086.2,103.589 C1086.2,102.182 1085.91,100.792 1085.2,99.495"/>
<path class="" d="M979.625,74.4949 C977.828,71.1824 974.032,69.3856 969.422,69.3856 C966.032,69.3856 962.328,70.3856 958.719,72.2918 C952.125,75.7918 948.125,81.6824 948.125,86.7918 C948.125,88.1824 948.422,89.5887 949.125,90.8856 C950.922,94.1824 954.719,95.8856 959.328,95.8856 C962.719,95.8856 966.422,94.9949 970.032,93.0887 C976.625,89.5887 980.625,83.6824 980.625,78.5887 C980.625,77.1824 980.328,75.7918 979.625,74.4949"/>
<path class="" d="M1018.37,86.9949 C1016.57,83.6824 1012.77,81.8856 1008.16,81.8856 C1004.77,81.8856 1001.07,82.8856 997.461,84.7918 C990.867,88.2918 986.867,94.1824 986.867,99.2918 C986.867,100.682 987.164,102.089 987.867,103.386 C989.664,106.682 993.461,108.386 998.071,108.386 C1001.46,108.386 1005.16,107.495 1008.77,105.589 C1015.37,102.089 1019.37,96.1824 1019.37,91.0887 C1019.37,89.6824 1019.07,88.2918 1018.37,86.9949"/>
<path class="" d="M830.607,61.9949 C828.81,58.6824 825.013,56.8856 820.404,56.8856 C817.013,56.8856 813.31,57.8856 809.7,59.7918 C803.107,63.2918 799.107,69.1824 799.107,74.2918 C799.107,75.6824 799.404,77.0887 800.107,78.3856 C801.904,81.6824 805.7,83.3856 810.31,83.3856 C813.7,83.3856 817.404,82.4949 821.013,80.5887 C827.607,77.0887 831.607,71.1824 831.607,66.0887 C831.607,64.6824 831.31,63.2918 830.607,61.9949"/>
<path class="" d="M720.348,86.9949 C718.551,83.6824 714.755,81.8856 710.145,81.8856 C706.755,81.8856 703.051,82.8856 699.442,84.7918 C692.848,88.2918 688.848,94.1824 688.848,99.2918 C688.848,100.682 689.145,102.089 689.848,103.386 C691.645,106.682 695.442,108.386 700.051,108.386 C703.442,108.386 707.145,107.495 710.755,105.589 C717.348,102.089 721.348,96.1824 721.348,91.0887 C721.348,89.6824 721.051,88.2918 720.348,86.9949"/>
<path class="" d="M586.331,149.495 C584.535,146.182 580.738,144.386 576.128,144.386 C572.738,144.386 569.035,145.386 565.425,147.292 C558.831,150.792 554.831,156.682 554.831,161.792 C554.831,163.182 555.128,164.589 555.831,165.886 C557.628,169.182 561.425,170.886 566.035,170.886 C569.425,170.886 573.128,169.995 576.738,168.089 C583.331,164.589 587.331,158.682 587.331,153.589 C587.331,152.182 587.035,150.792 586.331,149.495"/>
<path class="" d="M653.34,124.495 C651.543,121.182 647.746,119.386 643.137,119.386 C639.746,119.386 636.043,120.386 632.434,122.292 C625.84,125.792 621.84,131.682 621.84,136.792 C621.84,138.182 622.137,139.589 622.84,140.886 C624.637,144.182 628.434,145.886 633.043,145.886 C636.434,145.886 640.137,144.995 643.746,143.089 C650.34,139.589 654.34,133.682 654.34,128.589 C654.34,127.182 654.043,125.792 653.34,124.495"/>
<path class="" d="M519.323,174.495 C517.526,171.183 513.729,169.386 509.12,169.386 C505.729,169.386 502.026,170.386 498.417,172.292 C491.823,175.792 487.823,181.683 487.823,186.792 C487.823,188.183 488.12,189.589 488.823,190.886 C490.62,194.183 494.417,195.886 499.026,195.886 C502.417,195.886 506.12,194.995 509.729,193.089 C516.323,189.589 520.323,183.683 520.323,178.589 C520.323,177.183 520.026,175.792 519.323,174.495"/>
<path class="" d="M409.564,211.995 C407.767,208.683 403.97,206.886 399.36,206.886 C395.97,206.886 392.267,207.886 388.657,209.792 C382.064,213.292 378.064,219.183 378.064,224.292 C378.064,225.683 378.36,227.089 379.064,228.386 C380.86,231.683 384.657,233.386 389.267,233.386 C392.657,233.386 396.36,232.495 399.97,230.589 C406.564,227.089 410.564,221.183 410.564,216.089 C410.564,214.683 410.267,213.292 409.564,211.995"/>
<path class="" d="M96.8211,382.495 C89.2117,382.495 83.118,386.886 83.0086,386.886 C77.2117,391.183 74.9149,396.292 74.0086,399.792 C73.5086,401.589 73.3211,403.386 73.3211,405.089 C73.3211,407.495 73.7117,409.683 74.618,411.589 C75.8211,414.292 78.118,416.183 81.118,417.183 C82.3211,417.589 83.618,417.792 84.9149,417.792 C87.118,417.792 89.4149,417.183 91.3211,416.089 C94.4149,414.386 96.3211,410.792 96.3211,406.886 C96.3211,403.386 94.5086,400.183 91.5086,398.292 C89.4149,396.886 87.4149,396.495 85.7117,396.495 C84.5086,396.495 83.4149,396.683 82.5086,396.995 C81.5086,397.386 79.8211,398.386 79.0086,399.089 C79.3211,397.183 80.5086,394.292 81.618,392.683 C82.7117,391.089 84.9149,389.089 86.618,388.183 C89.118,386.792 92.3211,386.183 95.8211,386.183 C106.024,386.183 111.024,394.386 111.024,411.183 C111.024,420.495 107.524,429.386 104.524,435.292 C101.212,441.886 96.8211,448.198 92.9149,451.698 C82.5086,461.198 72.7117,465.698 72.618,465.698 C72.618,465.698 71.118,466.589 71.5086,468.089 C71.8211,469.089 72.7117,469.292 73.3211,469.292 C73.4149,469.292 73.7117,469.198 73.8211,469.198 C73.9149,469.198 85.3211,464.495 94.4149,457.386 C99.5242,453.698 104.118,449.698 108.118,445.386 C111.712,441.495 114.821,437.292 117.321,433.089 C121.712,425.589 124.212,417.792 124.212,411.089 C124.212,402.792 122.024,395.886 117.915,390.995 C113.212,385.386 106.118,382.495 96.8211,382.495 M128.212,395.183 C128.212,397.995 130.415,400.183 133.024,400.183 C135.618,400.183 137.821,397.995 137.821,395.183 C137.821,392.386 135.618,390.089 133.024,390.089 C130.415,390.089 128.212,392.386 128.212,395.183 M128.212,419.886 C128.212,422.683 130.415,424.995 133.024,424.995 C135.618,424.995 137.821,422.683 137.821,419.886 C137.821,417.089 135.618,414.792 133.024,414.792 C130.415,414.792 128.212,417.089 128.212,419.886"/>
<path class="" d="M134.774,164.167 C133.54,158.745 130.899,154.917 130.118,153.886 C126.93,149.604 122.915,146.761 118.227,145.401 C115.118,144.526 112.118,144.401 109.696,144.589 C108.649,138.573 107.649,132.698 106.743,127.245 C112.196,121.073 115.821,115.276 118.102,110.979 C121.571,104.401 122.712,99.8231 122.774,99.62 C124.493,94.4012 124.852,86.6981 123.743,78.495 C122.743,70.9481 120.649,64.2294 118.29,60.9794 C117.274,59.5575 116.212,58.8231 115.18,58.8231 C113.962,58.8231 111.446,60.0575 108.555,62.8387 C106.259,65.0262 102.993,68.9169 100.43,74.9325 C97.4305,81.995 97.2117,91.4794 97.5711,98.1981 C97.9461,105.479 99.0555,111.167 99.0711,111.214 C99.0867,111.307 99.3524,112.807 99.7899,115.37 C99.5711,115.604 99.3211,115.823 99.0711,116.073 C98.0399,117.073 96.8524,118.198 95.4617,119.589 C94.6024,120.448 93.6492,121.354 92.6492,122.323 C84.2117,130.464 71.4149,142.792 71.4149,161.948 C71.4149,166.651 72.3211,171.073 74.1024,175.089 C75.6805,178.682 77.9774,181.964 80.9149,184.839 C88.6492,192.401 99.243,195.604 106.29,195.448 C109.243,195.37 111.884,195.136 114.274,194.682 C116.102,204.292 117.243,211.323 117.274,216.667 C117.321,223.182 115.665,227.167 111.774,229.932 C109.337,231.667 106.524,232.62 103.43,232.761 C100.837,232.886 98.5711,232.417 97.1492,232.011 L97.1336,232.011 C97.1336,232.011 96.8524,231.917 96.8367,231.729 C96.8211,231.542 97.1805,231.495 97.1805,231.495 L97.2117,231.495 C99.1336,231.057 102.696,229.823 105.055,226.526 C106.852,223.995 107.727,219.37 105.884,215.432 C104.774,213.042 102.274,210.089 96.6492,209.636 C94.1492,209.432 91.8836,209.948 89.8836,211.151 C88.0711,212.229 86.5711,213.87 85.5242,215.87 C83.0711,220.573 83.5242,226.307 86.6492,230.151 C89.618,233.776 94.2274,236.089 99.6649,236.667 C100.524,236.761 101.368,236.792 102.212,236.792 C106.649,236.792 111.04,235.589 114.618,233.386 C118.274,230.807 120.399,226.823 121.071,221.198 C121.634,216.557 121.243,210.636 119.852,202.557 C119.493,200.464 118.946,197.432 118.29,193.682 C124.04,191.761 128.196,188.182 131.962,182.323 C135.259,176.589 136.196,170.479 134.774,164.167 M100.555,190.386 C95.9149,189.167 91.4774,186.667 87.7274,183.151 C86.4149,181.932 84.5399,179.761 83.0711,176.37 C81.7117,173.198 81.0399,169.761 81.1024,166.182 C81.1649,161.479 82.4774,156.651 84.9774,151.87 C87.8992,146.292 92.4617,140.761 98.5242,135.432 C99.9774,134.151 101.352,132.87 102.634,131.589 C103.399,135.854 104.227,140.542 105.102,145.417 C101.259,146.682 96.5086,149.839 93.3992,155.495 C89.8524,162.057 89.993,167.589 90.7274,171.073 C91.6649,175.526 94.1961,179.292 97.6492,181.386 C98.5867,181.948 102.712,184.073 104.555,183.495 C104.93,183.386 105.196,183.151 105.337,182.823 C105.852,181.651 104.821,181.011 103.274,180.057 C102.665,179.682 101.993,179.261 101.274,178.729 C97.9461,176.245 96.493,171.792 97.5711,167.401 C98.1492,165.011 99.4305,162.839 101.274,161.136 C102.93,159.589 104.977,158.495 107.352,157.854 C109.399,169.104 111.462,180.261 113.102,188.62 C113.227,189.307 113.368,189.979 113.493,190.651 C109.118,191.589 104.774,191.495 100.555,190.386 M111.884,157.182 C122.227,156.714 126.493,164.151 127.384,168.979 C127.852,171.526 127.852,175.964 126.305,180.182 C125.134,183.354 122.68,187.432 117.54,189.495 C117.477,189.073 117.399,188.636 117.321,188.214 C115.774,179.432 113.837,168.432 111.884,157.182 M104.555,86.2294 C106.337,80.495 109.071,77.245 111.071,75.5106 C112.821,73.995 114.462,73.2762 115.384,73.2762 C115.524,73.2762 115.649,73.3075 115.743,73.3387 C116.212,73.4794 116.743,74.0419 117.212,74.9169 C119.524,79.1981 118.774,85.9169 117.43,90.3544 C115.805,95.7606 112.884,101.37 104.087,110.979 C103.915,109.87 103.759,108.823 103.602,107.839 C102.352,99.5575 102.68,92.2762 104.555,86.2294"/>
<path class="" d="M257.907,424.683 C257.313,420.792 254.907,417.089 249.813,417.089 C244.813,417.089 241.907,420.183 241.407,420.792 L241.813,388.683 C241.813,387.886 241.22,387.292 240.407,387.292 L239.22,387.292 C238.407,387.292 237.813,387.886 237.813,388.683 L238.313,448.792 C238.313,449.589 238.907,450.183 239.72,450.183 C239.907,450.183 240.313,450.089 240.517,449.995 C240.907,449.792 247.407,446.589 252.813,440.495 C256.61,436.183 258.11,431.292 258.11,427.183 C258.11,426.292 258.017,425.495 257.907,424.683 M251.017,428.589 C251.017,430.089 250.61,434.683 248.11,438.495 C246.407,441.089 243.017,443.792 241.11,445.292 L241.407,425.792 C241.61,424.886 243.11,421.995 247.11,421.995 C250.72,421.995 251.017,425.386 251.017,427.495 L251.017,428.589 "/>
<path class="" d="M232.907,462.183 C232.313,458.292 229.907,454.589 224.813,454.589 C219.813,454.589 216.907,457.683 216.407,458.292 L216.813,426.183 C216.813,425.386 216.22,424.792 215.407,424.792 L214.22,424.792 C213.407,424.792 212.813,425.386 212.813,426.183 L213.313,486.292 C213.313,487.089 213.907,487.683 214.72,487.683 C214.907,487.683 215.313,487.589 215.517,487.495 C215.907,487.292 222.407,484.089 227.813,477.995 C231.61,473.683 233.11,468.792 233.11,464.683 C233.11,463.792 233.017,462.995 232.907,462.183 M226.017,466.089 C226.017,467.589 225.61,472.183 223.11,475.995 C221.407,478.589 218.017,481.292 216.11,482.792 L216.407,463.292 C216.61,462.386 218.11,459.495 222.11,459.495 C225.72,459.495 226.017,462.886 226.017,464.995 L226.017,466.089 "/>
<path class="" d="M207.907,412.183 C207.313,408.292 204.907,404.589 199.813,404.589 C194.813,404.589 191.907,407.683 191.407,408.292 L191.813,376.183 C191.813,375.386 191.22,374.792 190.407,374.792 L189.22,374.792 C188.407,374.792 187.813,375.386 187.813,376.183 L188.313,436.292 C188.313,437.089 188.907,437.683 189.72,437.683 C189.907,437.683 190.313,437.589 190.517,437.495 C190.907,437.292 197.407,434.089 202.813,427.995 C206.61,423.683 208.11,418.792 208.11,414.683 C208.11,413.792 208.017,412.995 207.907,412.183 M201.017,416.089 C201.017,417.589 200.61,422.183 198.11,425.995 C196.407,428.589 193.017,431.292 191.11,432.792 L191.407,413.292 C191.61,412.386 193.11,409.495 197.11,409.495 C200.72,409.495 201.017,412.886 201.017,414.995 L201.017,416.089 "/>
<path class="" d="M182.907,449.683 C182.313,445.792 179.907,442.089 174.813,442.089 C169.813,442.089 166.907,445.183 166.407,445.792 L166.813,413.683 C166.813,412.886 166.22,412.292 165.407,412.292 L164.22,412.292 C163.407,412.292 162.813,412.886 162.813,413.683 L163.313,473.792 C163.313,474.589 163.907,475.183 164.72,475.183 C164.907,475.183 165.313,475.089 165.516,474.995 C165.907,474.792 172.407,471.589 177.813,465.495 C181.61,461.183 183.11,456.292 183.11,452.183 C183.11,451.292 183.016,450.495 182.907,449.683 M176.016,453.589 C176.016,455.089 175.61,459.683 173.11,463.495 C171.407,466.089 168.016,468.792 166.11,470.292 L166.407,450.792 C166.61,449.886 168.11,446.995 172.11,446.995 C175.72,446.995 176.016,450.386 176.016,452.495 L176.016,453.589 "/>
<path class="" d="M257.907,112.182 C257.313,108.292 254.907,104.589 249.813,104.589 C244.813,104.589 241.907,107.682 241.407,108.292 L241.813,76.1825 C241.813,75.3856 241.22,74.7918 240.407,74.7918 L239.22,74.7918 C238.407,74.7918 237.813,75.3856 237.813,76.1825 L238.313,136.292 C238.313,137.089 238.907,137.682 239.72,137.682 C239.907,137.682 240.313,137.589 240.517,137.495 C240.907,137.292 247.407,134.089 252.813,127.995 C256.61,123.682 258.11,118.792 258.11,114.682 C258.11,113.792 258.017,112.995 257.907,112.182 M251.017,116.089 C251.017,117.589 250.61,122.182 248.11,125.995 C246.407,128.589 243.017,131.292 241.11,132.792 L241.407,113.292 C241.61,112.386 243.11,109.495 247.11,109.495 C250.72,109.495 251.017,112.886 251.017,114.995 L251.017,116.089 "/>
<path class="" d="M232.907,149.682 C232.313,145.792 229.907,142.089 224.813,142.089 C219.813,142.089 216.907,145.182 216.407,145.792 L216.813,113.682 C216.813,112.886 216.22,112.292 215.407,112.292 L214.22,112.292 C213.407,112.292 212.813,112.886 212.813,113.682 L213.313,173.792 C213.313,174.589 213.907,175.182 214.72,175.182 C214.907,175.182 215.313,175.089 215.517,174.995 C215.907,174.792 222.407,171.589 227.813,165.495 C231.61,161.182 233.11,156.292 233.11,152.182 C233.11,151.292 233.017,150.495 232.907,149.682 M226.017,153.589 C226.017,155.089 225.61,159.682 223.11,163.495 C221.407,166.089 218.017,168.792 216.11,170.292 L216.407,150.792 C216.61,149.886 218.11,146.995 222.11,146.995 C225.72,146.995 226.017,150.386 226.017,152.495 L226.017,153.589 "/>
<path class="" d="M207.907,99.6825 C207.313,95.7918 204.907,92.0887 199.813,92.0887 C194.813,92.0887 191.907,95.1825 191.407,95.7918 L191.813,63.6825 C191.813,62.8856 191.22,62.2918 190.407,62.2918 L189.22,62.2918 C188.407,62.2918 187.813,62.8856 187.813,63.6825 L188.313,123.792 C188.313,124.589 188.907,125.182 189.72,125.182 C189.907,125.182 190.313,125.089 190.517,124.995 C190.907,124.792 197.407,121.589 202.813,115.495 C206.61,111.182 208.11,106.292 208.11,102.182 C208.11,101.292 208.017,100.495 207.907,99.6825 M201.017,103.589 C201.017,105.089 200.61,109.682 198.11,113.495 C196.407,116.089 193.017,118.792 191.11,120.292 L191.407,100.792 C191.61,99.8856 193.11,96.995 197.11,96.995 C200.72,96.995 201.017,100.386 201.017,102.495 L201.017,103.589 "/>
<path class="" d="M182.907,137.182 C182.313,133.292 179.907,129.589 174.813,129.589 C169.813,129.589 166.907,132.682 166.407,133.292 L166.813,101.182 C166.813,100.386 166.22,99.7919 165.407,99.7919 L164.22,99.7919 C163.407,99.7919 162.813,100.386 162.813,101.182 L163.313,161.292 C163.313,162.089 163.907,162.682 164.72,162.682 C164.907,162.682 165.313,162.589 165.516,162.495 C165.907,162.292 172.407,159.089 177.813,152.995 C181.61,148.682 183.11,143.792 183.11,139.682 C183.11,138.792 183.016,137.995 182.907,137.182 M176.016,141.089 C176.016,142.589 175.61,147.182 173.11,150.995 C171.407,153.589 168.016,156.292 166.11,157.792 L166.407,138.292 C166.61,137.386 168.11,134.495 172.11,134.495 C175.72,134.495 176.016,137.886 176.016,139.995 L176.016,141.089 "/>
<path class="" d="M315.821,411.995 C315.024,414.183 313.024,421.386 308.118,421.386 C301.618,421.386 300.212,417.386 294.821,417.386 C294.024,417.386 293.212,417.495 292.212,417.683 C292.212,417.683 294.712,413.886 305.321,410.589 C315.915,407.292 318.618,402.089 318.618,396.089 C318.618,391.886 316.728,383.589 301.618,383.589 C286.524,383.589 283.712,392.683 283.712,397.292 C283.712,401.386 287.118,404.683 291.212,404.683 C295.321,404.683 298.618,401.386 298.618,397.292 C298.618,394.495 296.618,391.386 294.024,390.386 C293.712,390.292 293.321,389.792 293.321,389.292 C293.321,388.683 293.821,387.995 295.618,387.495 C296.118,387.292 297.524,386.995 299.024,386.995 C300.415,386.995 302.024,387.292 303.212,388.089 C305.118,389.292 305.821,391.089 305.821,395.589 C305.821,407.292 291.915,409.792 286.118,418.495 C286.118,418.495 283.118,422.683 283.118,427.386 C283.118,432.089 285.524,432.386 286.712,432.386 C288.321,432.386 290.024,431.089 290.024,429.292 C290.024,428.886 289.915,428.495 289.712,427.995 C289.118,426.589 288.915,425.495 288.915,424.683 C288.915,424.386 288.915,424.089 289.024,423.792 C289.118,423.183 289.915,422.183 292.321,422.183 C295.212,422.183 296.321,425.589 298.118,428.183 C299.915,430.792 302.712,432.386 305.915,432.386 C309.118,432.386 313.415,430.089 315.228,426.386 C317.024,422.683 319.321,415.183 319.321,412.495 C319.321,411.183 318.524,410.589 317.618,410.589 C316.915,410.589 316.228,410.995 315.821,411.995"/>
<path class="" d="M315.821,460.995 C315.024,463.183 313.024,470.386 308.118,470.386 C301.618,470.386 300.212,466.386 294.821,466.386 C294.024,466.386 293.212,466.495 292.212,466.683 C292.212,466.683 294.712,462.886 305.321,459.589 C315.915,456.292 318.618,451.089 318.618,445.089 C318.618,440.886 316.728,432.589 301.618,432.589 C286.524,432.589 283.712,441.683 283.712,446.292 C283.712,450.386 287.118,453.683 291.212,453.683 C295.321,453.683 298.618,450.386 298.618,446.292 C298.618,443.495 296.618,440.386 294.024,439.386 C293.712,439.292 293.321,438.792 293.321,438.292 C293.321,437.683 293.821,436.995 295.618,436.495 C296.118,436.292 297.524,435.995 299.024,435.995 C300.415,435.995 302.024,436.292 303.212,437.089 C305.118,438.292 305.821,440.089 305.821,444.589 C305.821,456.292 291.915,458.792 286.118,467.495 C286.118,467.495 283.118,471.683 283.118,476.386 C283.118,481.089 285.524,481.386 286.712,481.386 C288.321,481.386 290.024,480.089 290.024,478.292 C290.024,477.886 289.915,477.495 289.712,476.995 C289.118,475.589 288.915,474.495 288.915,473.683 C288.915,473.386 288.915,473.089 289.024,472.792 C289.118,472.183 289.915,471.183 292.321,471.183 C295.212,471.183 296.321,474.589 298.118,477.183 C299.915,479.792 302.712,481.386 305.915,481.386 C309.118,481.386 313.415,479.089 315.228,475.386 C317.024,471.683 319.321,464.183 319.321,461.495 C319.321,460.183 318.524,459.589 317.618,459.589 C316.915,459.589 316.228,459.995 315.821,460.995"/>
<path class="" d="M315.821,124.495 C315.024,126.682 313.024,133.886 308.118,133.886 C301.618,133.886 300.212,129.886 294.821,129.886 C294.024,129.886 293.212,129.995 292.212,130.182 C292.212,130.182 294.712,126.386 305.321,123.089 C315.915,119.792 318.618,114.589 318.618,108.589 C318.618,104.386 316.728,96.0887 301.618,96.0887 C286.524,96.0887 283.712,105.182 283.712,109.792 C283.712,113.886 287.118,117.182 291.212,117.182 C295.321,117.182 298.618,113.886 298.618,109.792 C298.618,106.995 296.618,103.886 294.024,102.886 C293.712,102.792 293.321,102.292 293.321,101.792 C293.321,101.182 293.821,100.495 295.618,99.995 C296.118,99.7918 297.524,99.495 299.024,99.495 C300.415,99.495 302.024,99.7918 303.212,100.589 C305.118,101.792 305.821,103.589 305.821,108.089 C305.821,119.792 291.915,122.292 286.118,130.995 C286.118,130.995 283.118,135.182 283.118,139.886 C283.118,144.589 285.524,144.886 286.712,144.886 C288.321,144.886 290.024,143.589 290.024,141.792 C290.024,141.386 289.915,140.995 289.712,140.495 C289.118,139.089 288.915,137.995 288.915,137.182 C288.915,136.886 288.915,136.589 289.024,136.292 C289.118,135.682 289.915,134.682 292.321,134.682 C295.212,134.682 296.321,138.089 298.118,140.682 C299.915,143.292 302.712,144.886 305.915,144.886 C309.118,144.886 313.415,142.589 315.228,138.886 C317.024,135.182 319.321,127.682 319.321,124.995 C319.321,123.682 318.524,123.089 317.618,123.089 C316.915,123.089 316.228,123.495 315.821,124.495"/>
<path class="" d="M315.821,173.495 C315.024,175.682 313.024,182.886 308.118,182.886 C301.618,182.886 300.212,178.886 294.821,178.886 C294.024,178.886 293.212,178.995 292.212,179.182 C292.212,179.182 294.712,175.386 305.321,172.089 C315.915,168.792 318.618,163.589 318.618,157.589 C318.618,153.386 316.728,145.089 301.618,145.089 C286.524,145.089 283.712,154.182 283.712,158.792 C283.712,162.886 287.118,166.182 291.212,166.182 C295.321,166.182 298.618,162.886 298.618,158.792 C298.618,155.995 296.618,152.886 294.024,151.886 C293.712,151.792 293.321,151.292 293.321,150.792 C293.321,150.182 293.821,149.495 295.618,148.995 C296.118,148.792 297.524,148.495 299.024,148.495 C300.415,148.495 302.024,148.792 303.212,149.589 C305.118,150.792 305.821,152.589 305.821,157.089 C305.821,168.792 291.915,171.292 286.118,179.995 C286.118,179.995 283.118,184.182 283.118,188.886 C283.118,193.589 285.524,193.886 286.712,193.886 C288.321,193.886 290.024,192.589 290.024,190.792 C290.024,190.386 289.915,189.995 289.712,189.495 C289.118,188.089 288.915,186.995 288.915,186.182 C288.915,185.886 288.915,185.589 289.024,185.292 C289.118,184.682 289.915,183.682 292.321,183.682 C295.212,183.682 296.321,187.089 298.118,189.682 C299.915,192.292 302.712,193.886 305.915,193.886 C309.118,193.886 313.415,191.589 315.228,187.886 C317.024,184.182 319.321,176.682 319.321,173.995 C319.321,172.682 318.524,172.089 317.618,172.089 C316.915,172.089 316.228,172.495 315.821,173.495"/>
<path class="" d="M822.31,449.495 L822.107,449.183 C822.013,449.089 821.81,448.886 821.513,448.495 L810.013,434.292 C809.7,433.995 809.81,433.183 810.013,432.792 L820.2,417.386 C820.31,417.183 820.404,416.886 820.404,416.683 L820.404,415.792 C820.404,415.495 820.31,415.183 820.107,414.995 L803.904,393.089 C803.904,393.089 803.107,391.886 802.107,392.792 C801.107,393.589 801.904,394.886 801.904,394.886 L809.513,405.292 C809.904,405.886 809.904,407.089 809.513,407.683 L799.404,423.089 C799.31,423.292 799.2,423.683 799.2,423.886 L799.2,424.792 C799.2,425.089 799.31,425.386 799.513,425.589 L810.7,439.495 C810.31,439.386 809.404,439.183 808.2,439.183 C806.513,439.183 804.31,439.589 802.513,441.183 C800.31,443.183 799.107,445.995 799.107,448.495 C799.107,449.886 799.404,451.292 800.2,452.386 C802.31,455.589 809.81,465.089 809.81,465.089 C809.81,465.089 810.7,466.198 811.607,465.495 C812.513,464.792 812.31,463.886 812.013,463.386 C811.7,462.886 808.513,457.089 808.513,457.089 C808.513,457.089 807.81,455.683 807.81,453.886 C807.81,452.589 808.2,450.995 809.513,449.683 C810.7,448.495 812.107,448.089 813.404,448.089 C814.7,448.089 815.81,448.495 816.607,448.995 L820.513,451.495 C820.513,451.495 821.7,452.089 822.31,451.183 C822.81,450.386 822.607,449.995 822.31,449.495"/>
<path class="" d="M621.703,407.089 L592,407.089 C591.188,407.089 590.594,407.683 590.594,408.495 L590.594,419.292 C590.594,420.089 591.188,420.683 592,420.683 L621.703,420.683 C622.5,420.683 623.094,420.089 623.094,419.292 L623.094,408.495 C623.094,407.683 622.5,407.089 621.703,407.089"/>
<path class="" d="M401.267,449.495 L401.064,449.183 C400.97,449.089 400.767,448.886 400.47,448.495 L388.97,434.292 C388.657,433.995 388.767,433.183 388.97,432.792 L399.157,417.386 C399.267,417.183 399.36,416.886 399.36,416.683 L399.36,415.792 C399.36,415.495 399.267,415.183 399.064,414.995 L382.86,393.089 C382.86,393.089 382.064,391.886 381.064,392.792 C380.064,393.589 380.86,394.886 380.86,394.886 L388.47,405.292 C388.86,405.886 388.86,407.089 388.47,407.683 L378.36,423.089 C378.267,423.292 378.157,423.683 378.157,423.886 L378.157,424.792 C378.157,425.089 378.267,425.386 378.47,425.589 L389.657,439.495 C389.267,439.386 388.36,439.183 387.157,439.183 C385.47,439.183 383.267,439.589 381.47,441.183 C379.267,443.183 378.064,445.995 378.064,448.495 C378.064,449.886 378.36,451.292 379.157,452.386 C381.267,455.589 388.767,465.089 388.767,465.089 C388.767,465.089 389.657,466.198 390.564,465.495 C391.47,464.792 391.267,463.886 390.97,463.386 C390.657,462.886 387.47,457.089 387.47,457.089 C387.47,457.089 386.767,455.683 386.767,453.886 C386.767,452.589 387.157,450.995 388.47,449.683 C389.657,448.495 391.064,448.089 392.36,448.089 C393.657,448.089 394.767,448.495 395.564,448.995 L399.47,451.495 C399.47,451.495 400.657,452.089 401.267,451.183 C401.767,450.386 401.564,449.995 401.267,449.495"/>
<path class="" d="M1200.09,161.995 L1199.89,161.682 C1199.79,161.589 1199.59,161.386 1199.29,160.995 L1187.79,146.792 C1187.48,146.495 1187.59,145.682 1187.79,145.292 L1197.98,129.886 C1198.09,129.682 1198.18,129.386 1198.18,129.182 L1198.18,128.292 C1198.18,127.995 1198.09,127.682 1197.89,127.495 L1181.68,105.589 C1181.68,105.589 1180.89,104.386 1179.89,105.292 C1178.89,106.089 1179.68,107.386 1179.68,107.386 L1187.29,117.792 C1187.68,118.386 1187.68,119.589 1187.29,120.182 L1177.18,135.589 C1177.09,135.792 1176.98,136.182 1176.98,136.386 L1176.98,137.292 C1176.98,137.589 1177.09,137.886 1177.29,138.089 L1188.48,151.995 C1188.09,151.886 1187.18,151.682 1185.98,151.682 C1184.29,151.682 1182.09,152.089 1180.29,153.682 C1178.09,155.682 1176.89,158.495 1176.89,160.995 C1176.89,162.386 1177.18,163.792 1177.98,164.886 C1180.09,168.089 1187.59,177.589 1187.59,177.589 C1187.59,177.589 1188.48,178.698 1189.39,177.995 C1190.29,177.292 1190.09,176.386 1189.79,175.886 C1189.48,175.386 1186.29,169.589 1186.29,169.589 C1186.29,169.589 1185.59,168.182 1185.59,166.386 C1185.59,165.089 1185.98,163.495 1187.29,162.182 C1188.48,160.995 1189.89,160.589 1191.18,160.589 C1192.48,160.589 1193.59,160.995 1194.39,161.495 L1198.29,163.995 C1198.29,163.995 1199.48,164.589 1200.09,163.682 C1200.59,162.886 1200.39,162.495 1200.09,161.995"/>
<path class="" d="M1330.86,210.362 C1332.39,211.878 1334.86,211.878 1336.38,210.362 C1337.91,208.831 1337.91,206.362 1336.38,204.847 C1334.86,203.315 1332.39,203.315 1330.86,204.847 C1329.35,206.362 1329.35,208.831 1330.86,210.362"/>
<path class="" d="M1105.94,72.8465 C1107.47,74.3777 1109.94,74.3777 1111.46,72.8465 C1112.99,71.3309 1112.99,68.8621 1111.46,67.3309 C1109.94,65.8152 1107.47,65.8152 1105.94,67.3309 C1104.43,68.8621 1104.43,71.3309 1105.94,72.8465"/>
<path class="" d="M635.336,110.347 C636.867,111.878 639.336,111.878 640.852,110.347 C642.383,108.831 642.383,106.362 640.852,104.831 C639.336,103.315 636.867,103.315 635.336,104.831 C633.82,106.362 633.82,108.831 635.336,110.347"/>
<path class="" d="M702.344,72.8465 C703.876,74.3777 706.344,74.3777 707.86,72.8465 C709.391,71.3309 709.391,68.8621 707.86,67.3309 C706.344,65.8152 703.876,65.8152 702.344,67.3309 C700.829,68.8621 700.829,71.3309 702.344,72.8465"/>
<path class="" d="M501.319,210.362 C502.85,211.878 505.319,211.878 506.835,210.362 C508.366,208.831 508.366,206.362 506.835,204.847 C505.319,203.315 502.85,203.315 501.319,204.847 C499.804,206.362 499.804,208.831 501.319,210.362"/>
<path class="" d="M568.328,185.362 C569.859,186.878 572.328,186.878 573.843,185.362 C575.374,183.831 575.374,181.362 573.843,179.847 C572.328,178.315 569.859,178.315 568.328,179.847 C566.812,181.362 566.812,183.831 568.328,185.362"/>
<path class="" d="M391.56,247.862 C393.091,249.378 395.56,249.378 397.075,247.862 C398.606,246.331 398.606,243.862 397.075,242.347 C395.56,240.815 393.091,240.815 391.56,242.347 C390.044,243.862 390.044,246.331 391.56,247.862"/>
<path class="" d="M869.716,599.527 L893.201,599.527 L893.201,597.386 L885.279,597.386 L891.388,580.605 L891.654,581.323 C891.654,581.323 892.763,583.745 896.279,584.62 C896.935,584.792 897.591,584.839 898.263,584.839 C903.982,584.839 909.857,578.902 911.997,570.495 C912.607,568.183 912.826,566.261 912.826,564.605 C912.826,557.62 908.482,555.808 906.888,555.417 C906.451,555.308 905.951,555.261 905.513,555.261 C902.279,555.261 898.966,557.948 897.216,559.714 L896.935,560.042 L896.779,559.652 C896.779,559.605 894.576,555.745 890.888,555.198 C890.497,555.152 890.122,555.089 889.732,555.089 C886.263,555.089 882.638,557.511 879.669,566.089 L881.544,567.027 C881.982,565.652 883.138,562.355 884.341,560.698 C884.951,559.761 886.107,558.886 887.091,558.73 C887.591,558.605 887.966,558.73 888.31,558.948 C888.685,559.214 888.857,559.761 888.857,560.542 C888.857,563.073 887.044,567.573 886.544,568.62 L876.154,597.386 L869.716,597.386 L869.716,599.527 M896.06,581.277 C895.841,581.277 895.513,581.214 895.294,581.152 C893.747,580.558 893.31,578.745 893.31,576.698 C893.31,573.464 894.513,569.667 894.576,569.386 C895.56,565.433 898.482,561.027 901.232,559.495 C901.935,559.058 902.654,558.886 903.263,558.886 C903.529,558.886 903.81,558.886 904.091,558.995 C904.529,559.105 904.857,559.495 905.076,559.933 C905.404,560.542 905.513,561.355 905.513,562.292 C905.513,565.105 904.419,568.902 903.81,570.761 C902.497,574.839 899.904,579.73 897.263,580.995 C896.935,581.152 896.388,581.277 896.06,581.277"/>
<path class="" d="M372.356,312.026 L395.841,312.026 L395.841,309.886 L387.919,309.886 L394.028,293.104 L394.294,293.823 C394.294,293.823 395.403,296.245 398.919,297.12 C399.575,297.292 400.231,297.339 400.903,297.339 C406.622,297.339 412.497,291.401 414.638,282.995 C415.247,280.683 415.466,278.761 415.466,277.104 C415.466,270.12 411.122,268.308 409.528,267.917 C409.091,267.808 408.591,267.761 408.153,267.761 C404.919,267.761 401.606,270.448 399.856,272.214 L399.575,272.542 L399.419,272.151 C399.419,272.104 397.216,268.245 393.528,267.698 C393.138,267.651 392.763,267.589 392.372,267.589 C388.903,267.589 385.278,270.011 382.31,278.589 L384.185,279.526 C384.622,278.151 385.778,274.854 386.981,273.198 C387.591,272.261 388.747,271.386 389.731,271.229 C390.231,271.104 390.606,271.229 390.95,271.448 C391.325,271.714 391.497,272.261 391.497,273.042 C391.497,275.573 389.685,280.073 389.185,281.12 L378.794,309.886 L372.356,309.886 L372.356,312.026 M398.7,293.776 C398.481,293.776 398.153,293.714 397.935,293.651 C396.388,293.058 395.95,291.245 395.95,289.198 C395.95,285.964 397.153,282.167 397.216,281.886 C398.2,277.933 401.122,273.526 403.872,271.995 C404.575,271.558 405.294,271.386 405.903,271.386 C406.169,271.386 406.45,271.386 406.731,271.495 C407.169,271.604 407.497,271.995 407.716,272.433 C408.044,273.042 408.153,273.854 408.153,274.792 C408.153,277.604 407.06,281.401 406.45,283.261 C405.138,287.339 402.544,292.229 399.903,293.495 C399.575,293.651 399.028,293.776 398.7,293.776"/>
<path class="" fill-rule="evenodd" d="M948.125,157.416 L1056.45,183.067 L1056.45,195.913 L948.125,170.262 L948.125,157.416 "/>
<path class="" fill-rule="evenodd" d="M948.125,138.666 L1056.45,164.317 L1056.45,177.163 L948.125,151.512 L948.125,138.666 "/>
<path class="" d="M1005.21,225.789 C1007.34,225.117 1008.18,224.742 1009.26,224.024 C1011.38,222.633 1012.68,220.164 1012.68,217.633 C1012.68,213.367 1009.26,210.492 1004.23,210.492 C999.321,210.492 995.18,213.539 995.18,217.242 C995.18,219.086 996.305,220.336 998.008,220.336 C999.492,220.336 1000.59,219.258 1000.59,217.774 C1000.59,217.008 1000.35,216.477 999.633,215.758 C999.18,215.352 999.008,215.024 999.008,214.711 C999.008,213.633 1001.26,212.508 1003.37,212.508 C1006.38,212.508 1008.18,214.18 1008.18,216.961 C1008.18,220.977 1005.35,224.742 1002.34,224.742 C1002.2,224.742 1001.79,224.711 1001.3,224.664 C999.992,224.571 999.992,224.571 999.727,224.571 C998.727,224.571 998.196,225.024 998.196,225.836 C998.196,226.555 998.696,226.992 999.492,226.992 C999.727,226.992 1000.04,226.961 1000.4,226.914 C1001.02,226.774 1001.71,226.727 1002.1,226.727 C1004.23,226.727 1005.66,228.617 1005.66,231.414 C1005.66,233.571 1005.16,235.633 1004.18,237.352 C1002.84,239.774 1000.76,240.946 997.836,240.946 C995.321,240.946 993.149,239.696 993.149,238.242 C993.149,237.758 993.336,237.571 994.055,237.258 C995.352,236.68 995.899,235.867 995.899,234.649 C995.899,233.071 994.633,231.867 993.024,231.867 C991.086,231.867 989.821,233.383 989.821,235.727 C989.821,240.102 993.149,242.836 998.555,242.836 C1005.35,242.836 1010.52,238.289 1010.52,232.258 C1010.52,230.649 1010.02,229.242 1009.09,228.117 C1008.09,226.961 1007.2,226.414 1005.21,225.789"/>
<path class="" d="M1359.96,531.417 L1359.96,530.355 L1347.74,530.355 L1347.74,531.417 C1348.45,531.526 1349.04,531.683 1349.51,531.823 C1349.98,531.98 1350.32,532.12 1350.62,532.261 C1350.91,532.448 1351.12,532.589 1351.29,532.73 C1351.45,532.917 1351.55,533.058 1351.68,533.23 C1351.96,533.761 1352.02,534.495 1351.79,535.37 C1351.55,536.276 1351.15,537.448 1350.59,538.917 L1341.21,561.995 L1331.05,538.683 C1330.38,537.151 1329.96,535.964 1329.79,535.026 C1329.62,534.089 1329.73,533.386 1330.09,532.855 C1330.32,532.448 1330.76,532.151 1331.4,531.917 C1332.04,531.683 1332.96,531.526 1334.13,531.417 L1334.13,530.355 L1317.87,530.355 L1317.87,531.417 C1318.8,531.511 1319.54,531.651 1320.12,531.823 C1320.68,531.995 1321.18,532.261 1321.65,532.62 C1321.82,532.761 1321.96,532.917 1322.15,533.026 C1322.29,533.151 1322.46,533.355 1322.66,533.62 C1322.85,533.87 1323.09,534.261 1323.35,534.73 C1323.59,535.198 1323.9,535.87 1324.26,536.714 L1339.07,571.026 L1340.2,571.026 L1354.02,537.136 C1354.84,535.136 1355.77,533.667 1356.8,532.73 C1357.12,532.386 1357.57,532.12 1358.12,531.886 C1358.65,531.683 1359.26,531.526 1359.96,531.417 M1376.76,540.355 C1376.76,541.261 1376.63,542.058 1376.37,542.73 C1376.1,543.433 1375.79,543.98 1375.38,544.448 C1374.93,544.917 1374.45,545.276 1373.88,545.511 C1373.32,545.745 1372.74,545.886 1372.12,545.886 C1371.21,545.948 1370.43,545.714 1369.73,545.214 C1369.02,544.745 1368.43,544.105 1367.93,543.339 C1367.43,542.573 1367.09,541.761 1366.82,540.855 C1366.55,539.948 1366.45,539.089 1366.45,538.276 C1366.45,537.808 1366.48,537.245 1366.55,536.605 C1366.65,535.964 1366.76,535.261 1366.91,534.464 C1367.46,534.136 1368.13,533.792 1368.9,533.433 C1369.63,533.089 1370.46,532.917 1371.3,532.917 C1372.27,532.917 1373.09,533.151 1373.79,533.558 C1374.46,533.995 1375.05,534.558 1375.49,535.261 C1375.93,535.964 1376.26,536.776 1376.46,537.651 C1376.66,538.542 1376.76,539.448 1376.76,540.355 M1380.54,538.448 C1380.54,537.151 1380.27,536.042 1379.77,535.136 C1379.27,534.261 1378.66,533.526 1377.93,532.964 C1377.2,532.417 1376.4,531.995 1375.55,531.761 C1374.7,531.526 1373.98,531.417 1373.32,531.417 C1372.27,531.417 1371.24,531.558 1370.24,531.855 C1369.26,532.151 1368.23,532.589 1367.18,533.167 C1367.43,532.23 1367.79,531.355 1368.16,530.589 C1368.55,529.839 1368.96,529.136 1369.4,528.511 C1369.84,527.901 1370.27,527.37 1370.71,526.901 C1371.16,526.464 1371.54,526.089 1371.91,525.792 C1372.98,524.917 1374.18,524.214 1375.49,523.683 C1376.8,523.151 1378.27,522.855 1379.95,522.808 L1379.95,522.105 L1378.74,522.105 C1378.01,522.105 1377.26,522.183 1376.43,522.308 C1375.59,522.417 1374.73,522.62 1373.82,522.917 C1372.91,523.214 1372.01,523.62 1371.1,524.089 C1370.16,524.589 1369.26,525.198 1368.35,525.901 C1367.65,526.495 1366.95,527.136 1366.24,527.87 C1365.54,528.636 1364.91,529.448 1364.37,530.386 C1363.8,531.323 1363.34,532.386 1363.01,533.495 C1362.66,534.605 1362.49,535.839 1362.49,537.136 C1362.49,538.48 1362.73,539.73 1363.16,540.901 C1363.6,542.073 1364.21,543.136 1365.01,544.011 C1365.79,544.886 1366.73,545.589 1367.85,546.12 C1368.93,546.651 1370.16,546.886 1371.48,546.886 C1372.85,546.886 1374.12,546.651 1375.23,546.151 C1376.34,545.683 1377.3,545.042 1378.1,544.245 C1378.9,543.464 1379.48,542.542 1379.91,541.526 C1380.32,540.526 1380.54,539.495 1380.54,538.448 M1378.15,551.401 L1379.84,548.386 L1369.55,548.386 L1364.05,557.636 C1364.73,557.667 1365.43,557.73 1366.2,557.776 C1366.95,557.839 1367.74,557.964 1368.57,558.136 C1369.38,558.308 1370.21,558.573 1371.02,558.901 C1371.85,559.245 1372.63,559.651 1373.43,560.183 C1374.04,560.589 1374.54,561.058 1374.95,561.526 C1375.37,561.995 1375.68,562.495 1375.95,562.964 C1376.18,563.433 1376.35,563.901 1376.45,564.339 C1376.54,564.808 1376.59,565.198 1376.59,565.542 C1376.59,566.308 1376.41,567.011 1376.09,567.651 C1375.74,568.308 1375.27,568.886 1374.71,569.355 C1374.16,569.823 1373.49,570.214 1372.76,570.464 C1372.02,570.73 1371.23,570.855 1370.45,570.855 C1369.71,570.855 1369.12,570.761 1368.62,570.589 C1368.12,570.417 1367.68,570.214 1367.3,569.964 C1366.93,569.761 1366.54,569.558 1366.16,569.386 C1365.77,569.214 1365.3,569.089 1364.82,569.089 C1364.46,569.089 1364.16,569.151 1363.96,569.245 C1363.76,569.355 1363.59,569.48 1363.46,569.589 C1363.35,569.714 1363.26,569.855 1363.23,569.995 C1363.18,570.151 1363.15,570.261 1363.15,570.355 C1363.15,570.995 1363.55,571.526 1364.37,571.995 C1365.16,572.464 1366.4,572.667 1368.07,572.667 C1368.85,572.667 1369.68,572.605 1370.55,572.433 C1371.4,572.261 1372.26,572.026 1373.1,571.667 C1373.96,571.323 1374.74,570.917 1375.51,570.386 C1376.24,569.886 1376.91,569.292 1377.49,568.62 C1378.05,567.98 1378.52,567.214 1378.88,566.401 C1379.2,565.573 1379.37,564.636 1379.37,563.636 C1379.37,562.526 1379.13,561.526 1378.7,560.651 C1378.26,559.776 1377.68,559.011 1376.95,558.37 C1376.21,557.73 1375.41,557.167 1374.54,556.698 C1373.63,556.23 1372.76,555.855 1371.9,555.558 C1371.02,555.261 1370.21,555.026 1369.45,554.886 C1368.68,554.73 1368.07,554.651 1367.63,554.589 L1369.55,551.401 L1378.15,551.401 "/>
<path class="" d="M402.173,533.433 C402.173,532.761 401.939,532.12 401.501,531.511 C401.032,530.917 400.439,530.386 399.735,529.917 C399.032,529.448 398.235,529.105 397.36,528.808 C396.485,528.542 395.642,528.401 394.782,528.401 C394.47,528.401 393.97,528.464 393.298,528.511 C392.61,528.605 391.86,528.776 391.032,529.073 C390.189,529.37 389.314,529.808 388.423,530.355 C387.548,530.948 386.735,531.714 386.001,532.683 C385.267,533.636 384.673,534.839 384.204,536.245 C383.735,537.683 383.501,539.417 383.501,541.433 L383.501,543.245 L378.267,543.245 L378.267,545.355 L383.501,545.355 L383.501,562.964 C383.501,563.855 383.47,564.558 383.454,565.105 C383.392,565.667 383.329,566.136 383.235,566.48 C383.157,566.87 383.032,567.151 382.892,567.386 C382.72,567.62 382.532,567.855 382.298,568.073 C381.829,568.48 381.392,568.714 380.985,568.823 C380.548,568.948 380.11,568.98 379.642,568.98 L378.439,568.98 L378.439,570.089 L394.579,570.089 L394.579,568.98 L392.173,568.98 C390.892,568.98 389.923,568.558 389.282,567.714 C388.923,567.417 388.72,566.87 388.61,566.042 C388.485,565.261 388.423,564.23 388.423,562.964 L388.423,545.355 L395.345,545.355 L395.345,543.245 L388.423,543.245 L388.423,541.323 C388.423,539.448 388.454,537.808 388.517,536.448 C388.579,535.105 388.751,534.026 389.048,533.151 C389.314,532.261 389.72,531.62 390.251,531.214 C390.767,530.808 391.532,530.589 392.47,530.589 C393.142,530.589 393.735,530.745 394.235,531.011 C394.704,531.276 395.142,531.589 395.517,531.98 C395.876,532.386 396.22,532.792 396.517,533.261 C396.814,533.73 397.126,534.136 397.454,534.526 C397.767,534.933 398.126,535.261 398.47,535.511 C398.829,535.776 399.267,535.901 399.798,535.87 C400.11,535.87 400.439,535.808 400.735,535.636 C401.032,535.495 401.267,535.276 401.501,535.042 C401.704,534.808 401.876,534.558 401.985,534.261 C402.11,533.964 402.173,533.698 402.173,533.433 M406.782,567.605 C406.782,567.136 406.704,566.714 406.517,566.308 C406.345,565.901 406.11,565.573 405.814,565.276 C405.532,564.995 405.173,564.792 404.767,564.605 C404.36,564.464 403.939,564.37 403.532,564.37 C402.595,564.37 401.798,564.698 401.22,565.276 C400.61,565.901 400.314,566.667 400.314,567.605 C400.314,568.073 400.376,568.48 400.517,568.886 C400.657,569.292 400.86,569.683 401.157,569.964 C401.454,570.261 401.782,570.526 402.189,570.698 C402.564,570.886 403.001,570.964 403.532,570.964 C404.001,570.964 404.407,570.886 404.829,570.698 C405.235,570.526 405.579,570.261 405.876,569.964 C406.173,569.683 406.376,569.292 406.548,568.886 C406.704,568.48 406.782,568.073 406.782,567.605 M422.814,534.105 C422.814,533.698 422.72,533.323 422.579,532.964 C422.407,532.62 422.189,532.323 421.939,532.058 C421.673,531.792 421.345,531.589 421.001,531.417 C420.642,531.276 420.267,531.183 419.845,531.183 C419.439,531.183 419.032,531.276 418.673,531.417 C418.329,531.558 418.001,531.761 417.735,531.995 C417.454,532.261 417.251,532.589 417.095,532.933 C416.923,533.292 416.86,533.698 416.86,534.105 C416.86,534.995 417.126,535.73 417.72,536.276 C418.267,536.87 418.97,537.136 419.845,537.136 C420.704,537.136 421.407,536.839 421.954,536.245 C422.517,535.667 422.814,534.964 422.814,534.105 M413.282,570.089 L426.407,570.089 L426.407,568.98 C425.564,568.98 424.86,568.917 424.329,568.792 C423.814,568.683 423.36,568.48 423.079,568.151 C422.782,567.839 422.579,567.386 422.454,566.808 C422.345,566.214 422.282,565.495 422.282,564.573 L422.282,542.495 L421.017,542.495 L412.907,545.714 L413.282,546.761 C413.735,546.62 414.11,546.511 414.454,546.417 C414.782,546.355 415.079,546.292 415.376,546.292 C416.126,546.292 416.657,546.651 416.954,547.292 C417.251,547.964 417.392,548.933 417.392,550.23 L417.392,564.573 C417.392,565.495 417.329,566.214 417.22,566.808 C417.095,567.386 416.892,567.839 416.595,568.151 C416.314,568.48 415.86,568.683 415.345,568.792 C414.814,568.917 414.11,568.98 413.282,568.98 L413.282,570.089 M450.423,575.714 L450.423,574.667 C449.423,574.433 448.548,574.073 447.767,573.636 C446.939,573.23 446.267,572.667 445.673,572.026 C445.095,571.386 444.657,570.651 444.329,569.792 C444.017,568.948 443.86,567.98 443.86,566.901 C443.86,566.214 443.923,565.542 444.064,564.87 C444.189,564.23 444.329,563.558 444.501,562.917 C444.657,562.261 444.798,561.589 444.954,560.917 C445.064,560.276 445.157,559.605 445.157,558.901 C445.157,557.605 444.954,556.37 444.532,555.261 C444.126,554.151 443.595,553.151 442.892,552.276 C442.189,551.401 441.345,550.636 440.345,549.995 C439.345,549.339 438.298,548.792 437.126,548.386 C438.267,547.964 439.329,547.448 440.314,546.792 C441.314,546.151 442.157,545.386 442.86,544.511 C443.564,543.636 444.126,542.667 444.532,541.589 C444.954,540.495 445.157,539.292 445.157,537.98 C445.157,537.276 445.064,536.605 444.954,535.933 C444.798,535.261 444.657,534.573 444.501,533.901 C444.329,533.261 444.189,532.589 444.064,531.917 C443.923,531.245 443.86,530.573 443.86,529.87 C443.86,528.808 444.017,527.839 444.329,526.995 C444.657,526.136 445.095,525.417 445.673,524.761 C446.267,524.12 446.939,523.589 447.767,523.151 C448.548,522.714 449.423,522.37 450.423,522.105 L450.423,521.073 C449.048,521.245 447.704,521.636 446.407,522.245 C445.095,522.855 443.923,523.651 442.892,524.62 C441.876,525.589 441.048,526.698 440.439,527.933 C439.798,529.183 439.501,530.511 439.501,531.917 C439.501,532.73 439.564,533.589 439.704,534.401 C439.814,535.23 440.001,536.042 440.173,536.87 C440.345,537.683 440.501,538.448 440.642,539.214 C440.751,539.964 440.845,540.667 440.845,541.355 C440.845,542.292 440.61,543.105 440.173,543.839 C439.735,544.605 439.173,545.214 438.532,545.745 C437.86,546.276 437.126,546.714 436.329,547.026 C435.548,547.355 434.814,547.558 434.11,547.62 L434.11,549.136 C434.814,549.261 435.579,549.464 436.36,549.792 C437.157,550.105 437.892,550.542 438.564,551.073 C439.204,551.636 439.767,552.276 440.204,553.042 C440.61,553.792 440.845,554.62 440.845,555.558 C440.845,556.198 440.751,556.901 440.642,557.605 C440.501,558.308 440.345,559.042 440.173,559.808 C440.001,560.573 439.814,561.323 439.704,562.089 C439.564,562.886 439.501,563.667 439.501,564.433 C439.501,565.901 439.798,567.308 440.407,568.589 C441.017,569.917 441.845,571.089 442.845,572.089 C443.829,573.073 445.001,573.901 446.329,574.542 C447.642,575.183 449.017,575.605 450.423,575.714"/>
<path class="" d="M840.349,57.5887 C840.349,60.3543 842.583,62.5887 845.349,62.5887 C848.115,62.5887 850.349,60.3543 850.349,57.5887 C850.349,54.823 848.115,52.5887 845.349,52.5887 C842.583,52.5887 840.349,54.823 840.349,57.5887"/>
<path class="" transform="matrix(3.625,0,0,3.875,23.2869,482.589)" d="M0.921875,-50 C2.6875,-51.8906 6.20313,-55.7969 6.20313,-63 C6.20313,-72.1094 2.26563,-81.3281 2.26563,-86.9688 C2.26563,-93.0625 5.84375,-98.8438 5.95313,-99 C6.0625,-99.1719 6.04688,-99.3906 5.9375,-99.4688 C5.82813,-99.5313 5.625,-99.4688 5.48438,-99.3281 C5.35938,-99.1719 0,-93.75 0,-85.6094 C0,-76.75 3.5,-70.5781 3.5,-59.0781 C3.5,-56.8906 2.5625,-53.3594 0.09375,-50.3281 C-0.078125,-50.1719 -0.09375,-49.8906 0.0625,-49.7031 L0.0625,-49.6875 L0.09375,-49.6563 C2.5625,-46.625 3.5,-43.1094 3.5,-40.9219 C3.5,-29.4063 0,-23.2344 0,-14.3906 C0,-6.25 5.35938,-0.796875 5.48438,-0.65625 C5.625,-0.515625 5.79688,-0.4375 5.9375,-0.515625 C6.07813,-0.609375 6.07813,-0.78125 5.95313,-0.984375 C5.8125,-1.1875 2.26563,-6.92188 2.26563,-13.0156 C2.26563,-18.6563 6.20313,-27.9063 6.20313,-37 C6.20313,-44.2969 2.6875,-48.125 0.921875,-50"/>
</svg>
