<?xml version="1.0" encoding="UTF-8" standalone="no"?>
<svg width="2702px" height="602px" viewBox="0 0 2702 602"
 xmlns="http://www.w3.org/2000/svg" xmlns:xlink="http://www.w3.org/1999/xlink" version="1.2" baseProfile="tiny">
<title>counterpoint_03_beethoven</title>
<desc>Generated by MuseScore 3.6.2</desc>
<path class="" d="M25.8549,29.7888 L24.8237,31.6326 C23.2143,34.3982 22.9018,34.6326 20.8549,34.6638 L11.5893,34.6638 C12.5424,33.3982 14.308,31.9138 17.4955,29.6638 C22.7768,26.0388 23.1362,25.7888 24.2612,24.9138 C27.4643,22.4295 28.7768,20.0701 28.7768,16.9138 C28.7768,12.7107 25.6674,9.91383 21.058,9.91383 C15.9487,9.91383 11.5112,13.6795 11.5112,18.0388 C11.5112,20.2732 12.6987,21.7107 14.6205,21.7107 C16.058,21.7107 17.183,20.6326 17.183,19.1482 C17.183,18.117 16.6674,17.4295 15.3393,16.7107 C14.3862,16.2263 14.2299,16.0388 14.2299,15.5545 C14.2299,13.8357 17.183,11.9138 19.9018,11.9138 C22.6987,11.9138 24.5893,13.7888 24.5893,16.6013 C24.5893,19.5857 23.2612,21.7888 19.6674,24.9138 C9.0268,34.1482 7.41742,35.8357 7.05805,38.0701 L24.2143,38.0701 L27.308,30.3513 L25.8549,29.7888 M51.183,9.75758 L49.0112,9.75758 L30.3862,29.0388 L30.3862,30.7107 L41.6518,30.7107 L41.0112,33.1482 C40.4955,35.1482 40.4643,35.2732 40.0893,35.6326 C39.6987,36.0232 38.8549,36.1951 36.7299,36.1951 L36.0112,36.1951 L35.7768,38.0701 L48.2143,38.0701 L48.4174,36.1951 L47.6987,36.1951 C45.058,36.1951 44.4955,35.992 44.4955,35.117 C44.4955,34.7888 44.5737,34.3982 44.9018,33.1482 L45.5737,30.7107 L50.1362,30.7107 L50.7299,28.5545 L46.1362,28.5545 L51.183,9.75758 M42.2612,28.5545 L33.2924,28.5545 L45.6518,15.8357 L42.2612,28.5545 M59.2455,24.6795 C59.933,21.1482 60.7299,18.9607 62.2455,16.2732 C64.058,13.117 66.2143,11.5076 68.6049,11.5076 C69.8549,11.5076 70.6049,11.992 70.6049,12.7576 C70.6049,13.0388 70.5268,13.1951 70.2455,13.7107 C69.8862,14.3982 69.7299,14.867 69.7299,15.4763 C69.7299,16.7576 70.683,17.6326 72.0424,17.6326 C73.683,17.6326 74.808,16.4295 74.808,14.6326 C74.808,11.9138 72.2455,9.91383 68.683,9.91383 C64.933,9.91383 61.5737,11.9138 58.8549,15.7576 C56.058,19.7107 54.3705,24.7888 54.3705,29.2263 C54.3705,35.117 57.2924,38.6638 62.1674,38.6638 C65.1674,38.6638 67.8549,37.4763 69.7768,35.3513 C71.5268,33.3513 72.6049,30.4763 72.6049,27.8357 C72.6049,23.7576 69.8549,20.9138 65.8549,20.9138 C63.058,20.9138 60.8862,22.117 59.2455,24.6795 M64.5737,23.2263 C67.058,23.2263 68.4174,24.9451 68.4174,28.0701 C68.4174,33.1482 65.7299,37.0232 62.1674,37.0232 C59.6049,37.0232 58.0893,35.1482 58.0893,31.9451 C58.0893,26.9451 60.8549,23.2263 64.5737,23.2263"/>
<polyline class="" fill="none" stroke="#000000" stroke-width="3.99" stroke-linejoin="bevel" points="2697.38,354.661 2697.38,445.767"/>
<polyline class="" fill="none" stroke="#000000" stroke-width="3.99" stroke-linejoin="bevel" points="2535.58,354.661 2535.58,445.767"/>
<polyline class="" fill="none" stroke="#000000" stroke-width="3.99" stroke-linejoin="bevel" points="2102.46,354.661 2102.46,445.767"/>
<polyline class="" fill="none" stroke="#000000" stroke-width="3.99" stroke-linejoin="bevel" points="1669.35,354.661 1669.35,445.767"/>
<polyline class="" fill="none" stroke="#000000" stroke-width="3.99" stroke-linejoin="bevel" points="1228.47,354.661 1228.47,445.767"/>
<polyline class="" fill="none" stroke="#000000" stroke-width="3.99" stroke-linejoin="bevel" points="892.422,354.661 892.422,445.767"/>
<polyline class="" fill="none" stroke="#000000" stroke-width="3.99" stroke-linejoin="bevel" points="500.309,354.661 500.309,445.767"/>
<polyline class="" fill="none" stroke="#000000" stroke-width="3.99" stroke-linejoin="bevel" points="8.45932,354.661 8.45932,445.767"/>
<polyline class="" fill="none" stroke="#000000" stroke-width="3.99" stroke-linejoin="bevel" points="2697.38,81.1848 2697.38,355.88"/>
<polyline class="" fill="none" stroke="#000000" stroke-width="3.99" stroke-linejoin="bevel" points="2535.58,81.1848 2535.58,355.88"/>
<polyline class="" fill="none" stroke="#000000" stroke-width="3.99" stroke-linejoin="bevel" points="2102.46,81.1848 2102.46,355.88"/>
<polyline class="" fill="none" stroke="#000000" stroke-width="3.99" stroke-linejoin="bevel" points="1669.35,81.1848 1669.35,355.88"/>
<polyline class="" fill="none" stroke="#000000" stroke-width="3.99" stroke-linejoin="bevel" points="1228.47,81.1848 1228.47,355.88"/>
<polyline class="" fill="none" stroke="#000000" stroke-width="3.99" stroke-linejoin="bevel" points="892.422,81.1848 892.422,355.88"/>
<polyline class="" fill="none" stroke="#000000" stroke-width="3.99" stroke-linejoin="bevel" points="500.309,81.1848 500.309,355.88"/>
<polyline class="" fill="none" stroke="#000000" stroke-width="3.99" stroke-linejoin="bevel" points="8.45932,81.1848 8.45932,355.88"/>
<polyline class="" fill="none" stroke="#000000" stroke-width="2.44" stroke-linejoin="bevel" points="2537.57,355.88 2699.38,355.88"/>
<polyline class="" fill="none" stroke="#000000" stroke-width="2.44" stroke-linejoin="bevel" points="2537.57,378.047 2699.38,378.047"/>
<polyline class="" fill="none" stroke="#000000" stroke-width="2.44" stroke-linejoin="bevel" points="2537.57,400.214 2699.38,400.214"/>
<polyline class="" fill="none" stroke="#000000" stroke-width="2.44" stroke-linejoin="bevel" points="2537.57,422.381 2699.38,422.381"/>
<polyline class="" fill="none" stroke="#000000" stroke-width="2.44" stroke-linejoin="bevel" points="2537.57,444.548 2699.38,444.548"/>
<polyline class="" fill="none" stroke="#000000" stroke-width="2.44" stroke-linejoin="bevel" points="2104.46,355.88 2537.57,355.88"/>
<polyline class="" fill="none" stroke="#000000" stroke-width="2.44" stroke-linejoin="bevel" points="2104.46,378.047 2537.57,378.047"/>
<polyline class="" fill="none" stroke="#000000" stroke-width="2.44" stroke-linejoin="bevel" points="2104.46,400.214 2537.57,400.214"/>
<polyline class="" fill="none" stroke="#000000" stroke-width="2.44" stroke-linejoin="bevel" points="2104.46,422.381 2537.57,422.381"/>
<polyline class="" fill="none" stroke="#000000" stroke-width="2.44" stroke-linejoin="bevel" points="2104.46,444.548 2537.57,444.548"/>
<polyline class="" fill="none" stroke="#000000" stroke-width="2.44" stroke-linejoin="bevel" points="1671.34,355.88 2104.46,355.88"/>
<polyline class="" fill="none" stroke="#000000" stroke-width="2.44" stroke-linejoin="bevel" points="1671.34,378.047 2104.46,378.047"/>
<polyline class="" fill="none" stroke="#000000" stroke-width="2.44" stroke-linejoin="bevel" points="1671.34,400.214 2104.46,400.214"/>
<polyline class="" fill="none" stroke="#000000" stroke-width="2.44" stroke-linejoin="bevel" points="1671.34,422.381 2104.46,422.381"/>
<polyline class="" fill="none" stroke="#000000" stroke-width="2.44" stroke-linejoin="bevel" points="1671.34,444.548 2104.46,444.548"/>
<polyline class="" fill="none" stroke="#000000" stroke-width="2.44" stroke-linejoin="bevel" points="1230.47,355.88 1671.34,355.88"/>
<polyline class="" fill="none" stroke="#000000" stroke-width="2.44" stroke-linejoin="bevel" points="1230.47,378.047 1671.34,378.047"/>
<polyline class="" fill="none" stroke="#000000" stroke-width="2.44" stroke-linejoin="bevel" points="1230.47,400.214 1671.34,400.214"/>
<polyline class="" fill="none" stroke="#000000" stroke-width="2.44" stroke-linejoin="bevel" points="1230.47,422.381 1671.34,422.381"/>
<polyline class="" fill="none" stroke="#000000" stroke-width="2.44" stroke-linejoin="bevel" points="1230.47,444.548 1671.34,444.548"/>
<polyline class="" fill="none" stroke="#000000" stroke-width="2.44" stroke-linejoin="bevel" points="894.417,355.88 1230.47,355.88"/>
<polyline class="" fill="none" stroke="#000000" stroke-width="2.44" stroke-linejoin="bevel" points="894.417,378.047 1230.47,378.047"/>
<polyline class="" fill="none" stroke="#000000" stroke-width="2.44" stroke-linejoin="bevel" points="894.417,400.214 1230.47,400.214"/>
<polyline class="" fill="none" stroke="#000000" stroke-width="2.44" stroke-linejoin="bevel" points="894.417,422.381 1230.47,422.381"/>
<polyline class="" fill="none" stroke="#000000" stroke-width="2.44" stroke-linejoin="bevel" points="894.417,444.548 1230.47,444.548"/>
<polyline class="" fill="none" stroke="#000000" stroke-width="2.44" stroke-linejoin="bevel" points="502.304,355.88 894.417,355.88"/>
<polyline class="" fill="none" stroke="#000000" stroke-width="2.44" stroke-linejoin="bevel" points="502.304,378.047 894.417,378.047"/>
<polyline class="" fill="none" stroke="#000000" stroke-width="2.44" stroke-linejoin="bevel" points="502.304,400.214 894.417,400.214"/>
<polyline class="" fill="none" stroke="#000000" stroke-width="2.44" stroke-linejoin="bevel" points="502.304,422.381 894.417,422.381"/>
<polyline class="" fill="none" stroke="#000000" stroke-width="2.44" stroke-linejoin="bevel" points="502.304,444.548 894.417,444.548"/>
<polyline class="" fill="none" stroke="#000000" stroke-width="2.44" stroke-linejoin="bevel" points="6.4643,355.88 502.304,355.88"/>
<polyline class="" fill="none" stroke="#000000" stroke-width="2.44" stroke-linejoin="bevel" points="6.4643,378.047 502.304,378.047"/>
<polyline class="" fill="none" stroke="#000000" stroke-width="2.44" stroke-linejoin="bevel" points="6.4643,400.214 502.304,400.214"/>
<polyline class="" fill="none" stroke="#000000" stroke-width="2.44" stroke-linejoin="bevel" points="6.4643,422.381 502.304,422.381"/>
<polyline class="" fill="none" stroke="#000000" stroke-width="2.44" stroke-linejoin="bevel" points="6.4643,444.548 502.304,444.548"/>
<polyline class="" fill="none" stroke="#000000" stroke-width="2.44" stroke-linejoin="bevel" points="2537.57,82.4039 2699.38,82.4039"/>
<polyline class="" fill="none" stroke="#000000" stroke-width="2.44" stroke-linejoin="bevel" points="2537.57,104.571 2699.38,104.571"/>
<polyline class="" fill="none" stroke="#000000" stroke-width="2.44" stroke-linejoin="bevel" points="2537.57,126.738 2699.38,126.738"/>
<polyline class="" fill="none" stroke="#000000" stroke-width="2.44" stroke-linejoin="bevel" points="2537.57,148.905 2699.38,148.905"/>
<polyline class="" fill="none" stroke="#000000" stroke-width="2.44" stroke-linejoin="bevel" points="2537.57,171.072 2699.38,171.072"/>
<polyline class="" fill="none" stroke="#000000" stroke-width="2.44" stroke-linejoin="bevel" points="2104.46,82.4039 2537.57,82.4039"/>
<polyline class="" fill="none" stroke="#000000" stroke-width="2.44" stroke-linejoin="bevel" points="2104.46,104.571 2537.57,104.571"/>
<polyline class="" fill="none" stroke="#000000" stroke-width="2.44" stroke-linejoin="bevel" points="2104.46,126.738 2537.57,126.738"/>
<polyline class="" fill="none" stroke="#000000" stroke-width="2.44" stroke-linejoin="bevel" points="2104.46,148.905 2537.57,148.905"/>
<polyline class="" fill="none" stroke="#000000" stroke-width="2.44" stroke-linejoin="bevel" points="2104.46,171.072 2537.57,171.072"/>
<polyline class="" fill="none" stroke="#000000" stroke-width="2.44" stroke-linejoin="bevel" points="1671.34,82.4039 2104.46,82.4039"/>
<polyline class="" fill="none" stroke="#000000" stroke-width="2.44" stroke-linejoin="bevel" points="1671.34,104.571 2104.46,104.571"/>
<polyline class="" fill="none" stroke="#000000" stroke-width="2.44" stroke-linejoin="bevel" points="1671.34,126.738 2104.46,126.738"/>
<polyline class="" fill="none" stroke="#000000" stroke-width="2.44" stroke-linejoin="bevel" points="1671.34,148.905 2104.46,148.905"/>
<polyline class="" fill="none" stroke="#000000" stroke-width="2.44" stroke-linejoin="bevel" points="1671.34,171.072 2104.46,171.072"/>
<polyline class="" fill="none" stroke="#000000" stroke-width="2.44" stroke-linejoin="bevel" points="1230.47,82.4039 1671.34,82.4039"/>
<polyline class="" fill="none" stroke="#000000" stroke-width="2.44" stroke-linejoin="bevel" points="1230.47,104.571 1671.34,104.571"/>
<polyline class="" fill="none" stroke="#000000" stroke-width="2.44" stroke-linejoin="bevel" points="1230.47,126.738 1671.34,126.738"/>
<polyline class="" fill="none" stroke="#000000" stroke-width="2.44" stroke-linejoin="bevel" points="1230.47,148.905 1671.34,148.905"/>
<polyline class="" fill="none" stroke="#000000" stroke-width="2.44" stroke-linejoin="bevel" points="1230.47,171.072 1671.34,171.072"/>
<polyline class="" fill="none" stroke="#000000" stroke-width="2.44" stroke-linejoin="bevel" points="894.417,82.4039 1230.47,82.4039"/>
<polyline class="" fill="none" stroke="#000000" stroke-width="2.44" stroke-linejoin="bevel" points="894.417,104.571 1230.47,104.571"/>
<polyline class="" fill="none" stroke="#000000" stroke-width="2.44" stroke-linejoin="bevel" points="894.417,126.738 1230.47,126.738"/>
<polyline class="" fill="none" stroke="#000000" stroke-width="2.44" stroke-linejoin="bevel" points="894.417,148.905 1230.47,148.905"/>
<polyline class="" fill="none" stroke="#000000" stroke-width="2.44" stroke-linejoin="bevel" points="894.417,171.072 1230.47,171.072"/>
<polyline class="" fill="none" stroke="#000000" stroke-width="2.44" stroke-linejoin="bevel" points="502.304,82.4039 894.417,82.4039"/>
<polyline class="" fill="none" stroke="#000000" stroke-width="2.44" stroke-linejoin="bevel" points="502.304,104.571 894.417,104.571"/>
<polyline class="" fill="none" stroke="#000000" stroke-width="2.44" stroke-linejoin="bevel" points="502.304,126.738 894.417,126.738"/>
<polyline class="" fill="none" stroke="#000000" stroke-width="2.44" stroke-linejoin="bevel" points="502.304,148.905 894.417,148.905"/>
<polyline class="" fill="none" stroke="#000000" stroke-width="2.44" stroke-linejoin="bevel" points="502.304,171.072 894.417,171.072"/>
<polyline class="" fill="none" stroke="#000000" stroke-width="2.44" stroke-linejoin="bevel" points="6.4643,82.4039 502.304,82.4039"/>
<polyline class="" fill="none" stroke="#000000" stroke-width="2.44" stroke-linejoin="bevel" points="6.4643,104.571 502.304,104.571"/>
<polyline class="" fill="none" stroke="#000000" stroke-width="2.44" stroke-linejoin="bevel" points="6.4643,126.738 502.304,126.738"/>
<polyline class="" fill="none" stroke="#000000" stroke-width="2.44" stroke-linejoin="bevel" points="6.4643,148.905 502.304,148.905"/>
<polyline class="" fill="none" stroke="#000000" stroke-width="2.44" stroke-linejoin="bevel" points="6.4643,171.072 502.304,171.072"/>
<polyline class="" fill="none" stroke="#000000" stroke-width="3.55" stroke-linejoin="bevel" points="2564.17,488.882 2608.5,488.882"/>
<polyline class="" fill="none" stroke="#000000" stroke-width="3.55" stroke-linejoin="bevel" points="2564.17,466.715 2608.5,466.715"/>
<polyline class="" fill="none" stroke="#000000" stroke-width="3.55" stroke-linejoin="bevel" points="2131.06,511.049 2175.38,511.049"/>
<polyline class="" fill="none" stroke="#000000" stroke-width="3.55" stroke-linejoin="bevel" points="2131.06,488.882 2175.38,488.882"/>
<polyline class="" fill="none" stroke="#000000" stroke-width="3.55" stroke-linejoin="bevel" points="2131.06,466.715 2175.38,466.715"/>
<polyline class="" fill="none" stroke="#000000" stroke-width="3.55" stroke-linejoin="bevel" points="1697.94,511.049 1742.27,511.049"/>
<polyline class="" fill="none" stroke="#000000" stroke-width="3.55" stroke-linejoin="bevel" points="1697.94,488.882 1742.27,488.882"/>
<polyline class="" fill="none" stroke="#000000" stroke-width="3.55" stroke-linejoin="bevel" points="1697.94,466.715 1742.27,466.715"/>
<polyline class="" fill="none" stroke="#000000" stroke-width="3.55" stroke-linejoin="bevel" points="1257.07,533.216 1301.4,533.216"/>
<polyline class="" fill="none" stroke="#000000" stroke-width="3.55" stroke-linejoin="bevel" points="1257.07,511.049 1301.4,511.049"/>
<polyline class="" fill="none" stroke="#000000" stroke-width="3.55" stroke-linejoin="bevel" points="1257.07,488.882 1301.4,488.882"/>
<polyline class="" fill="none" stroke="#000000" stroke-width="3.55" stroke-linejoin="bevel" points="1257.07,466.715 1301.4,466.715"/>
<polyline class="" fill="none" stroke="#000000" stroke-width="3.55" stroke-linejoin="bevel" points="2564.17,193.239 2608.5,193.239"/>
<polyline class="" fill="none" stroke="#000000" stroke-width="3.55" stroke-linejoin="bevel" points="2427.13,60.237 2471.46,60.237"/>
<polyline class="" fill="none" stroke="#000000" stroke-width="3.55" stroke-linejoin="bevel" points="2328.44,193.239 2372.77,193.239"/>
<polyline class="" fill="none" stroke="#000000" stroke-width="3.55" stroke-linejoin="bevel" points="1895.32,215.406 1939.65,215.406"/>
<polyline class="" fill="none" stroke="#000000" stroke-width="3.55" stroke-linejoin="bevel" points="1895.32,193.239 1939.65,193.239"/>
<polyline class="" fill="none" stroke="#000000" stroke-width="3.55" stroke-linejoin="bevel" points="1558.96,60.237 1603.29,60.237"/>
<polyline class="" fill="none" stroke="#000000" stroke-width="3.55" stroke-linejoin="bevel" points="1458.33,215.406 1502.66,215.406"/>
<polyline class="" fill="none" stroke="#000000" stroke-width="3.55" stroke-linejoin="bevel" points="1458.33,193.239 1502.66,193.239"/>
<polyline class="" fill="none" stroke="#000000" stroke-width="3.55" stroke-linejoin="bevel" points="627.173,60.237 671.5,60.237"/>
<polyline class="" fill="none" stroke="#000000" stroke-width="3.55" stroke-linejoin="bevel" points="627.173,38.0701 671.5,38.0701"/>
<polyline class="" fill="none" stroke="#000000" stroke-width="3.55" stroke-linejoin="bevel" points="528.905,193.239 573.232,193.239"/>
<polyline class="" fill="none" stroke="#000000" stroke-width="3.55" stroke-linejoin="bevel" points="136.792,193.239 181.119,193.239"/>
<polyline class="" fill="none" stroke="#000000" stroke-width="2.44" stroke-linejoin="bevel" points="2599.52,486.044 2599.52,355.88"/>
<polyline class="" fill="none" stroke="#000000" stroke-width="2.44" stroke-linejoin="bevel" points="2660.92,408.46 2660.92,339.255"/>
<polyline class="" fill="none" stroke="#000000" stroke-width="2.44" stroke-linejoin="bevel" points="2265.1,441.711 2265.1,306.005"/>
<polyline class="" fill="none" stroke="#000000" stroke-width="2.44" stroke-linejoin="bevel" points="2166.41,519.295 2166.41,366.964"/>
<polyline class="" fill="none" stroke="#000000" stroke-width="2.44" stroke-linejoin="bevel" points="1831.98,441.711 1831.98,306.005"/>
<polyline class="" fill="none" stroke="#000000" stroke-width="2.44" stroke-linejoin="bevel" points="1733.29,519.295 1733.29,366.964"/>
<polyline class="" fill="none" stroke="#000000" stroke-width="2.44" stroke-linejoin="bevel" points="1393.05,452.794 1393.05,314.317"/>
<polyline class="" fill="none" stroke="#000000" stroke-width="2.44" stroke-linejoin="bevel" points="1292.42,530.378 1292.42,378.047"/>
<polyline class="" fill="none" stroke="#000000" stroke-width="2.44" stroke-linejoin="bevel" points="564.254,430.627 564.254,322.63"/>
<polyline class="" fill="none" stroke="#000000" stroke-width="2.44" stroke-linejoin="bevel" points="172.141,441.711 172.141,314.317"/>
<polyline class="" fill="none" stroke="#000000" stroke-width="2.44" stroke-linejoin="bevel" points="2599.52,190.401 2599.52,60.237"/>
<polyline class="" fill="none" stroke="#000000" stroke-width="2.44" stroke-linejoin="bevel" points="2660.92,112.817 2660.92,43.6118"/>
<polyline class="" fill="none" stroke="#000000" stroke-width="2.44" stroke-linejoin="bevel" points="2436.11,52.1328 2436.11,196.009"/>
<polyline class="" fill="none" stroke="#000000" stroke-width="2.44" stroke-linejoin="bevel" points="2363.79,201.485 2363.79,57.4661"/>
<polyline class="" fill="none" stroke="#000000" stroke-width="2.44" stroke-linejoin="bevel" points="2002.99,74.2997 2002.99,212.635"/>
<polyline class="" fill="none" stroke="#000000" stroke-width="2.44" stroke-linejoin="bevel" points="1930.67,223.652 1930.67,74.0913"/>
<polyline class="" fill="none" stroke="#000000" stroke-width="2.44" stroke-linejoin="bevel" points="1567.94,63.2162 1567.94,204.322"/>
<polyline class="" fill="none" stroke="#000000" stroke-width="2.44" stroke-linejoin="bevel" points="1493.68,212.568 1493.68,65.7787"/>
<polyline class="" fill="none" stroke="#000000" stroke-width="2.44" stroke-linejoin="bevel" points="636.15,41.0493 636.15,126.738"/>
<polyline class="" fill="none" stroke="#000000" stroke-width="2.44" stroke-linejoin="bevel" points="564.254,190.401 564.254,115.654"/>
<polyline class="" fill="none" stroke="#000000" stroke-width="2.44" stroke-linejoin="bevel" points="172.141,201.485 172.141,126.738"/>
<polyline class="" fill="none" stroke="#000000" stroke-width="2.44" stroke-linejoin="bevel" points="244.037,74.2997 244.037,148.905"/>
<path class="" transform="matrix(0.886677,0,0,0.886677,2633.33,411.298)" d="M31.5,-8.09375 C29.7031,-11.4063 25.9063,-13.2031 21.2969,-13.2031 C17.9063,-13.2031 14.2031,-12.2031 10.5938,-10.2969 C4,-6.79688 0,-0.90625 0,4.20313 C0,5.59375 0.296875,7 1,8.29688 C2.79688,11.5938 6.59375,13.2969 11.2031,13.2969 C14.5938,13.2969 18.2969,12.4063 21.9063,10.5 C28.5,7 32.5,1.09375 32.5,-4 C32.5,-5.40625 32.2031,-6.79688 31.5,-8.09375"/>
<path class="" transform="matrix(0.886677,0,0,0.886677,2571.93,488.882)" d="M31.5,-8.09375 C29.7031,-11.4063 25.9063,-13.2031 21.2969,-13.2031 C17.9063,-13.2031 14.2031,-12.2031 10.5938,-10.2969 C4,-6.79688 0,-0.90625 0,4.20313 C0,5.59375 0.296875,7 1,8.29688 C2.79688,11.5938 6.59375,13.2969 11.2031,13.2969 C14.5938,13.2969 18.2969,12.4063 21.9063,10.5 C28.5,7 32.5,1.09375 32.5,-4 C32.5,-5.40625 32.2031,-6.79688 31.5,-8.09375"/>
<path class="" transform="matrix(0.886677,0,0,0.886677,2237.51,444.548)" d="M31.5,-8.09375 C29.7031,-11.4063 25.9063,-13.2031 21.2969,-13.2031 C17.9063,-13.2031 14.2031,-12.2031 10.5938,-10.2969 C4,-6.79688 0,-0.90625 0,4.20313 C0,5.59375 0.296875,7 1,8.29688 C2.79688,11.5938 6.59375,13.2969 11.2031,13.2969 C14.5938,13.2969 18.2969,12.4063 21.9063,10.5 C28.5,7 32.5,1.09375 32.5,-4 C32.5,-5.40625 32.2031,-6.79688 31.5,-8.09375"/>
<path class="" transform="matrix(0.886677,0,0,0.886677,2237.51,366.964)" d="M31.5,-8.09375 C29.7031,-11.4063 25.9063,-13.2031 21.2969,-13.2031 C17.9063,-13.2031 14.2031,-12.2031 10.5938,-10.2969 C4,-6.79688 0,-0.90625 0,4.20313 C0,5.59375 0.296875,7 1,8.29688 C2.79688,11.5938 6.59375,13.2969 11.2031,13.2969 C14.5938,13.2969 18.2969,12.4063 21.9063,10.5 C28.5,7 32.5,1.09375 32.5,-4 C32.5,-5.40625 32.2031,-6.79688 31.5,-8.09375"/>
<path class="" transform="matrix(0.886677,0,0,0.886677,2138.82,522.132)" d="M31.5,-8.09375 C29.7031,-11.4063 25.9063,-13.2031 21.2969,-13.2031 C17.9063,-13.2031 14.2031,-12.2031 10.5938,-10.2969 C4,-6.79688 0,-0.90625 0,4.20313 C0,5.59375 0.296875,7 1,8.29688 C2.79688,11.5938 6.59375,13.2969 11.2031,13.2969 C14.5938,13.2969 18.2969,12.4063 21.9063,10.5 C28.5,7 32.5,1.09375 32.5,-4 C32.5,-5.40625 32.2031,-6.79688 31.5,-8.09375"/>
<path class="" transform="matrix(0.886677,0,0,0.886677,2138.82,444.548)" d="M31.5,-8.09375 C29.7031,-11.4063 25.9063,-13.2031 21.2969,-13.2031 C17.9063,-13.2031 14.2031,-12.2031 10.5938,-10.2969 C4,-6.79688 0,-0.90625 0,4.20313 C0,5.59375 0.296875,7 1,8.29688 C2.79688,11.5938 6.59375,13.2969 11.2031,13.2969 C14.5938,13.2969 18.2969,12.4063 21.9063,10.5 C28.5,7 32.5,1.09375 32.5,-4 C32.5,-5.40625 32.2031,-6.79688 31.5,-8.09375"/>
<path class="" transform="matrix(0.886677,0,0,0.886677,1804.39,444.548)" d="M31.5,-8.09375 C29.7031,-11.4063 25.9063,-13.2031 21.2969,-13.2031 C17.9063,-13.2031 14.2031,-12.2031 10.5938,-10.2969 C4,-6.79688 0,-0.90625 0,4.20313 C0,5.59375 0.296875,7 1,8.29688 C2.79688,11.5938 6.59375,13.2969 11.2031,13.2969 C14.5938,13.2969 18.2969,12.4063 21.9063,10.5 C28.5,7 32.5,1.09375 32.5,-4 C32.5,-5.40625 32.2031,-6.79688 31.5,-8.09375"/>
<path class="" transform="matrix(0.886677,0,0,0.886677,1804.39,366.964)" d="M31.5,-8.09375 C29.7031,-11.4063 25.9063,-13.2031 21.2969,-13.2031 C17.9063,-13.2031 14.2031,-12.2031 10.5938,-10.2969 C4,-6.79688 0,-0.90625 0,4.20313 C0,5.59375 0.296875,7 1,8.29688 C2.79688,11.5938 6.59375,13.2969 11.2031,13.2969 C14.5938,13.2969 18.2969,12.4063 21.9063,10.5 C28.5,7 32.5,1.09375 32.5,-4 C32.5,-5.40625 32.2031,-6.79688 31.5,-8.09375"/>
<path class="" transform="matrix(0.886677,0,0,0.886677,1705.7,522.132)" d="M31.5,-8.09375 C29.7031,-11.4063 25.9063,-13.2031 21.2969,-13.2031 C17.9063,-13.2031 14.2031,-12.2031 10.5938,-10.2969 C4,-6.79688 0,-0.90625 0,4.20313 C0,5.59375 0.296875,7 1,8.29688 C2.79688,11.5938 6.59375,13.2969 11.2031,13.2969 C14.5938,13.2969 18.2969,12.4063 21.9063,10.5 C28.5,7 32.5,1.09375 32.5,-4 C32.5,-5.40625 32.2031,-6.79688 31.5,-8.09375"/>
<path class="" transform="matrix(0.886677,0,0,0.886677,1705.7,444.548)" d="M31.5,-8.09375 C29.7031,-11.4063 25.9063,-13.2031 21.2969,-13.2031 C17.9063,-13.2031 14.2031,-12.2031 10.5938,-10.2969 C4,-6.79688 0,-0.90625 0,4.20313 C0,5.59375 0.296875,7 1,8.29688 C2.79688,11.5938 6.59375,13.2969 11.2031,13.2969 C14.5938,13.2969 18.2969,12.4063 21.9063,10.5 C28.5,7 32.5,1.09375 32.5,-4 C32.5,-5.40625 32.2031,-6.79688 31.5,-8.09375"/>
<path class="" transform="matrix(0.886677,0,0,0.886677,1365.46,455.631)" d="M31.5,-8.09375 C29.7031,-11.4063 25.9063,-13.2031 21.2969,-13.2031 C17.9063,-13.2031 14.2031,-12.2031 10.5938,-10.2969 C4,-6.79688 0,-0.90625 0,4.20313 C0,5.59375 0.296875,7 1,8.29688 C2.79688,11.5938 6.59375,13.2969 11.2031,13.2969 C14.5938,13.2969 18.2969,12.4063 21.9063,10.5 C28.5,7 32.5,1.09375 32.5,-4 C32.5,-5.40625 32.2031,-6.79688 31.5,-8.09375"/>
<path class="" transform="matrix(0.886677,0,0,0.886677,1365.46,378.047)" d="M31.5,-8.09375 C29.7031,-11.4063 25.9063,-13.2031 21.2969,-13.2031 C17.9063,-13.2031 14.2031,-12.2031 10.5938,-10.2969 C4,-6.79688 0,-0.90625 0,4.20313 C0,5.59375 0.296875,7 1,8.29688 C2.79688,11.5938 6.59375,13.2969 11.2031,13.2969 C14.5938,13.2969 18.2969,12.4063 21.9063,10.5 C28.5,7 32.5,1.09375 32.5,-4 C32.5,-5.40625 32.2031,-6.79688 31.5,-8.09375"/>
<path class="" transform="matrix(0.886677,0,0,0.886677,1264.83,533.216)" d="M31.5,-8.09375 C29.7031,-11.4063 25.9063,-13.2031 21.2969,-13.2031 C17.9063,-13.2031 14.2031,-12.2031 10.5938,-10.2969 C4,-6.79688 0,-0.90625 0,4.20313 C0,5.59375 0.296875,7 1,8.29688 C2.79688,11.5938 6.59375,13.2969 11.2031,13.2969 C14.5938,13.2969 18.2969,12.4063 21.9063,10.5 C28.5,7 32.5,1.09375 32.5,-4 C32.5,-5.40625 32.2031,-6.79688 31.5,-8.09375"/>
<path class="" transform="matrix(0.886677,0,0,0.886677,1264.83,455.631)" d="M31.5,-8.09375 C29.7031,-11.4063 25.9063,-13.2031 21.2969,-13.2031 C17.9063,-13.2031 14.2031,-12.2031 10.5938,-10.2969 C4,-6.79688 0,-0.90625 0,4.20313 C0,5.59375 0.296875,7 1,8.29688 C2.79688,11.5938 6.59375,13.2969 11.2031,13.2969 C14.5938,13.2969 18.2969,12.4063 21.9063,10.5 C28.5,7 32.5,1.09375 32.5,-4 C32.5,-5.40625 32.2031,-6.79688 31.5,-8.09375"/>
<path class="" transform="matrix(0.886677,0,0,0.886677,536.663,433.464)" d="M31.5,-8.09375 C29.7031,-11.4063 25.9063,-13.2031 21.2969,-13.2031 C17.9063,-13.2031 14.2031,-12.2031 10.5938,-10.2969 C4,-6.79688 0,-0.90625 0,4.20313 C0,5.59375 0.296875,7 1,8.29688 C2.79688,11.5938 6.59375,13.2969 11.2031,13.2969 C14.5938,13.2969 18.2969,12.4063 21.9063,10.5 C28.5,7 32.5,1.09375 32.5,-4 C32.5,-5.40625 32.2031,-6.79688 31.5,-8.09375"/>
<path class="" transform="matrix(0.886677,0,0,0.886677,536.663,411.298)" d="M31.5,-8.09375 C29.7031,-11.4063 25.9063,-13.2031 21.2969,-13.2031 C17.9063,-13.2031 14.2031,-12.2031 10.5938,-10.2969 C4,-6.79688 0,-0.90625 0,4.20313 C0,5.59375 0.296875,7 1,8.29688 C2.79688,11.5938 6.59375,13.2969 11.2031,13.2969 C14.5938,13.2969 18.2969,12.4063 21.9063,10.5 C28.5,7 32.5,1.09375 32.5,-4 C32.5,-5.40625 32.2031,-6.79688 31.5,-8.09375"/>
<path class="" transform="matrix(0.886677,0,0,0.886677,536.663,389.131)" d="M31.5,-8.09375 C29.7031,-11.4063 25.9063,-13.2031 21.2969,-13.2031 C17.9063,-13.2031 14.2031,-12.2031 10.5938,-10.2969 C4,-6.79688 0,-0.90625 0,4.20313 C0,5.59375 0.296875,7 1,8.29688 C2.79688,11.5938 6.59375,13.2969 11.2031,13.2969 C14.5938,13.2969 18.2969,12.4063 21.9063,10.5 C28.5,7 32.5,1.09375 32.5,-4 C32.5,-5.40625 32.2031,-6.79688 31.5,-8.09375"/>
<path class="" transform="matrix(0.886677,0,0,0.886677,144.55,444.548)" d="M31.5,-8.09375 C29.7031,-11.4063 25.9063,-13.2031 21.2969,-13.2031 C17.9063,-13.2031 14.2031,-12.2031 10.5938,-10.2969 C4,-6.79688 0,-0.90625 0,4.20313 C0,5.59375 0.296875,7 1,8.29688 C2.79688,11.5938 6.59375,13.2969 11.2031,13.2969 C14.5938,13.2969 18.2969,12.4063 21.9063,10.5 C28.5,7 32.5,1.09375 32.5,-4 C32.5,-5.40625 32.2031,-6.79688 31.5,-8.09375"/>
<path class="" transform="matrix(0.886677,0,0,0.886677,144.55,400.214)" d="M31.5,-8.09375 C29.7031,-11.4063 25.9063,-13.2031 21.2969,-13.2031 C17.9063,-13.2031 14.2031,-12.2031 10.5938,-10.2969 C4,-6.79688 0,-0.90625 0,4.20313 C0,5.59375 0.296875,7 1,8.29688 C2.79688,11.5938 6.59375,13.2969 11.2031,13.2969 C14.5938,13.2969 18.2969,12.4063 21.9063,10.5 C28.5,7 32.5,1.09375 32.5,-4 C32.5,-5.40625 32.2031,-6.79688 31.5,-8.09375"/>
<path class="" transform="matrix(0.886677,0,0,0.886677,144.55,378.047)" d="M31.5,-8.09375 C29.7031,-11.4063 25.9063,-13.2031 21.2969,-13.2031 C17.9063,-13.2031 14.2031,-12.2031 10.5938,-10.2969 C4,-6.79688 0,-0.90625 0,4.20313 C0,5.59375 0.296875,7 1,8.29688 C2.79688,11.5938 6.59375,13.2969 11.2031,13.2969 C14.5938,13.2969 18.2969,12.4063 21.9063,10.5 C28.5,7 32.5,1.09375 32.5,-4 C32.5,-5.40625 32.2031,-6.79688 31.5,-8.09375"/>
<path class="" transform="matrix(0.886677,0,0,0.886677,2633.33,115.654)" d="M31.5,-8.09375 C29.7031,-11.4063 25.9063,-13.2031 21.2969,-13.2031 C17.9063,-13.2031 14.2031,-12.2031 10.5938,-10.2969 C4,-6.79688 0,-0.90625 0,4.20313 C0,5.59375 0.296875,7 1,8.29688 C2.79688,11.5938 6.59375,13.2969 11.2031,13.2969 C14.5938,13.2969 18.2969,12.4063 21.9063,10.5 C28.5,7 32.5,1.09375 32.5,-4 C32.5,-5.40625 32.2031,-6.79688 31.5,-8.09375"/>
<path class="" transform="matrix(0.886677,0,0,0.886677,2571.93,193.239)" d="M31.5,-8.09375 C29.7031,-11.4063 25.9063,-13.2031 21.2969,-13.2031 C17.9063,-13.2031 14.2031,-12.2031 10.5938,-10.2969 C4,-6.79688 0,-0.90625 0,4.20313 C0,5.59375 0.296875,7 1,8.29688 C2.79688,11.5938 6.59375,13.2969 11.2031,13.2969 C14.5938,13.2969 18.2969,12.4063 21.9063,10.5 C28.5,7 32.5,1.09375 32.5,-4 C32.5,-5.40625 32.2031,-6.79688 31.5,-8.09375"/>
<path class="" transform="matrix(0.886677,0,0,0.886677,2434.89,126.738)" d="M31.5,-8.09375 C29.7031,-11.4063 25.9063,-13.2031 21.2969,-13.2031 C17.9063,-13.2031 14.2031,-12.2031 10.5938,-10.2969 C4,-6.79688 0,-0.90625 0,4.20313 C0,5.59375 0.296875,7 1,8.29688 C2.79688,11.5938 6.59375,13.2969 11.2031,13.2969 C14.5938,13.2969 18.2969,12.4063 21.9063,10.5 C28.5,7 32.5,1.09375 32.5,-4 C32.5,-5.40625 32.2031,-6.79688 31.5,-8.09375"/>
<path class="" transform="matrix(0.886677,0,0,0.886677,2434.89,104.571)" d="M31.5,-8.09375 C29.7031,-11.4063 25.9063,-13.2031 21.2969,-13.2031 C17.9063,-13.2031 14.2031,-12.2031 10.5938,-10.2969 C4,-6.79688 0,-0.90625 0,4.20313 C0,5.59375 0.296875,7 1,8.29688 C2.79688,11.5938 6.59375,13.2969 11.2031,13.2969 C14.5938,13.2969 18.2969,12.4063 21.9063,10.5 C28.5,7 32.5,1.09375 32.5,-4 C32.5,-5.40625 32.2031,-6.79688 31.5,-8.09375"/>
<path class="" transform="matrix(0.886677,0,0,0.886677,2434.89,82.4039)" d="M31.5,-8.09375 C29.7031,-11.4063 25.9063,-13.2031 21.2969,-13.2031 C17.9063,-13.2031 14.2031,-12.2031 10.5938,-10.2969 C4,-6.79688 0,-0.90625 0,4.20313 C0,5.59375 0.296875,7 1,8.29688 C2.79688,11.5938 6.59375,13.2969 11.2031,13.2969 C14.5938,13.2969 18.2969,12.4063 21.9063,10.5 C28.5,7 32.5,1.09375 32.5,-4 C32.5,-5.40625 32.2031,-6.79688 31.5,-8.09375"/>
<path class="" transform="matrix(0.886677,0,0,0.886677,2434.89,49.1535)" d="M31.5,-8.09375 C29.7031,-11.4063 25.9063,-13.2031 21.2969,-13.2031 C17.9063,-13.2031 14.2031,-12.2031 10.5938,-10.2969 C4,-6.79688 0,-0.90625 0,4.20313 C0,5.59375 0.296875,7 1,8.29688 C2.79688,11.5938 6.59375,13.2969 11.2031,13.2969 C14.5938,13.2969 18.2969,12.4063 21.9063,10.5 C28.5,7 32.5,1.09375 32.5,-4 C32.5,-5.40625 32.2031,-6.79688 31.5,-8.09375"/>
<path class="" transform="matrix(0.886677,0,0,0.886677,2336.2,204.322)" d="M31.5,-8.09375 C29.7031,-11.4063 25.9063,-13.2031 21.2969,-13.2031 C17.9063,-13.2031 14.2031,-12.2031 10.5938,-10.2969 C4,-6.79688 0,-0.90625 0,4.20313 C0,5.59375 0.296875,7 1,8.29688 C2.79688,11.5938 6.59375,13.2969 11.2031,13.2969 C14.5938,13.2969 18.2969,12.4063 21.9063,10.5 C28.5,7 32.5,1.09375 32.5,-4 C32.5,-5.40625 32.2031,-6.79688 31.5,-8.09375"/>
<path class="" transform="matrix(0.886677,0,0,0.886677,2336.2,182.155)" d="M31.5,-8.09375 C29.7031,-11.4063 25.9063,-13.2031 21.2969,-13.2031 C17.9063,-13.2031 14.2031,-12.2031 10.5938,-10.2969 C4,-6.79688 0,-0.90625 0,4.20313 C0,5.59375 0.296875,7 1,8.29688 C2.79688,11.5938 6.59375,13.2969 11.2031,13.2969 C14.5938,13.2969 18.2969,12.4063 21.9063,10.5 C28.5,7 32.5,1.09375 32.5,-4 C32.5,-5.40625 32.2031,-6.79688 31.5,-8.09375"/>
<path class="" transform="matrix(0.886677,0,0,0.886677,2336.2,159.988)" d="M31.5,-8.09375 C29.7031,-11.4063 25.9063,-13.2031 21.2969,-13.2031 C17.9063,-13.2031 14.2031,-12.2031 10.5938,-10.2969 C4,-6.79688 0,-0.90625 0,4.20313 C0,5.59375 0.296875,7 1,8.29688 C2.79688,11.5938 6.59375,13.2969 11.2031,13.2969 C14.5938,13.2969 18.2969,12.4063 21.9063,10.5 C28.5,7 32.5,1.09375 32.5,-4 C32.5,-5.40625 32.2031,-6.79688 31.5,-8.09375"/>
<path class="" transform="matrix(0.886677,0,0,0.886677,2336.2,126.738)" d="M31.5,-8.09375 C29.7031,-11.4063 25.9063,-13.2031 21.2969,-13.2031 C17.9063,-13.2031 14.2031,-12.2031 10.5938,-10.2969 C4,-6.79688 0,-0.90625 0,4.20313 C0,5.59375 0.296875,7 1,8.29688 C2.79688,11.5938 6.59375,13.2969 11.2031,13.2969 C14.5938,13.2969 18.2969,12.4063 21.9063,10.5 C28.5,7 32.5,1.09375 32.5,-4 C32.5,-5.40625 32.2031,-6.79688 31.5,-8.09375"/>
<path class="" transform="matrix(0.886677,0,0,0.886677,2001.77,148.905)" d="M31.5,-8.09375 C29.7031,-11.4063 25.9063,-13.2031 21.2969,-13.2031 C17.9063,-13.2031 14.2031,-12.2031 10.5938,-10.2969 C4,-6.79688 0,-0.90625 0,4.20313 C0,5.59375 0.296875,7 1,8.29688 C2.79688,11.5938 6.59375,13.2969 11.2031,13.2969 C14.5938,13.2969 18.2969,12.4063 21.9063,10.5 C28.5,7 32.5,1.09375 32.5,-4 C32.5,-5.40625 32.2031,-6.79688 31.5,-8.09375"/>
<path class="" transform="matrix(0.886677,0,0,0.886677,2001.77,115.654)" d="M31.5,-8.09375 C29.7031,-11.4063 25.9063,-13.2031 21.2969,-13.2031 C17.9063,-13.2031 14.2031,-12.2031 10.5938,-10.2969 C4,-6.79688 0,-0.90625 0,4.20313 C0,5.59375 0.296875,7 1,8.29688 C2.79688,11.5938 6.59375,13.2969 11.2031,13.2969 C14.5938,13.2969 18.2969,12.4063 21.9063,10.5 C28.5,7 32.5,1.09375 32.5,-4 C32.5,-5.40625 32.2031,-6.79688 31.5,-8.09375"/>
<path class="" transform="matrix(0.886677,0,0,0.886677,2001.77,93.4874)" d="M31.5,-8.09375 C29.7031,-11.4063 25.9063,-13.2031 21.2969,-13.2031 C17.9063,-13.2031 14.2031,-12.2031 10.5938,-10.2969 C4,-6.79688 0,-0.90625 0,4.20313 C0,5.59375 0.296875,7 1,8.29688 C2.79688,11.5938 6.59375,13.2969 11.2031,13.2969 C14.5938,13.2969 18.2969,12.4063 21.9063,10.5 C28.5,7 32.5,1.09375 32.5,-4 C32.5,-5.40625 32.2031,-6.79688 31.5,-8.09375"/>
<path class="" transform="matrix(0.886677,0,0,0.886677,2001.77,71.3205)" d="M31.5,-8.09375 C29.7031,-11.4063 25.9063,-13.2031 21.2969,-13.2031 C17.9063,-13.2031 14.2031,-12.2031 10.5938,-10.2969 C4,-6.79688 0,-0.90625 0,4.20313 C0,5.59375 0.296875,7 1,8.29688 C2.79688,11.5938 6.59375,13.2969 11.2031,13.2969 C14.5938,13.2969 18.2969,12.4063 21.9063,10.5 C28.5,7 32.5,1.09375 32.5,-4 C32.5,-5.40625 32.2031,-6.79688 31.5,-8.09375"/>
<path class="" transform="matrix(0.886677,0,0,0.886677,1903.08,226.489)" d="M31.5,-8.09375 C29.7031,-11.4063 25.9063,-13.2031 21.2969,-13.2031 C17.9063,-13.2031 14.2031,-12.2031 10.5938,-10.2969 C4,-6.79688 0,-0.90625 0,4.20313 C0,5.59375 0.296875,7 1,8.29688 C2.79688,11.5938 6.59375,13.2969 11.2031,13.2969 C14.5938,13.2969 18.2969,12.4063 21.9063,10.5 C28.5,7 32.5,1.09375 32.5,-4 C32.5,-5.40625 32.2031,-6.79688 31.5,-8.09375"/>
<path class="" transform="matrix(0.886677,0,0,0.886677,1903.08,193.239)" d="M31.5,-8.09375 C29.7031,-11.4063 25.9063,-13.2031 21.2969,-13.2031 C17.9063,-13.2031 14.2031,-12.2031 10.5938,-10.2969 C4,-6.79688 0,-0.90625 0,4.20313 C0,5.59375 0.296875,7 1,8.29688 C2.79688,11.5938 6.59375,13.2969 11.2031,13.2969 C14.5938,13.2969 18.2969,12.4063 21.9063,10.5 C28.5,7 32.5,1.09375 32.5,-4 C32.5,-5.40625 32.2031,-6.79688 31.5,-8.09375"/>
<path class="" transform="matrix(0.886677,0,0,0.886677,1903.08,171.072)" d="M31.5,-8.09375 C29.7031,-11.4063 25.9063,-13.2031 21.2969,-13.2031 C17.9063,-13.2031 14.2031,-12.2031 10.5938,-10.2969 C4,-6.79688 0,-0.90625 0,4.20313 C0,5.59375 0.296875,7 1,8.29688 C2.79688,11.5938 6.59375,13.2969 11.2031,13.2969 C14.5938,13.2969 18.2969,12.4063 21.9063,10.5 C28.5,7 32.5,1.09375 32.5,-4 C32.5,-5.40625 32.2031,-6.79688 31.5,-8.09375"/>
<path class="" transform="matrix(0.886677,0,0,0.886677,1903.08,148.905)" d="M31.5,-8.09375 C29.7031,-11.4063 25.9063,-13.2031 21.2969,-13.2031 C17.9063,-13.2031 14.2031,-12.2031 10.5938,-10.2969 C4,-6.79688 0,-0.90625 0,4.20313 C0,5.59375 0.296875,7 1,8.29688 C2.79688,11.5938 6.59375,13.2969 11.2031,13.2969 C14.5938,13.2969 18.2969,12.4063 21.9063,10.5 C28.5,7 32.5,1.09375 32.5,-4 C32.5,-5.40625 32.2031,-6.79688 31.5,-8.09375"/>
<path class="" transform="matrix(0.886677,0,0,0.886677,1566.72,137.821)" d="M31.5,-8.09375 C29.7031,-11.4063 25.9063,-13.2031 21.2969,-13.2031 C17.9063,-13.2031 14.2031,-12.2031 10.5938,-10.2969 C4,-6.79688 0,-0.90625 0,4.20313 C0,5.59375 0.296875,7 1,8.29688 C2.79688,11.5938 6.59375,13.2969 11.2031,13.2969 C14.5938,13.2969 18.2969,12.4063 21.9063,10.5 C28.5,7 32.5,1.09375 32.5,-4 C32.5,-5.40625 32.2031,-6.79688 31.5,-8.09375"/>
<path class="" transform="matrix(0.886677,0,0,0.886677,1566.72,115.654)" d="M31.5,-8.09375 C29.7031,-11.4063 25.9063,-13.2031 21.2969,-13.2031 C17.9063,-13.2031 14.2031,-12.2031 10.5938,-10.2969 C4,-6.79688 0,-0.90625 0,4.20313 C0,5.59375 0.296875,7 1,8.29688 C2.79688,11.5938 6.59375,13.2969 11.2031,13.2969 C14.5938,13.2969 18.2969,12.4063 21.9063,10.5 C28.5,7 32.5,1.09375 32.5,-4 C32.5,-5.40625 32.2031,-6.79688 31.5,-8.09375"/>
<path class="" transform="matrix(0.886677,0,0,0.886677,1566.72,82.4039)" d="M31.5,-8.09375 C29.7031,-11.4063 25.9063,-13.2031 21.2969,-13.2031 C17.9063,-13.2031 14.2031,-12.2031 10.5938,-10.2969 C4,-6.79688 0,-0.90625 0,4.20313 C0,5.59375 0.296875,7 1,8.29688 C2.79688,11.5938 6.59375,13.2969 11.2031,13.2969 C14.5938,13.2969 18.2969,12.4063 21.9063,10.5 C28.5,7 32.5,1.09375 32.5,-4 C32.5,-5.40625 32.2031,-6.79688 31.5,-8.09375"/>
<path class="" transform="matrix(0.886677,0,0,0.886677,1566.72,60.237)" d="M31.5,-8.09375 C29.7031,-11.4063 25.9063,-13.2031 21.2969,-13.2031 C17.9063,-13.2031 14.2031,-12.2031 10.5938,-10.2969 C4,-6.79688 0,-0.90625 0,4.20313 C0,5.59375 0.296875,7 1,8.29688 C2.79688,11.5938 6.59375,13.2969 11.2031,13.2969 C14.5938,13.2969 18.2969,12.4063 21.9063,10.5 C28.5,7 32.5,1.09375 32.5,-4 C32.5,-5.40625 32.2031,-6.79688 31.5,-8.09375"/>
<path class="" transform="matrix(0.886677,0,0,0.886677,1466.09,215.406)" d="M31.5,-8.09375 C29.7031,-11.4063 25.9063,-13.2031 21.2969,-13.2031 C17.9063,-13.2031 14.2031,-12.2031 10.5938,-10.2969 C4,-6.79688 0,-0.90625 0,4.20313 C0,5.59375 0.296875,7 1,8.29688 C2.79688,11.5938 6.59375,13.2969 11.2031,13.2969 C14.5938,13.2969 18.2969,12.4063 21.9063,10.5 C28.5,7 32.5,1.09375 32.5,-4 C32.5,-5.40625 32.2031,-6.79688 31.5,-8.09375"/>
<path class="" transform="matrix(0.886677,0,0,0.886677,1466.09,193.239)" d="M31.5,-8.09375 C29.7031,-11.4063 25.9063,-13.2031 21.2969,-13.2031 C17.9063,-13.2031 14.2031,-12.2031 10.5938,-10.2969 C4,-6.79688 0,-0.90625 0,4.20313 C0,5.59375 0.296875,7 1,8.29688 C2.79688,11.5938 6.59375,13.2969 11.2031,13.2969 C14.5938,13.2969 18.2969,12.4063 21.9063,10.5 C28.5,7 32.5,1.09375 32.5,-4 C32.5,-5.40625 32.2031,-6.79688 31.5,-8.09375"/>
<path class="" transform="matrix(0.886677,0,0,0.886677,1466.09,159.988)" d="M31.5,-8.09375 C29.7031,-11.4063 25.9063,-13.2031 21.2969,-13.2031 C17.9063,-13.2031 14.2031,-12.2031 10.5938,-10.2969 C4,-6.79688 0,-0.90625 0,4.20313 C0,5.59375 0.296875,7 1,8.29688 C2.79688,11.5938 6.59375,13.2969 11.2031,13.2969 C14.5938,13.2969 18.2969,12.4063 21.9063,10.5 C28.5,7 32.5,1.09375 32.5,-4 C32.5,-5.40625 32.2031,-6.79688 31.5,-8.09375"/>
<path class="" transform="matrix(0.886677,0,0,0.886677,1466.09,137.821)" d="M31.5,-8.09375 C29.7031,-11.4063 25.9063,-13.2031 21.2969,-13.2031 C17.9063,-13.2031 14.2031,-12.2031 10.5938,-10.2969 C4,-6.79688 0,-0.90625 0,4.20313 C0,5.59375 0.296875,7 1,8.29688 C2.79688,11.5938 6.59375,13.2969 11.2031,13.2969 C14.5938,13.2969 18.2969,12.4063 21.9063,10.5 C28.5,7 32.5,1.09375 32.5,-4 C32.5,-5.40625 32.2031,-6.79688 31.5,-8.09375"/>
<path class="" transform="matrix(0.886677,0,0,0.886677,634.931,38.0701)" d="M31.5,-8.09375 C29.7031,-11.4063 25.9063,-13.2031 21.2969,-13.2031 C17.9063,-13.2031 14.2031,-12.2031 10.5938,-10.2969 C4,-6.79688 0,-0.90625 0,4.20313 C0,5.59375 0.296875,7 1,8.29688 C2.79688,11.5938 6.59375,13.2969 11.2031,13.2969 C14.5938,13.2969 18.2969,12.4063 21.9063,10.5 C28.5,7 32.5,1.09375 32.5,-4 C32.5,-5.40625 32.2031,-6.79688 31.5,-8.09375"/>
<path class="" transform="matrix(0.886677,0,0,0.886677,536.663,193.239)" d="M31.5,-8.09375 C29.7031,-11.4063 25.9063,-13.2031 21.2969,-13.2031 C17.9063,-13.2031 14.2031,-12.2031 10.5938,-10.2969 C4,-6.79688 0,-0.90625 0,4.20313 C0,5.59375 0.296875,7 1,8.29688 C2.79688,11.5938 6.59375,13.2969 11.2031,13.2969 C14.5938,13.2969 18.2969,12.4063 21.9063,10.5 C28.5,7 32.5,1.09375 32.5,-4 C32.5,-5.40625 32.2031,-6.79688 31.5,-8.09375"/>
<path class="" transform="matrix(0.886677,0,0,0.886677,242.818,71.3205)" d="M31.5,-8.09375 C29.7031,-11.4063 25.9063,-13.2031 21.2969,-13.2031 C17.9063,-13.2031 14.2031,-12.2031 10.5938,-10.2969 C4,-6.79688 0,-0.90625 0,4.20313 C0,5.59375 0.296875,7 1,8.29688 C2.79688,11.5938 6.59375,13.2969 11.2031,13.2969 C14.5938,13.2969 18.2969,12.4063 21.9063,10.5 C28.5,7 32.5,1.09375 32.5,-4 C32.5,-5.40625 32.2031,-6.79688 31.5,-8.09375"/>
<path class="" transform="matrix(0.886677,0,0,0.886677,144.55,204.322)" d="M31.5,-8.09375 C29.7031,-11.4063 25.9063,-13.2031 21.2969,-13.2031 C17.9063,-13.2031 14.2031,-12.2031 10.5938,-10.2969 C4,-6.79688 0,-0.90625 0,4.20313 C0,5.59375 0.296875,7 1,8.29688 C2.79688,11.5938 6.59375,13.2969 11.2031,13.2969 C14.5938,13.2969 18.2969,12.4063 21.9063,10.5 C28.5,7 32.5,1.09375 32.5,-4 C32.5,-5.40625 32.2031,-6.79688 31.5,-8.09375"/>
<path class="" transform="matrix(0.886677,0,0,0.886677,24.6412,378.047)" d="M25.4063,-25.0938 C17.7969,-25.0938 11.7031,-20.7031 11.5938,-20.7031 C5.79688,-16.4063 3.5,-11.2969 2.59375,-7.79688 C2.09375,-6 1.90625,-4.20313 1.90625,-2.5 C1.90625,-0.09375 2.29688,2.09375 3.20313,4 C4.40625,6.70313 6.70313,8.59375 9.70313,9.59375 C10.9063,10 12.2031,10.2031 13.5,10.2031 C15.7031,10.2031 18,9.59375 19.9063,8.5 C23,6.79688 24.9063,3.20313 24.9063,-0.703125 C24.9063,-4.20313 23.0938,-7.40625 20.0938,-9.29688 C18,-10.7031 16,-11.0938 14.2969,-11.0938 C13.0938,-11.0938 12,-10.9063 11.0938,-10.5938 C10.0938,-10.2031 8.40625,-9.20313 7.59375,-8.5 C7.90625,-10.4063 9.09375,-13.2969 10.2031,-14.9063 C11.2969,-16.5 13.5,-18.5 15.2031,-19.4063 C17.7031,-20.7969 20.9063,-21.4063 24.4063,-21.4063 C34.6094,-21.4063 39.6094,-13.2031 39.6094,3.59375 C39.6094,12.9063 36.1094,21.7969 33.1094,27.7031 C29.7969,34.2969 25.4063,40.6094 21.5,44.1094 C11.0938,53.6094 1.29688,58.1094 1.20313,58.1094 C1.20313,58.1094 -0.296875,59 0.09375,60.5 C0.40625,61.5 1.29688,61.7031 1.90625,61.7031 C2,61.7031 2.29688,61.6094 2.40625,61.6094 C2.5,61.6094 13.9063,56.9063 23,49.7969 C28.1094,46.1094 32.7031,42.1094 36.7031,37.7969 C40.2969,33.9063 43.4063,29.7031 45.9063,25.5 C50.2969,18 52.7969,10.2031 52.7969,3.5 C52.7969,-4.79688 50.6094,-11.7031 46.5,-16.5938 C41.7969,-22.2031 34.7031,-25.0938 25.4063,-25.0938 M56.7969,-12.4063 C56.7969,-9.59375 59,-7.40625 61.6094,-7.40625 C64.2031,-7.40625 66.4063,-9.59375 66.4063,-12.4063 C66.4063,-15.2031 64.2031,-17.5 61.6094,-17.5 C59,-17.5 56.7969,-15.2031 56.7969,-12.4063 M56.7969,12.2969 C56.7969,15.0938 59,17.4063 61.6094,17.4063 C64.2031,17.4063 66.4063,15.0938 66.4063,12.2969 C66.4063,9.5 64.2031,7.20313 61.6094,7.20313 C59,7.20313 56.7969,9.5 56.7969,12.2969"/>
<path class="" transform="matrix(0.886677,0,0,0.886677,24.6412,148.905)" d="M63.3594,-5.92188 C62.125,-11.3438 59.4844,-15.1719 58.7031,-16.2031 C55.5156,-20.4844 51.5,-23.3281 46.8125,-24.6875 C43.7031,-25.5625 40.7031,-25.6875 38.2813,-25.5 C37.2344,-31.5156 36.2344,-37.3906 35.3281,-42.8438 C40.7813,-49.0156 44.4063,-54.8125 46.6875,-59.1094 C50.1563,-65.6875 51.2969,-70.2656 51.3594,-70.4688 C53.0781,-75.6875 53.4375,-83.3906 52.3281,-91.5938 C51.3281,-99.1406 49.2344,-105.859 46.875,-109.109 C45.8594,-110.531 44.7969,-111.266 43.7656,-111.266 C42.5469,-111.266 40.0313,-110.031 37.1406,-107.25 C34.8438,-105.063 31.5781,-101.172 29.0156,-95.1563 C26.0156,-88.0938 25.7969,-78.6094 26.1563,-71.8906 C26.5313,-64.6094 27.6406,-58.9219 27.6563,-58.875 C27.6719,-58.7813 27.9375,-57.2813 28.375,-54.7188 C28.1563,-54.4844 27.9063,-54.2656 27.6563,-54.0156 C26.625,-53.0156 25.4375,-51.8906 24.0469,-50.5 C23.1875,-49.6406 22.2344,-48.7344 21.2344,-47.7656 C12.7969,-39.625 0,-27.2969 0,-8.14063 C0,-3.4375 0.90625,0.984375 2.6875,5 C4.26563,8.59375 6.5625,11.875 9.5,14.75 C17.2344,22.3125 27.8281,25.5156 34.875,25.3594 C37.8281,25.2813 40.4688,25.0469 42.8594,24.5938 C44.6875,34.2031 45.8281,41.2344 45.8594,46.5781 C45.9063,53.0938 44.25,57.0781 40.3594,59.8438 C37.9219,61.5781 35.1094,62.5313 32.0156,62.6719 C29.4219,62.7969 27.1563,62.3281 25.7344,61.9219 L25.7188,61.9219 C25.7188,61.9219 25.4375,61.8281 25.4219,61.6406 C25.4063,61.4531 25.7656,61.4063 25.7656,61.4063 L25.7969,61.4063 C27.7188,60.9688 31.2813,59.7344 33.6406,56.4375 C35.4375,53.9063 36.3125,49.2813 34.4688,45.3438 C33.3594,42.9531 30.8594,40 25.2344,39.5469 C22.7344,39.3438 20.4688,39.8594 18.4688,41.0625 C16.6563,42.1406 15.1563,43.7813 14.1094,45.7813 C11.6563,50.4844 12.1094,56.2188 15.2344,60.0625 C18.2031,63.6875 22.8125,66 28.25,66.5781 C29.1094,66.6719 29.9531,66.7031 30.7969,66.7031 C35.2344,66.7031 39.625,65.5 43.2031,63.2969 C46.8594,60.7188 48.9844,56.7344 49.6563,51.1094 C50.2188,46.4688 49.8281,40.5469 48.4375,32.4688 C48.0781,30.375 47.5313,27.3438 46.875,23.5938 C52.625,21.6719 56.7813,18.0938 60.5469,12.2344 C63.8438,6.5 64.7813,0.390625 63.3594,-5.92188 M29.1406,20.2969 C24.5,19.0781 20.0625,16.5781 16.3125,13.0625 C15,11.8438 13.125,9.67188 11.6563,6.28125 C10.2969,3.10938 9.625,-0.328125 9.6875,-3.90625 C9.75,-8.60938 11.0625,-13.4375 13.5625,-18.2188 C16.4844,-23.7969 21.0469,-29.3281 27.1094,-34.6563 C28.5625,-35.9375 29.9375,-37.2188 31.2188,-38.5 C31.9844,-34.2344 32.8125,-29.5469 33.6875,-24.6719 C29.8438,-23.4063 25.0938,-20.25 21.9844,-14.5938 C18.4375,-8.03125 18.5781,-2.5 19.3125,0.984375 C20.25,5.4375 22.7813,9.20313 26.2344,11.2969 C27.1719,11.8594 31.2969,13.9844 33.1406,13.4063 C33.5156,13.2969 33.7813,13.0625 33.9219,12.7344 C34.4375,11.5625 33.4063,10.9219 31.8594,9.96875 C31.25,9.59375 30.5781,9.17188 29.8594,8.64063 C26.5313,6.15625 25.0781,1.70313 26.1563,-2.6875 C26.7344,-5.07813 28.0156,-7.25 29.8594,-8.95313 C31.5156,-10.5 33.5625,-11.5938 35.9375,-12.2344 C37.9844,-0.984375 40.0469,10.1719 41.6875,18.5313 C41.8125,19.2188 41.9531,19.8906 42.0781,20.5625 C37.7031,21.5 33.3594,21.4063 29.1406,20.2969 M40.4688,-12.9063 C50.8125,-13.375 55.0781,-5.9375 55.9688,-1.10938 C56.4375,1.4375 56.4375,5.875 54.8906,10.0938 C53.7188,13.2656 51.2656,17.3438 46.125,19.4063 C46.0625,18.9844 45.9844,18.5469 45.9063,18.125 C44.3594,9.34375 42.4219,-1.65625 40.4688,-12.9063 M33.1406,-83.8594 C34.9219,-89.5938 37.6563,-92.8438 39.6563,-94.5781 C41.4063,-96.0938 43.0469,-96.8125 43.9688,-96.8125 C44.1094,-96.8125 44.2344,-96.7813 44.3281,-96.75 C44.7969,-96.6094 45.3281,-96.0469 45.7969,-95.1719 C48.1094,-90.8906 47.3594,-84.1719 46.0156,-79.7344 C44.3906,-74.3281 41.4688,-68.7188 32.6719,-59.1094 C32.5,-60.2188 32.3438,-61.2656 32.1875,-62.25 C30.9375,-70.5313 31.2656,-77.8125 33.1406,-83.8594"/>
<path class="" transform="matrix(0.886677,0,0,0.886677,2336.2,400.214)" d="M0,-11.7969 L0,-1 C0,0.40625 0,0.40625 1.40625,0.40625 L31.1094,0.40625 C32.5,0.40625 32.5,0.40625 32.5,-1 L32.5,-11.7969 C32.5,-13.2031 32.5,-13.2031 31.1094,-13.2031 L1.40625,-13.2031 C0,-13.2031 0,-13.2031 0,-11.7969"/>
<path class="" transform="matrix(0.886677,0,0,0.886677,1903.08,400.214)" d="M0,-11.7969 L0,-1 C0,0.40625 0,0.40625 1.40625,0.40625 L31.1094,0.40625 C32.5,0.40625 32.5,0.40625 32.5,-1 L32.5,-11.7969 C32.5,-13.2031 32.5,-13.2031 31.1094,-13.2031 L1.40625,-13.2031 C0,-13.2031 0,-13.2031 0,-11.7969"/>
<path class="" transform="matrix(0.886677,0,0,0.886677,1466.09,400.214)" d="M0,-11.7969 L0,-1 C0,0.40625 0,0.40625 1.40625,0.40625 L31.1094,0.40625 C32.5,0.40625 32.5,0.40625 32.5,-1 L32.5,-11.7969 C32.5,-13.2031 32.5,-13.2031 31.1094,-13.2031 L1.40625,-13.2031 C0,-13.2031 0,-13.2031 0,-11.7969"/>
<path class="" transform="matrix(0.886677,0,0,0.886677,921.018,378.047)" d="M31.1094,-0.5 L1.40625,-0.5 C0.59375,-0.5 0,0.09375 0,0.90625 L0,11.7031 C0,12.5 0.59375,13.0938 1.40625,13.0938 L31.1094,13.0938 C31.9063,13.0938 32.5,12.5 32.5,11.7031 L32.5,0.90625 C32.5,0.09375 31.9063,-0.5 31.1094,-0.5"/>
<path class="" transform="matrix(0.886677,0,0,0.886677,733.199,400.214)" d="M0,-11.7969 L0,-1 C0,0.40625 0,0.40625 1.40625,0.40625 L31.1094,0.40625 C32.5,0.40625 32.5,0.40625 32.5,-1 L32.5,-11.7969 C32.5,-13.2031 32.5,-13.2031 31.1094,-13.2031 L1.40625,-13.2031 C0,-13.2031 0,-13.2031 0,-11.7969"/>
<path class="" transform="matrix(0.886677,0,0,0.886677,634.931,400.214)" d="M23.2031,16.9063 L23,16.5938 C22.9063,16.5 22.7031,16.2969 22.4063,15.9063 L10.9063,1.70313 C10.5938,1.40625 10.7031,0.59375 10.9063,0.203125 L21.0938,-15.2031 C21.2031,-15.4063 21.2969,-15.7031 21.2969,-15.9063 L21.2969,-16.7969 C21.2969,-17.0938 21.2031,-17.4063 21,-17.5938 L4.79688,-39.5 C4.79688,-39.5 4,-40.7031 3,-39.7969 C2,-39 2.79688,-37.7031 2.79688,-37.7031 L10.4063,-27.2969 C10.7969,-26.7031 10.7969,-25.5 10.4063,-24.9063 L0.296875,-9.5 C0.203125,-9.29688 0.09375,-8.90625 0.09375,-8.70313 L0.09375,-7.79688 C0.09375,-7.5 0.203125,-7.20313 0.40625,-7 L11.5938,6.90625 C11.2031,6.79688 10.2969,6.59375 9.09375,6.59375 C7.40625,6.59375 5.20313,7 3.40625,8.59375 C1.20313,10.5938 0,13.4063 0,15.9063 C0,17.2969 0.296875,18.7031 1.09375,19.7969 C3.20313,23 10.7031,32.5 10.7031,32.5 C10.7031,32.5 11.5938,33.6094 12.5,32.9063 C13.4063,32.2031 13.2031,31.2969 12.9063,30.7969 C12.5938,30.2969 9.40625,24.5 9.40625,24.5 C9.40625,24.5 8.70313,23.0938 8.70313,21.2969 C8.70313,20 9.09375,18.4063 10.4063,17.0938 C11.5938,15.9063 13,15.5 14.2969,15.5 C15.5938,15.5 16.7031,15.9063 17.5,16.4063 L21.4063,18.9063 C21.4063,18.9063 22.5938,19.5 23.2031,18.5938 C23.7031,17.7969 23.5,17.4063 23.2031,16.9063"/>
<path class="" transform="matrix(0.886677,0,0,0.886677,341.086,400.214)" d="M0,-11.7969 L0,-1 C0,0.40625 0,0.40625 1.40625,0.40625 L31.1094,0.40625 C32.5,0.40625 32.5,0.40625 32.5,-1 L32.5,-11.7969 C32.5,-13.2031 32.5,-13.2031 31.1094,-13.2031 L1.40625,-13.2031 C0,-13.2031 0,-13.2031 0,-11.7969"/>
<path class="" transform="matrix(0.886677,0,0,0.886677,242.818,400.214)" d="M23.2031,16.9063 L23,16.5938 C22.9063,16.5 22.7031,16.2969 22.4063,15.9063 L10.9063,1.70313 C10.5938,1.40625 10.7031,0.59375 10.9063,0.203125 L21.0938,-15.2031 C21.2031,-15.4063 21.2969,-15.7031 21.2969,-15.9063 L21.2969,-16.7969 C21.2969,-17.0938 21.2031,-17.4063 21,-17.5938 L4.79688,-39.5 C4.79688,-39.5 4,-40.7031 3,-39.7969 C2,-39 2.79688,-37.7031 2.79688,-37.7031 L10.4063,-27.2969 C10.7969,-26.7031 10.7969,-25.5 10.4063,-24.9063 L0.296875,-9.5 C0.203125,-9.29688 0.09375,-8.90625 0.09375,-8.70313 L0.09375,-7.79688 C0.09375,-7.5 0.203125,-7.20313 0.40625,-7 L11.5938,6.90625 C11.2031,6.79688 10.2969,6.59375 9.09375,6.59375 C7.40625,6.59375 5.20313,7 3.40625,8.59375 C1.20313,10.5938 0,13.4063 0,15.9063 C0,17.2969 0.296875,18.7031 1.09375,19.7969 C3.20313,23 10.7031,32.5 10.7031,32.5 C10.7031,32.5 11.5938,33.6094 12.5,32.9063 C13.4063,32.2031 13.2031,31.2969 12.9063,30.7969 C12.5938,30.2969 9.40625,24.5 9.40625,24.5 C9.40625,24.5 8.70313,23.0938 8.70313,21.2969 C8.70313,20 9.09375,18.4063 10.4063,17.0938 C11.5938,15.9063 13,15.5 14.2969,15.5 C15.5938,15.5 16.7031,15.9063 17.5,16.4063 L21.4063,18.9063 C21.4063,18.9063 22.5938,19.5 23.2031,18.5938 C23.7031,17.7969 23.5,17.4063 23.2031,16.9063"/>
<path class="" transform="matrix(0.886677,0,0,0.886677,2138.82,126.738)" d="M0,-11.7969 L0,-1 C0,0.40625 0,0.40625 1.40625,0.40625 L31.1094,0.40625 C32.5,0.40625 32.5,0.40625 32.5,-1 L32.5,-11.7969 C32.5,-13.2031 32.5,-13.2031 31.1094,-13.2031 L1.40625,-13.2031 C0,-13.2031 0,-13.2031 0,-11.7969"/>
<path class="" transform="matrix(0.886677,0,0,0.886677,1705.7,126.738)" d="M0,-11.7969 L0,-1 C0,0.40625 0,0.40625 1.40625,0.40625 L31.1094,0.40625 C32.5,0.40625 32.5,0.40625 32.5,-1 L32.5,-11.7969 C32.5,-13.2031 32.5,-13.2031 31.1094,-13.2031 L1.40625,-13.2031 C0,-13.2031 0,-13.2031 0,-11.7969"/>
<path class="" transform="matrix(0.886677,0,0,0.886677,1264.83,126.738)" d="M0,-11.7969 L0,-1 C0,0.40625 0,0.40625 1.40625,0.40625 L31.1094,0.40625 C32.5,0.40625 32.5,0.40625 32.5,-1 L32.5,-11.7969 C32.5,-13.2031 32.5,-13.2031 31.1094,-13.2031 L1.40625,-13.2031 C0,-13.2031 0,-13.2031 0,-11.7969"/>
<path class="" transform="matrix(0.886677,0,0,0.886677,921.018,104.571)" d="M31.1094,-0.5 L1.40625,-0.5 C0.59375,-0.5 0,0.09375 0,0.90625 L0,11.7031 C0,12.5 0.59375,13.0938 1.40625,13.0938 L31.1094,13.0938 C31.9063,13.0938 32.5,12.5 32.5,11.7031 L32.5,0.90625 C32.5,0.09375 31.9063,-0.5 31.1094,-0.5"/>
<path class="" transform="matrix(0.886677,0,0,0.886677,733.199,126.738)" d="M0,-11.7969 L0,-1 C0,0.40625 0,0.40625 1.40625,0.40625 L31.1094,0.40625 C32.5,0.40625 32.5,0.40625 32.5,-1 L32.5,-11.7969 C32.5,-13.2031 32.5,-13.2031 31.1094,-13.2031 L1.40625,-13.2031 C0,-13.2031 0,-13.2031 0,-11.7969"/>
<path class="" transform="matrix(0.886677,0,0,0.886677,341.086,126.738)" d="M0,-11.7969 L0,-1 C0,0.40625 0,0.40625 1.40625,0.40625 L31.1094,0.40625 C32.5,0.40625 32.5,0.40625 32.5,-1 L32.5,-11.7969 C32.5,-13.2031 32.5,-13.2031 31.1094,-13.2031 L1.40625,-13.2031 C0,-13.2031 0,-13.2031 0,-11.7969"/>
<path class="" transform="matrix(0.886677,0,0,0.886677,645.886,19.3598)" d="M1.14063,-1.14063 C2.67188,0.390625 5.14063,0.390625 6.65625,-1.14063 C8.1875,-2.65625 8.1875,-5.125 6.65625,-6.65625 C5.14063,-8.17188 2.67188,-8.17188 1.14063,-6.65625 C-0.375,-5.125 -0.375,-2.65625 1.14063,-1.14063"/>
<path class="" transform="matrix(0.886677,0,0,0.886677,547.619,211.949)" d="M1.14063,6.67188 C2.67188,8.1875 5.14063,8.1875 6.65625,6.67188 C8.1875,5.14063 8.1875,2.67188 6.65625,1.15625 C5.14063,-0.375 2.67188,-0.375 1.14063,1.15625 C-0.375,2.67188 -0.375,5.14063 1.14063,6.67188"/>
<path class="" transform="matrix(0.886677,0,0,0.886677,253.774,52.6102)" d="M1.14063,-1.14063 C2.67188,0.390625 5.14063,0.390625 6.65625,-1.14063 C8.1875,-2.65625 8.1875,-5.125 6.65625,-6.65625 C5.14063,-8.17188 2.67188,-8.17188 1.14063,-6.65625 C-0.375,-5.125 -0.375,-2.65625 1.14063,-1.14063"/>
<path class="" transform="matrix(0.886677,0,0,0.886677,155.506,223.032)" d="M1.14063,6.67188 C2.67188,8.1875 5.14063,8.1875 6.65625,6.67188 C8.1875,5.14063 8.1875,2.67188 6.65625,1.15625 C5.14063,-0.375 2.67188,-0.375 1.14063,1.15625 C-0.375,2.67188 -0.375,5.14063 1.14063,6.67188"/>
<path class="" d="M2582.04,233.261 L2582.15,232.964 C2584.74,223.37 2585.52,221.698 2586.9,220.62 C2587.58,220.089 2588.21,219.933 2588.66,219.933 C2588.85,219.933 2589.05,219.933 2589.19,219.98 C2589.63,220.089 2589.98,220.386 2590.13,220.714 C2590.18,220.917 2590.23,221.058 2590.23,221.261 C2590.23,221.698 2590.02,222.136 2589.68,222.339 C2588.76,223.12 2588.21,224.198 2588.21,225.48 C2588.21,225.917 2588.27,226.402 2588.41,226.839 C2588.66,227.73 2589.4,228.511 2590.37,228.948 C2590.76,229.152 2591.3,229.292 2591.99,229.292 C2592.68,229.292 2593.41,229.152 2594.29,228.652 C2595.41,228.073 2596.15,227.136 2596.49,225.964 C2596.65,225.48 2596.69,224.933 2596.69,224.402 C2596.69,223.214 2596.35,221.948 2595.76,220.87 C2594.98,219.495 2592.82,217.823 2589.83,217.339 C2589.35,217.245 2588.85,217.198 2588.27,217.198 C2586.01,217.198 2583.02,217.98 2579.99,220.777 C2577.58,222.98 2575.48,226.995 2573.41,233.12 L2573.32,233.261 L2566.32,233.261 C2565.77,233.261 2565.33,233.698 2565.33,234.245 L2565.33,236.245 C2565.33,236.792 2565.77,237.23 2566.32,237.23 L2572.1,237.23 L2572.05,237.527 C2571.12,241.198 2570.38,244.48 2569.69,247.573 C2568.91,251.042 2568.13,254.573 2567.05,258.886 L2566.76,260.011 C2564.8,267.652 2564.16,270.402 2561.9,271.87 C2561.46,272.167 2560.88,272.37 2560.33,272.37 C2559.85,272.37 2559.41,272.214 2559.07,271.917 C2558.82,271.73 2558.52,271.339 2558.57,270.839 C2558.62,270.448 2558.91,270.152 2559.35,269.964 C2561.16,269.23 2561.66,267.464 2561.66,265.995 C2561.66,264.667 2560.83,262.277 2557.44,262.277 C2554.94,262.277 2552.55,264.62 2552.55,267.12 C2552.55,272.027 2555.93,274.714 2560.19,274.714 C2563.18,274.714 2565.33,273.777 2567.69,271.433 C2571.76,267.37 2576.16,253.402 2578.46,245.464 C2579.3,242.527 2580.18,239.542 2580.82,237.386 L2580.87,237.23 L2595.32,237.23 L2595.27,237.527 C2594.33,241.245 2593.6,244.48 2592.91,247.573 C2592.13,251.042 2591.35,254.573 2590.27,258.886 L2589.98,260.011 C2588.02,267.652 2587.43,270.402 2585.18,271.87 C2584.74,272.167 2584.15,272.37 2583.55,272.37 C2583.07,272.37 2582.63,272.214 2582.29,271.917 C2582.04,271.73 2581.69,271.339 2581.8,270.839 C2581.85,270.448 2582.15,270.152 2582.58,269.964 C2584.4,269.23 2584.93,267.464 2584.93,265.995 C2584.93,264.667 2584.05,262.277 2580.66,262.277 C2578.18,262.277 2575.82,264.667 2575.82,267.167 C2575.82,272.073 2579.15,274.714 2583.41,274.714 C2586.4,274.714 2588.55,273.777 2590.91,271.433 C2594.98,267.323 2599.43,253.402 2601.74,245.464 C2602.57,242.527 2603.46,239.542 2604.08,237.386 L2604.15,237.23 L2610.85,237.23 C2611.4,237.23 2611.79,236.792 2611.79,236.245 L2611.79,234.245 C2611.79,233.698 2611.4,233.261 2610.85,233.261 L2605.27,233.261 L2605.37,232.964 C2607.96,223.37 2608.74,221.698 2610.12,220.62 C2610.8,220.089 2611.44,219.933 2611.88,219.933 C2612.07,219.933 2612.27,219.933 2612.41,219.98 C2612.87,220.089 2613.21,220.386 2613.35,220.714 C2613.4,220.917 2613.44,221.058 2613.44,221.261 C2613.44,221.698 2613.26,222.136 2612.91,222.339 C2611.98,223.12 2611.44,224.198 2611.44,225.48 C2611.44,225.917 2611.49,226.402 2611.63,226.839 C2611.88,227.73 2612.62,228.511 2613.6,228.948 C2613.99,229.152 2614.52,229.292 2615.21,229.292 C2615.9,229.292 2616.63,229.152 2617.52,228.652 C2618.65,228.073 2619.38,227.136 2619.73,225.964 C2619.87,225.48 2619.91,224.933 2619.91,224.402 C2619.91,223.214 2619.57,221.948 2618.99,220.87 C2618.19,219.495 2616.04,217.823 2613.05,217.339 C2612.57,217.245 2612.07,217.198 2611.49,217.198 C2609.24,217.198 2606.24,217.98 2603.21,220.777 C2600.8,222.98 2598.69,226.995 2596.65,233.12 L2596.54,233.261 L2582.04,233.261 "/>
<path class="" d="M1274.94,203.458 L1275.04,203.161 C1277.64,193.567 1278.42,191.895 1279.79,190.817 C1280.48,190.286 1281.11,190.13 1281.56,190.13 C1281.75,190.13 1281.95,190.13 1282.09,190.176 C1282.53,190.286 1282.87,190.583 1283.03,190.911 C1283.08,191.114 1283.12,191.255 1283.12,191.458 C1283.12,191.895 1282.92,192.333 1282.58,192.536 C1281.65,193.317 1281.11,194.395 1281.11,195.676 C1281.11,196.114 1281.17,196.598 1281.31,197.036 C1281.56,197.926 1282.29,198.708 1283.26,199.145 C1283.65,199.348 1284.2,199.489 1284.89,199.489 C1285.58,199.489 1286.31,199.348 1287.19,198.848 C1288.31,198.27 1289.04,197.333 1289.39,196.161 C1289.54,195.676 1289.59,195.13 1289.59,194.598 C1289.59,193.411 1289.25,192.145 1288.65,191.067 C1287.87,189.692 1285.72,188.02 1282.73,187.536 C1282.25,187.442 1281.75,187.395 1281.17,187.395 C1278.9,187.395 1275.92,188.176 1272.89,190.973 C1270.48,193.176 1268.37,197.192 1266.31,203.317 L1266.22,203.458 L1259.22,203.458 C1258.67,203.458 1258.23,203.895 1258.23,204.442 L1258.23,206.442 C1258.23,206.989 1258.67,207.426 1259.22,207.426 L1265,207.426 L1264.95,207.723 C1264.01,211.395 1263.28,214.676 1262.59,217.77 C1261.81,221.239 1261.03,224.77 1259.95,229.083 L1259.65,230.208 C1257.7,237.848 1257.06,240.598 1254.79,242.067 C1254.36,242.364 1253.78,242.567 1253.23,242.567 C1252.75,242.567 1252.31,242.411 1251.97,242.114 C1251.72,241.926 1251.42,241.536 1251.47,241.036 C1251.51,240.645 1251.81,240.348 1252.25,240.161 C1254.06,239.426 1254.56,237.661 1254.56,236.192 C1254.56,234.864 1253.73,232.473 1250.34,232.473 C1247.84,232.473 1245.45,234.817 1245.45,237.317 C1245.45,242.223 1248.83,244.911 1253.09,244.911 C1256.08,244.911 1258.23,243.973 1260.59,241.63 C1264.65,237.567 1269.06,223.598 1271.36,215.661 C1272.2,212.723 1273.08,209.739 1273.72,207.583 L1273.76,207.426 L1288.22,207.426 L1288.17,207.723 C1287.23,211.442 1286.5,214.676 1285.81,217.77 C1285.03,221.239 1284.25,224.77 1283.17,229.083 L1282.87,230.208 C1280.92,237.848 1280.33,240.598 1278.08,242.067 C1277.64,242.364 1277.04,242.567 1276.45,242.567 C1275.97,242.567 1275.53,242.411 1275.19,242.114 C1274.94,241.926 1274.59,241.536 1274.7,241.036 C1274.75,240.645 1275.04,240.348 1275.48,240.161 C1277.29,239.426 1277.83,237.661 1277.83,236.192 C1277.83,234.864 1276.95,232.473 1273.56,232.473 C1271.08,232.473 1268.72,234.864 1268.72,237.364 C1268.72,242.27 1272.04,244.911 1276.31,244.911 C1279.29,244.911 1281.45,243.973 1283.81,241.63 C1287.87,237.52 1292.33,223.598 1294.64,215.661 C1295.47,212.723 1296.36,209.739 1296.98,207.583 L1297.04,207.426 L1303.75,207.426 C1304.29,207.426 1304.69,206.989 1304.69,206.442 L1304.69,204.442 C1304.69,203.895 1304.29,203.458 1303.75,203.458 L1298.17,203.458 L1298.26,203.161 C1300.86,193.567 1301.64,191.895 1303.01,190.817 C1303.7,190.286 1304.34,190.13 1304.78,190.13 C1304.97,190.13 1305.17,190.13 1305.31,190.176 C1305.76,190.286 1306.11,190.583 1306.25,190.911 C1306.29,191.114 1306.34,191.255 1306.34,191.458 C1306.34,191.895 1306.15,192.333 1305.81,192.536 C1304.87,193.317 1304.34,194.395 1304.34,195.676 C1304.34,196.114 1304.39,196.598 1304.53,197.036 C1304.78,197.926 1305.51,198.708 1306.5,199.145 C1306.89,199.348 1307.42,199.489 1308.11,199.489 C1308.79,199.489 1309.53,199.348 1310.42,198.848 C1311.54,198.27 1312.28,197.333 1312.62,196.161 C1312.76,195.676 1312.81,195.13 1312.81,194.598 C1312.81,193.411 1312.47,192.145 1311.89,191.067 C1311.09,189.692 1308.94,188.02 1305.95,187.536 C1305.47,187.442 1304.97,187.395 1304.39,187.395 C1302.14,187.395 1299.14,188.176 1296.11,190.973 C1293.7,193.176 1291.59,197.192 1289.54,203.317 L1289.44,203.458 L1274.94,203.458 "/>
<path class="" d="M579.568,230.709 C579.178,230.616 578.74,230.553 578.35,230.553 C575.459,230.553 572.521,232.959 570.943,234.522 L570.709,234.772 L570.553,234.475 C570.553,234.428 568.6,230.897 565.318,230.459 C564.928,230.413 564.537,230.413 564.131,230.413 C561.1,230.413 557.475,231.788 555.365,236.678 C554.584,232.272 551.553,230.944 550.318,230.663 C549.928,230.553 549.49,230.506 549.1,230.506 C546.209,230.506 543.271,232.913 541.693,234.475 L541.459,234.725 L541.303,234.428 C541.303,234.381 539.35,230.897 536.068,230.413 C535.725,230.366 535.381,230.319 535.037,230.319 C531.943,230.319 528.709,232.475 526.068,240.116 L527.74,240.944 C528.131,239.725 529.162,236.834 530.24,235.366 C530.771,234.522 531.803,233.741 532.678,233.6 C533.131,233.506 533.459,233.6 533.756,233.788 C534.1,234.038 534.256,234.584 534.256,235.209 C534.256,237.475 532.631,241.444 532.193,242.366 L522.928,268.038 L517.193,268.038 L517.193,269.959 L538.115,269.959 L538.115,268.038 L531.068,268.038 L536.506,253.1 L536.756,253.678 C536.756,253.678 537.725,255.834 540.865,256.631 C541.459,256.772 542.037,256.819 542.631,256.819 C547.584,256.819 552.568,251.866 554.631,244.772 C556.1,239.631 557.178,237.319 558.303,235.756 C558.99,234.819 560.162,233.397 561.584,233.397 C561.787,233.397 561.975,233.444 562.225,233.506 C563.209,233.788 563.553,234.475 563.553,235.459 C563.553,237.022 562.568,239.428 561.443,242.413 L552.178,268.084 L546.443,268.084 L546.443,269.959 L567.365,269.959 L567.365,268.084 L560.365,268.084 L565.756,253.147 L566.053,253.741 C566.053,253.741 566.975,255.897 570.115,256.678 C570.709,256.819 571.287,256.866 571.881,256.866 C576.975,256.866 582.225,251.584 584.131,244.084 C584.662,242.022 584.865,240.303 584.865,238.834 C584.865,232.616 580.99,231.053 579.568,230.709 M547.584,244.272 C546.396,247.897 544.1,252.319 541.74,253.444 C541.459,253.584 540.959,253.678 540.662,253.678 C540.475,253.678 540.178,253.584 539.99,253.538 C538.615,253.006 538.178,251.428 538.178,249.616 C538.178,246.725 539.303,243.35 539.35,243.1 C540.225,239.569 542.818,235.663 545.271,234.288 C545.912,233.897 546.553,233.741 547.084,233.741 C547.334,233.741 547.584,233.741 547.818,233.834 C548.209,233.944 548.506,234.241 548.709,234.631 C549.006,235.163 549.1,235.897 549.1,236.741 C549.1,239.225 548.115,242.616 547.584,244.272 M576.834,244.334 C575.646,247.959 573.35,252.319 570.99,253.444 C570.709,253.584 570.209,253.741 569.912,253.741 C569.725,253.741 569.428,253.631 569.24,253.584 C567.865,253.053 567.428,251.475 567.428,249.663 C567.428,246.772 568.553,243.397 568.6,243.147 C569.475,239.631 572.068,235.709 574.521,234.334 C575.162,233.944 575.803,233.788 576.334,233.788 C576.584,233.788 576.834,233.788 577.068,233.897 C577.459,233.991 577.756,234.288 577.959,234.678 C578.256,235.209 578.35,235.944 578.35,236.788 C578.35,239.288 577.365,242.663 576.834,244.334"/>
<path class="" d="M139.58,281.137 L160.502,281.137 L160.502,279.23 L153.455,279.23 L158.893,264.277 L159.143,264.918 C159.143,264.918 160.112,267.074 163.252,267.855 C163.846,267.996 164.424,268.059 165.018,268.059 C170.112,268.059 175.362,262.762 177.268,255.262 C177.799,253.199 178.002,251.496 178.002,250.027 C178.002,243.793 174.127,242.184 172.705,241.84 C172.315,241.746 171.877,241.699 171.487,241.699 C168.596,241.699 165.659,244.09 164.08,245.668 L163.846,245.949 L163.69,245.605 C163.69,245.559 161.737,242.137 158.455,241.637 C158.112,241.59 157.768,241.543 157.424,241.543 C154.33,241.543 151.096,243.699 148.455,251.34 L150.127,252.184 C150.518,250.949 151.549,248.012 152.627,246.543 C153.159,245.715 154.19,244.918 155.065,244.777 C155.518,244.684 155.846,244.777 156.143,244.98 C156.487,245.215 156.643,245.715 156.643,246.402 C156.643,248.652 155.018,252.668 154.58,253.605 L145.315,279.23 L139.58,279.23 L139.58,281.137 M163.049,264.871 C162.862,264.871 162.565,264.824 162.377,264.762 C161.002,264.23 160.612,262.605 160.612,260.793 C160.612,257.902 161.69,254.527 161.737,254.277 C162.612,250.762 165.205,246.84 167.659,245.465 C168.299,245.074 168.94,244.918 169.471,244.918 C169.721,244.918 169.971,244.918 170.205,245.027 C170.596,245.121 170.893,245.465 171.096,245.855 C171.393,246.402 171.487,247.137 171.487,247.965 C171.487,250.465 170.502,253.84 169.971,255.512 C168.784,259.137 166.487,263.496 164.127,264.621 C163.846,264.762 163.346,264.871 163.049,264.871"/>
<path class="" fill-rule="evenodd" d="M2598.3,350.799 L2662.14,333.514 L2662.14,344.996 L2598.3,362.282 L2598.3,350.799 "/>
<path class="" fill-rule="evenodd" d="M2598.3,367.424 L2662.14,350.139 L2662.14,361.622 L2598.3,378.907 L2598.3,367.424 "/>
<path class="" fill-rule="evenodd" d="M2598.3,55.156 L2662.14,37.8705 L2662.14,49.3531 L2598.3,66.6386 L2598.3,55.156 "/>
<path class="" fill-rule="evenodd" d="M2598.3,71.7812 L2662.14,54.4957 L2662.14,65.9783 L2598.3,83.2638 L2598.3,71.7812 "/>
<path class="" d="M2572.18,587.965 L2586.37,587.965 L2586.37,587.043 L2585.16,587.043 C2584.87,587.043 2584.55,587.012 2584.26,586.934 C2583.95,586.872 2583.65,586.762 2583.35,586.668 C2583.07,586.575 2582.82,586.45 2582.62,586.309 C2582.4,586.153 2582.26,586.043 2582.18,585.887 C2581.99,585.59 2581.87,585.153 2581.77,584.575 C2581.68,583.981 2581.62,583.153 2581.62,582.075 L2581.62,560.7 C2581.62,559.715 2581.68,558.918 2581.79,558.278 C2581.9,557.668 2582.04,557.231 2582.23,556.934 C2582.87,556.153 2583.85,555.731 2585.16,555.731 L2586.37,555.731 L2586.37,554.856 L2572.18,554.856 L2572.18,555.731 L2573.37,555.731 C2573.93,555.731 2574.49,555.856 2575.05,556.075 C2575.59,556.293 2576.04,556.59 2576.35,556.981 C2576.48,557.137 2576.57,557.293 2576.65,557.497 C2576.71,557.684 2576.76,557.934 2576.82,558.231 C2576.84,558.528 2576.87,558.856 2576.87,559.247 C2576.87,559.637 2576.88,560.137 2576.88,560.7 L2576.88,582.075 C2576.88,584.137 2576.7,585.403 2576.3,585.84 C2575.96,586.278 2575.57,586.575 2575.1,586.762 C2574.62,586.965 2574.05,587.043 2573.37,587.043 L2572.18,587.043 L2572.18,587.965 M2606.15,570.512 L2606.15,569.247 C2605.57,569.184 2604.93,569.012 2604.29,568.747 C2603.63,568.481 2603.02,568.122 2602.49,567.684 C2601.93,567.231 2601.46,566.731 2601.1,566.09 C2600.73,565.481 2600.55,564.793 2600.55,564.012 C2600.55,563.45 2600.6,562.872 2600.73,562.231 C2600.82,561.59 2600.95,560.965 2601.1,560.278 C2601.24,559.59 2601.37,558.918 2601.49,558.231 C2601.59,557.543 2601.66,556.84 2601.66,556.153 C2601.66,554.981 2601.38,553.887 2600.88,552.84 C2600.34,551.809 2599.65,550.887 2598.8,550.075 C2597.95,549.262 2596.98,548.606 2595.9,548.09 C2594.82,547.59 2593.7,547.262 2592.57,547.122 L2592.57,547.981 C2593.35,548.2 2594.09,548.481 2594.77,548.856 C2595.43,549.215 2595.99,549.653 2596.48,550.2 C2596.98,550.731 2597.34,551.34 2597.6,552.059 C2597.85,552.762 2597.99,553.559 2597.99,554.45 C2597.99,555.028 2597.93,555.59 2597.82,556.153 C2597.73,556.715 2597.6,557.278 2597.46,557.809 C2597.3,558.372 2597.2,558.934 2597.09,559.497 C2596.99,560.059 2596.95,560.622 2596.95,561.2 C2596.95,562.309 2597.09,563.309 2597.43,564.215 C2597.77,565.106 2598.24,565.918 2598.82,566.653 C2599.41,567.387 2600.12,568.012 2600.95,568.559 C2601.77,569.09 2602.66,569.528 2603.63,569.872 C2602.66,570.215 2601.76,570.684 2600.95,571.215 C2600.12,571.747 2599.41,572.387 2598.82,573.122 C2598.24,573.856 2597.77,574.684 2597.43,575.606 C2597.09,576.543 2596.95,577.559 2596.95,578.637 C2596.95,579.231 2596.99,579.793 2597.09,580.325 C2597.2,580.887 2597.3,581.45 2597.46,581.981 C2597.6,582.528 2597.73,583.075 2597.82,583.622 C2597.93,584.184 2597.99,584.747 2597.99,585.309 C2597.99,586.2 2597.85,587.012 2597.6,587.715 C2597.34,588.434 2596.98,589.043 2596.48,589.575 C2595.99,590.122 2595.43,590.575 2594.77,590.918 C2594.09,591.293 2593.35,591.575 2592.57,591.778 L2592.57,592.653 C2593.74,592.559 2594.87,592.215 2595.98,591.684 C2597.04,591.137 2598.02,590.45 2598.87,589.622 C2599.71,588.793 2600.38,587.825 2600.9,586.715 C2601.38,585.653 2601.66,584.481 2601.66,583.247 C2601.66,582.622 2601.59,581.965 2601.49,581.293 C2601.37,580.668 2601.24,580.028 2601.1,579.403 C2600.95,578.762 2600.82,578.153 2600.73,577.559 C2600.6,576.981 2600.55,576.387 2600.55,575.856 C2600.55,575.075 2600.73,574.387 2601.1,573.762 C2601.45,573.122 2601.9,572.59 2602.46,572.122 C2603.01,571.684 2603.62,571.309 2604.27,571.043 C2604.93,570.778 2605.57,570.606 2606.15,570.512 M2630.41,592.653 L2630.41,591.778 C2629.59,591.575 2628.85,591.293 2628.2,590.918 C2627.51,590.575 2626.95,590.122 2626.46,589.575 C2625.98,589.043 2625.6,588.434 2625.34,587.715 C2625.07,587.012 2624.95,586.2 2624.95,585.309 C2624.95,584.747 2624.99,584.184 2625.12,583.622 C2625.21,583.075 2625.34,582.528 2625.48,581.981 C2625.6,581.45 2625.73,580.887 2625.85,580.325 C2625.95,579.793 2626.02,579.231 2626.02,578.637 C2626.02,577.559 2625.85,576.543 2625.51,575.606 C2625.16,574.684 2624.73,573.856 2624.13,573.122 C2623.55,572.387 2622.85,571.747 2622.01,571.215 C2621.18,570.684 2620.3,570.215 2619.34,569.872 C2620.29,569.528 2621.16,569.09 2621.99,568.559 C2622.82,568.012 2623.52,567.387 2624.12,566.653 C2624.7,565.918 2625.16,565.106 2625.51,564.215 C2625.85,563.309 2626.02,562.309 2626.02,561.2 C2626.02,560.622 2625.95,560.059 2625.85,559.497 C2625.73,558.934 2625.6,558.372 2625.48,557.809 C2625.34,557.278 2625.21,556.715 2625.12,556.153 C2624.99,555.59 2624.95,555.028 2624.95,554.45 C2624.95,553.559 2625.07,552.762 2625.34,552.059 C2625.6,551.34 2625.98,550.731 2626.46,550.2 C2626.95,549.653 2627.51,549.215 2628.2,548.856 C2628.85,548.481 2629.59,548.2 2630.41,547.981 L2630.41,547.122 C2629.27,547.262 2628.15,547.59 2627.07,548.09 C2625.98,548.606 2624.99,549.262 2624.13,550.075 C2623.29,550.887 2622.6,551.809 2622.09,552.84 C2621.55,553.887 2621.3,554.981 2621.3,556.153 C2621.3,556.84 2621.35,557.543 2621.48,558.231 C2621.57,558.918 2621.73,559.59 2621.87,560.278 C2622.01,560.965 2622.13,561.59 2622.26,562.231 C2622.35,562.872 2622.43,563.45 2622.43,564.012 C2622.43,564.793 2622.24,565.481 2621.87,566.09 C2621.51,566.731 2621.04,567.231 2620.51,567.684 C2619.95,568.122 2619.34,568.481 2618.66,568.747 C2618.01,569.012 2617.4,569.184 2616.82,569.247 L2616.82,570.512 C2617.4,570.606 2618.04,570.778 2618.7,571.043 C2619.35,571.309 2619.96,571.684 2620.52,572.122 C2621.07,572.59 2621.52,573.122 2621.9,573.762 C2622.24,574.387 2622.43,575.075 2622.43,575.856 C2622.43,576.387 2622.35,576.981 2622.26,577.559 C2622.13,578.153 2622.01,578.762 2621.87,579.403 C2621.73,580.028 2621.57,580.668 2621.48,581.293 C2621.35,581.965 2621.3,582.622 2621.3,583.247 C2621.3,584.481 2621.55,585.653 2622.07,586.715 C2622.57,587.825 2623.26,588.793 2624.09,589.622 C2624.91,590.45 2625.9,591.137 2626.99,591.684 C2628.1,592.215 2629.24,592.559 2630.41,592.653"/>
<path class="" d="M2174.32,555.731 L2174.32,554.856 L2164.13,554.856 L2164.13,555.731 C2164.72,555.84 2165.21,555.965 2165.6,556.075 C2165.99,556.2 2166.28,556.325 2166.52,556.45 C2166.77,556.59 2166.94,556.715 2167.08,556.84 C2167.21,556.981 2167.3,557.106 2167.41,557.247 C2167.64,557.684 2167.69,558.309 2167.5,559.028 C2167.3,559.793 2166.97,560.762 2166.5,561.981 L2158.69,581.231 L2150.22,561.793 C2149.66,560.528 2149.32,559.528 2149.17,558.747 C2149.02,557.965 2149.11,557.372 2149.41,556.934 C2149.61,556.59 2149.97,556.356 2150.5,556.153 C2151.05,555.965 2151.8,555.84 2152.78,555.731 L2152.78,554.856 L2139.24,554.856 L2139.24,555.731 C2140.02,555.809 2140.63,555.934 2141.11,556.075 C2141.58,556.231 2141.99,556.45 2142.38,556.747 C2142.53,556.856 2142.64,556.981 2142.8,557.075 C2142.92,557.184 2143.07,557.356 2143.24,557.575 C2143.38,557.793 2143.58,558.106 2143.8,558.497 C2143.99,558.887 2144.25,559.45 2144.55,560.153 L2156.91,588.747 L2157.83,588.747 L2169.36,560.497 C2170.03,558.84 2170.82,557.622 2171.67,556.84 C2171.94,556.543 2172.32,556.325 2172.77,556.122 C2173.22,555.965 2173.72,555.84 2174.32,555.731 M2183.53,568.731 L2191.47,548.934 L2191.47,548.418 L2178.72,548.418 L2176.41,553.075 L2176.94,553.231 C2177.11,552.981 2177.32,552.715 2177.5,552.418 C2177.71,552.122 2177.99,551.887 2178.36,551.637 C2178.72,551.387 2179.21,551.2 2179.83,551.043 C2180.41,550.903 2181.22,550.809 2182.19,550.809 L2188.74,550.809 L2181.55,568.731 L2183.53,568.731 "/>
<path class="" d="M1741.2,555.731 L1741.2,554.856 L1731.01,554.856 L1731.01,555.731 C1731.61,555.84 1732.09,555.965 1732.48,556.075 C1732.87,556.2 1733.17,556.325 1733.4,556.45 C1733.65,556.59 1733.83,556.715 1733.97,556.84 C1734.09,556.981 1734.18,557.106 1734.29,557.247 C1734.53,557.684 1734.58,558.309 1734.39,559.028 C1734.18,559.793 1733.86,560.762 1733.39,561.981 L1725.58,581.231 L1717.11,561.793 C1716.54,560.528 1716.2,559.528 1716.06,558.747 C1715.9,557.965 1716,557.372 1716.29,556.934 C1716.5,556.59 1716.86,556.356 1717.39,556.153 C1717.93,555.965 1718.68,555.84 1719.67,555.731 L1719.67,554.856 L1706.12,554.856 L1706.12,555.731 C1706.9,555.809 1707.51,555.934 1708,556.075 C1708.47,556.231 1708.87,556.45 1709.26,556.747 C1709.42,556.856 1709.53,556.981 1709.68,557.075 C1709.81,557.184 1709.95,557.356 1710.12,557.575 C1710.26,557.793 1710.47,558.106 1710.68,558.497 C1710.87,558.887 1711.14,559.45 1711.43,560.153 L1723.79,588.747 L1724.72,588.747 L1736.25,560.497 C1736.92,558.84 1737.7,557.622 1738.56,556.84 C1738.83,556.543 1739.2,556.325 1739.65,556.122 C1740.11,555.965 1740.61,555.84 1741.2,555.731 M1757.31,592.606 L1757.31,591.684 C1756.03,590.903 1754.93,589.997 1754.01,588.95 C1753.08,587.887 1752.28,586.747 1751.64,585.528 C1750.98,584.309 1750.45,583.028 1750.06,581.668 C1749.67,580.293 1749.34,578.934 1749.12,577.512 C1748.9,576.122 1748.76,574.731 1748.68,573.309 C1748.59,571.903 1748.56,570.528 1748.56,569.184 C1748.56,566.512 1748.76,564.012 1749.15,561.747 C1749.54,559.481 1750.12,557.45 1750.89,555.668 C1751.64,553.903 1752.58,552.372 1753.64,551.106 C1754.72,549.825 1755.93,548.856 1757.31,548.122 L1757.31,547.122 C1755.31,548.075 1753.47,549.325 1751.84,550.856 C1750.17,552.418 1748.78,554.168 1747.61,556.153 C1746.43,558.137 1745.51,560.278 1744.87,562.606 C1744.22,564.95 1743.9,567.34 1743.9,569.825 C1743.9,572.309 1744.22,574.715 1744.86,577.028 C1745.48,579.34 1746.37,581.497 1747.54,583.497 C1748.72,585.497 1750.11,587.278 1751.76,588.84 C1753.42,590.403 1755.25,591.684 1757.31,592.606 M1771.83,563.184 C1771.83,563.934 1771.72,564.606 1771.5,565.168 C1771.28,565.747 1771.01,566.215 1770.67,566.606 C1770.31,566.997 1769.89,567.293 1769.43,567.481 C1768.97,567.684 1768.48,567.793 1767.97,567.793 C1767.2,567.84 1766.54,567.653 1765.97,567.231 C1765.37,566.84 1764.89,566.309 1764.47,565.668 C1764.06,565.043 1763.76,564.356 1763.54,563.606 C1763.33,562.84 1763.23,562.137 1763.23,561.45 C1763.23,561.059 1763.25,560.59 1763.33,560.059 C1763.4,559.528 1763.5,558.934 1763.62,558.278 C1764.08,558.012 1764.64,557.715 1765.28,557.418 C1765.89,557.137 1766.58,556.981 1767.28,556.981 C1768.09,556.981 1768.76,557.184 1769.36,557.528 C1769.92,557.887 1770.4,558.356 1770.78,558.934 C1771.14,559.528 1771.4,560.2 1771.58,560.934 C1771.75,561.668 1771.83,562.434 1771.83,563.184 M1774.97,561.59 C1774.97,560.528 1774.75,559.59 1774.34,558.84 C1773.92,558.106 1773.4,557.497 1772.79,557.028 C1772.18,556.575 1771.53,556.231 1770.83,556.028 C1770.11,555.84 1769.5,555.731 1768.97,555.731 C1768.09,555.731 1767.23,555.856 1766.4,556.106 C1765.58,556.356 1764.72,556.715 1763.84,557.2 C1764.06,556.418 1764.36,555.684 1764.67,555.059 C1764.98,554.418 1765.33,553.84 1765.7,553.325 C1766.06,552.809 1766.42,552.372 1766.79,551.981 C1767.15,551.606 1767.48,551.293 1767.79,551.043 C1768.67,550.325 1769.67,549.731 1770.78,549.293 C1771.87,548.856 1773.09,548.606 1774.48,548.559 L1774.48,547.981 L1773.48,547.981 C1772.87,547.981 1772.23,548.043 1771.56,548.153 C1770.84,548.247 1770.14,548.418 1769.37,548.653 C1768.62,548.903 1767.87,549.247 1767.11,549.637 C1766.33,550.043 1765.58,550.559 1764.81,551.153 C1764.23,551.637 1763.64,552.168 1763.06,552.778 C1762.47,553.418 1761.95,554.106 1761.5,554.887 C1761.03,555.668 1760.64,556.543 1760.37,557.465 C1760.08,558.403 1759.93,559.418 1759.93,560.497 C1759.93,561.622 1760.12,562.668 1760.5,563.653 C1760.86,564.622 1761.37,565.497 1762.03,566.231 C1762.68,566.965 1763.47,567.559 1764.4,567.997 C1765.31,568.434 1766.33,568.622 1767.42,568.622 C1768.58,568.622 1769.62,568.434 1770.54,568.012 C1771.48,567.622 1772.28,567.09 1772.95,566.434 C1773.61,565.778 1774.09,565.012 1774.45,564.168 C1774.79,563.325 1774.97,562.481 1774.97,561.59 M1769.48,572.528 L1769.48,582.45 L1761.04,582.45 L1769.48,572.528 M1772.37,584.528 L1775.54,584.528 L1775.54,582.45 L1772.37,582.45 L1772.37,569.465 L1770.43,569.465 L1759.33,582.637 L1759.33,584.528 L1769.48,584.528 L1769.48,589.747 L1772.37,589.747 L1772.37,584.528 M1791.09,569.918 C1791.09,567.481 1790.76,565.106 1790.18,562.825 C1789.58,560.528 1788.68,558.403 1787.54,556.45 C1786.37,554.497 1784.95,552.715 1783.28,551.122 C1781.59,549.543 1779.68,548.2 1777.53,547.122 L1777.53,548.075 C1778.95,548.997 1780.15,550.043 1781.15,551.215 C1782.12,552.387 1782.95,553.637 1783.61,554.95 C1784.28,556.278 1784.78,557.622 1785.17,559.012 C1785.54,560.403 1785.81,561.762 1786.01,563.137 C1786.17,564.497 1786.28,565.793 1786.33,567.059 C1786.37,568.34 1786.4,569.512 1786.4,570.559 C1786.4,573.293 1786.17,575.778 1785.78,578.028 C1785.39,580.293 1784.81,582.325 1784.06,584.09 C1783.29,585.872 1782.37,587.372 1781.26,588.653 C1780.17,589.918 1778.92,590.95 1777.53,591.684 L1777.53,592.606 C1779.48,591.731 1781.33,590.528 1782.98,588.997 C1784.64,587.45 1786.06,585.7 1787.28,583.7 C1788.47,581.684 1789.4,579.512 1790.08,577.168 C1790.75,574.825 1791.09,572.418 1791.09,569.918"/>
<path class="" d="M1266.08,587.965 L1280.26,587.965 L1280.26,587.043 L1279.06,587.043 C1278.76,587.043 1278.45,587.012 1278.16,586.934 C1277.84,586.872 1277.55,586.762 1277.25,586.668 C1276.97,586.575 1276.72,586.45 1276.51,586.309 C1276.3,586.153 1276.16,586.043 1276.08,585.887 C1275.89,585.59 1275.76,585.153 1275.67,584.575 C1275.58,583.981 1275.51,583.153 1275.51,582.075 L1275.51,560.7 C1275.51,559.715 1275.58,558.918 1275.69,558.278 C1275.8,557.668 1275.94,557.231 1276.12,556.934 C1276.76,556.153 1277.75,555.731 1279.06,555.731 L1280.26,555.731 L1280.26,554.856 L1266.08,554.856 L1266.08,555.731 L1267.26,555.731 C1267.83,555.731 1268.39,555.856 1268.95,556.075 C1269.48,556.293 1269.94,556.59 1270.25,556.981 C1270.37,557.137 1270.47,557.293 1270.55,557.497 C1270.61,557.684 1270.66,557.934 1270.72,558.231 C1270.73,558.528 1270.76,558.856 1270.76,559.247 C1270.76,559.637 1270.78,560.137 1270.78,560.7 L1270.78,582.075 C1270.78,584.137 1270.59,585.403 1270.2,585.84 C1269.86,586.278 1269.47,586.575 1269,586.762 C1268.51,586.965 1267.95,587.043 1267.26,587.043 L1266.08,587.043 L1266.08,587.965 M1316.97,555.731 L1316.97,554.856 L1306.78,554.856 L1306.78,555.731 C1307.37,555.84 1307.86,555.965 1308.25,556.075 C1308.64,556.2 1308.94,556.325 1309.17,556.45 C1309.42,556.59 1309.59,556.715 1309.73,556.84 C1309.86,556.981 1309.95,557.106 1310.06,557.247 C1310.3,557.684 1310.34,558.309 1310.16,559.028 C1309.95,559.793 1309.62,560.762 1309.16,561.981 L1301.34,581.231 L1292.87,561.793 C1292.31,560.528 1291.97,559.528 1291.83,558.747 C1291.67,557.965 1291.76,557.372 1292.06,556.934 C1292.26,556.59 1292.62,556.356 1293.16,556.153 C1293.7,555.965 1294.45,555.84 1295.44,555.731 L1295.44,554.856 L1281.89,554.856 L1281.89,555.731 C1282.67,555.809 1283.28,555.934 1283.76,556.075 C1284.23,556.231 1284.64,556.45 1285.03,556.747 C1285.19,556.856 1285.3,556.981 1285.45,557.075 C1285.58,557.184 1285.72,557.356 1285.89,557.575 C1286.03,557.793 1286.23,558.106 1286.45,558.497 C1286.64,558.887 1286.91,559.45 1287.2,560.153 L1299.56,588.747 L1300.48,588.747 L1312.01,560.497 C1312.69,558.84 1313.47,557.622 1314.33,556.84 C1314.59,556.543 1314.97,556.325 1315.42,556.122 C1315.87,555.965 1316.37,555.84 1316.97,555.731"/>
<path class="" d="M561.273,566.512 L561.273,565.606 L553.929,565.606 L553.929,566.512 C554.366,566.512 554.726,566.528 555.023,566.559 C555.319,566.606 555.538,566.653 555.71,566.7 C555.882,566.747 556.007,566.825 556.101,566.872 C556.194,566.95 556.273,567.012 556.319,567.059 C556.491,567.356 556.538,567.7 556.46,568.09 C556.366,568.512 556.194,569.043 555.898,569.731 L550.679,582.59 L545.476,570.247 C545.085,569.434 544.913,568.778 544.944,568.231 C544.96,567.731 545.132,567.293 545.476,566.95 C545.601,566.778 545.788,566.653 546.069,566.606 C546.304,566.559 546.601,566.512 546.913,566.512 L547.632,566.512 L547.632,565.606 L537.023,565.606 L537.023,566.512 C537.476,566.606 537.804,566.653 538.101,566.7 C538.366,566.747 538.585,566.825 538.741,566.903 C538.96,567.043 539.179,567.215 539.366,567.356 C539.569,567.528 539.741,567.731 539.929,567.918 C540.101,568.137 540.273,568.387 540.444,568.684 C540.601,568.965 540.773,569.34 540.929,569.731 L548.976,588.7 L549.991,588.7 L557.929,569.465 C558.179,568.872 558.413,568.387 558.663,567.997 C558.898,567.606 559.148,567.293 559.444,566.997 C559.632,566.84 559.882,566.747 560.179,566.668 C560.46,566.606 560.835,566.559 561.273,566.512 M571.491,557.981 C571.491,557.637 571.413,557.325 571.304,557.028 C571.148,556.747 570.976,556.497 570.757,556.278 C570.538,556.059 570.273,555.887 569.976,555.731 C569.694,555.622 569.366,555.543 569.023,555.543 C568.679,555.543 568.351,555.622 568.054,555.731 C567.757,555.856 567.491,556.028 567.273,556.231 C567.023,556.45 566.851,556.715 566.726,557.012 C566.585,557.293 566.538,557.637 566.538,557.981 C566.538,558.715 566.757,559.325 567.241,559.793 C567.71,560.278 568.288,560.497 569.023,560.497 C569.741,560.497 570.319,560.262 570.788,559.762 C571.257,559.278 571.491,558.7 571.491,557.981 M563.554,587.965 L574.491,587.965 L574.491,587.043 C573.788,587.043 573.21,586.981 572.757,586.887 C572.319,586.793 571.96,586.622 571.71,586.356 C571.476,586.09 571.304,585.715 571.194,585.231 C571.101,584.747 571.054,584.137 571.054,583.372 L571.054,564.965 L570.007,564.965 L563.241,567.653 L563.554,568.528 C563.929,568.403 564.241,568.309 564.538,568.231 C564.804,568.184 565.054,568.137 565.288,568.137 C565.929,568.137 566.366,568.434 566.616,568.965 C566.851,569.528 566.976,570.34 566.976,571.418 L566.976,583.372 C566.976,584.137 566.929,584.747 566.835,585.231 C566.726,585.715 566.569,586.09 566.319,586.356 C566.069,586.622 565.71,586.793 565.273,586.887 C564.835,586.981 564.241,587.043 563.554,587.043 L563.554,587.965 "/>
<path class="" d="M180.05,555.731 L180.05,554.856 L169.863,554.856 L169.863,555.731 C170.457,555.84 170.941,555.965 171.332,556.075 C171.722,556.2 172.019,556.325 172.254,556.45 C172.504,556.59 172.675,556.715 172.816,556.84 C172.941,556.981 173.035,557.106 173.144,557.247 C173.379,557.684 173.425,558.309 173.238,559.028 C173.035,559.793 172.707,560.762 172.238,561.981 L164.425,581.231 L155.957,561.793 C155.394,560.528 155.05,559.528 154.91,558.747 C154.754,557.965 154.847,557.372 155.144,556.934 C155.347,556.59 155.707,556.356 156.238,556.153 C156.785,555.965 157.535,555.84 158.519,555.731 L158.519,554.856 L144.972,554.856 L144.972,555.731 C145.754,555.809 146.363,555.934 146.847,556.075 C147.316,556.231 147.722,556.45 148.113,556.747 C148.269,556.856 148.379,556.981 148.535,557.075 C148.66,557.184 148.8,557.356 148.972,557.575 C149.113,557.793 149.316,558.106 149.535,558.497 C149.722,558.887 149.988,559.45 150.285,560.153 L162.644,588.747 L163.566,588.747 L175.097,560.497 C175.769,558.84 176.55,557.622 177.41,556.84 C177.675,556.543 178.05,556.325 178.504,556.122 C178.957,555.965 179.457,555.84 180.05,555.731 M189.269,568.731 L197.207,548.934 L197.207,548.418 L184.457,548.418 L182.144,553.075 L182.675,553.231 C182.847,552.981 183.05,552.715 183.238,552.418 C183.441,552.122 183.722,551.887 184.097,551.637 C184.457,551.387 184.941,551.2 185.566,551.043 C186.144,550.903 186.957,550.809 187.925,550.809 L194.472,550.809 L187.285,568.731 L189.269,568.731 "/>
</svg>
