<?xml version="1.0" encoding="UTF-8" standalone="no"?>
<svg width="2772px" height="486px" viewBox="0 0 2772 486"
 xmlns="http://www.w3.org/2000/svg" xmlns:xlink="http://www.w3.org/1999/xlink" version="1.2" baseProfile="tiny">
<title>03-1_merged_rna</title>
<desc>Generated by MuseScore 3.6.2</desc>
<path class="" d="M30.0858,30.5142 L29.0546,32.358 C27.4452,35.1236 27.1327,35.358 25.0858,35.3892 L15.8202,35.3892 C16.7733,34.1236 18.5389,32.6392 21.7264,30.3892 C27.0077,26.7642 27.3671,26.5142 28.4921,25.6392 C31.6952,23.1548 33.0077,20.7955 33.0077,17.6392 C33.0077,13.4361 29.8983,10.6392 25.2889,10.6392 C20.1796,10.6392 15.7421,14.4048 15.7421,18.7642 C15.7421,20.9986 16.9296,22.4361 18.8514,22.4361 C20.2889,22.4361 21.4139,21.358 21.4139,19.8736 C21.4139,18.8423 20.8983,18.1548 19.5702,17.4361 C18.6171,16.9517 18.4608,16.7642 18.4608,16.2798 C18.4608,14.5611 21.4139,12.6392 24.1327,12.6392 C26.9296,12.6392 28.8202,14.5142 28.8202,17.3267 C28.8202,20.3111 27.4921,22.5142 23.8983,25.6392 C13.2577,34.8736 11.6483,36.5611 11.2889,38.7955 L28.4452,38.7955 L31.5389,31.0767 L30.0858,30.5142 M55.4139,10.483 L53.2421,10.483 L34.6171,29.7642 L34.6171,31.4361 L45.8827,31.4361 L45.2421,33.8736 C44.7264,35.8736 44.6952,35.9986 44.3202,36.358 C43.9296,36.7486 43.0858,36.9205 40.9608,36.9205 L40.2421,36.9205 L40.0077,38.7955 L52.4452,38.7955 L52.6483,36.9205 L51.9296,36.9205 C49.2889,36.9205 48.7264,36.7173 48.7264,35.8423 C48.7264,35.5142 48.8046,35.1236 49.1327,33.8736 L49.8046,31.4361 L54.3671,31.4361 L54.9608,29.2798 L50.3671,29.2798 L55.4139,10.483 M46.4921,29.2798 L37.5233,29.2798 L49.8827,16.5611 L46.4921,29.2798 M63.4764,25.4048 C64.1639,21.8736 64.9608,19.6861 66.4764,16.9986 C68.2889,13.8423 70.4452,12.233 72.8358,12.233 C74.0858,12.233 74.8358,12.7173 74.8358,13.483 C74.8358,13.7642 74.7577,13.9205 74.4764,14.4361 C74.1171,15.1236 73.9608,15.5923 73.9608,16.2017 C73.9608,17.483 74.9139,18.358 76.2733,18.358 C77.9139,18.358 79.0389,17.1548 79.0389,15.358 C79.0389,12.6392 76.4764,10.6392 72.9139,10.6392 C69.1639,10.6392 65.8046,12.6392 63.0858,16.483 C60.2889,20.4361 58.6014,25.5142 58.6014,29.9517 C58.6014,35.8423 61.5233,39.3892 66.3983,39.3892 C69.3983,39.3892 72.0858,38.2017 74.0077,36.0767 C75.7577,34.0767 76.8358,31.2017 76.8358,28.5611 C76.8358,24.483 74.0858,21.6392 70.0858,21.6392 C67.2889,21.6392 65.1171,22.8423 63.4764,25.4048 M68.8046,23.9517 C71.2889,23.9517 72.6483,25.6705 72.6483,28.7955 C72.6483,33.8736 69.9608,37.7486 66.3983,37.7486 C63.8358,37.7486 62.3202,35.8736 62.3202,32.6705 C62.3202,27.6705 65.0858,23.9517 68.8046,23.9517"/>
<polyline class="" fill="none" stroke="#000000" stroke-width="2.97" stroke-linejoin="bevel" points="2568.45,274.417 2568.45,342.222"/>
<polyline class="" fill="none" stroke="#000000" stroke-width="2.97" stroke-linejoin="bevel" points="2129.01,274.417 2129.01,342.222"/>
<polyline class="" fill="none" stroke="#000000" stroke-width="2.97" stroke-linejoin="bevel" points="1689.58,274.417 1689.58,342.222"/>
<polyline class="" fill="none" stroke="#000000" stroke-width="2.97" stroke-linejoin="bevel" points="1243.22,274.417 1243.22,342.222"/>
<polyline class="" fill="none" stroke="#000000" stroke-width="2.97" stroke-linejoin="bevel" points="892.033,274.417 892.033,342.222"/>
<polyline class="" fill="none" stroke="#000000" stroke-width="2.97" stroke-linejoin="bevel" points="489.221,274.417 489.221,342.222"/>
<polyline class="" fill="none" stroke="#000000" stroke-width="2.97" stroke-linejoin="bevel" points="12.18,274.417 12.18,342.222"/>
<polyline class="" fill="none" stroke="#000000" stroke-width="2.97" stroke-linejoin="bevel" points="2568.45,70.8834 2568.45,275.324"/>
<polyline class="" fill="none" stroke="#000000" stroke-width="2.97" stroke-linejoin="bevel" points="2129.01,70.8834 2129.01,275.324"/>
<polyline class="" fill="none" stroke="#000000" stroke-width="2.97" stroke-linejoin="bevel" points="1689.58,70.8834 1689.58,275.324"/>
<polyline class="" fill="none" stroke="#000000" stroke-width="2.97" stroke-linejoin="bevel" points="1243.22,70.8834 1243.22,275.324"/>
<polyline class="" fill="none" stroke="#000000" stroke-width="2.97" stroke-linejoin="bevel" points="892.033,70.8834 892.033,275.324"/>
<polyline class="" fill="none" stroke="#000000" stroke-width="2.97" stroke-linejoin="bevel" points="489.221,70.8834 489.221,275.324"/>
<polyline class="" fill="none" stroke="#000000" stroke-width="2.97" stroke-linejoin="bevel" points="12.18,70.8834 12.18,275.324"/>
<polyline class="" fill="none" stroke="#000000" stroke-width="1.81" stroke-linejoin="bevel" points="2569.93,275.324 2703.61,275.324"/>
<polyline class="" fill="none" stroke="#000000" stroke-width="1.81" stroke-linejoin="bevel" points="2569.93,291.822 2703.61,291.822"/>
<polyline class="" fill="none" stroke="#000000" stroke-width="1.81" stroke-linejoin="bevel" points="2569.93,308.32 2703.61,308.32"/>
<polyline class="" fill="none" stroke="#000000" stroke-width="1.81" stroke-linejoin="bevel" points="2569.93,324.817 2703.61,324.817"/>
<polyline class="" fill="none" stroke="#000000" stroke-width="1.81" stroke-linejoin="bevel" points="2569.93,341.315 2703.61,341.315"/>
<polyline class="" fill="none" stroke="#000000" stroke-width="1.81" stroke-linejoin="bevel" points="2130.5,275.324 2569.93,275.324"/>
<polyline class="" fill="none" stroke="#000000" stroke-width="1.81" stroke-linejoin="bevel" points="2130.5,291.822 2569.93,291.822"/>
<polyline class="" fill="none" stroke="#000000" stroke-width="1.81" stroke-linejoin="bevel" points="2130.5,308.32 2569.93,308.32"/>
<polyline class="" fill="none" stroke="#000000" stroke-width="1.81" stroke-linejoin="bevel" points="2130.5,324.817 2569.93,324.817"/>
<polyline class="" fill="none" stroke="#000000" stroke-width="1.81" stroke-linejoin="bevel" points="2130.5,341.315 2569.93,341.315"/>
<polyline class="" fill="none" stroke="#000000" stroke-width="1.81" stroke-linejoin="bevel" points="1691.07,275.324 2130.5,275.324"/>
<polyline class="" fill="none" stroke="#000000" stroke-width="1.81" stroke-linejoin="bevel" points="1691.07,291.822 2130.5,291.822"/>
<polyline class="" fill="none" stroke="#000000" stroke-width="1.81" stroke-linejoin="bevel" points="1691.07,308.32 2130.5,308.32"/>
<polyline class="" fill="none" stroke="#000000" stroke-width="1.81" stroke-linejoin="bevel" points="1691.07,324.817 2130.5,324.817"/>
<polyline class="" fill="none" stroke="#000000" stroke-width="1.81" stroke-linejoin="bevel" points="1691.07,341.315 2130.5,341.315"/>
<polyline class="" fill="none" stroke="#000000" stroke-width="1.81" stroke-linejoin="bevel" points="1244.71,275.324 1691.07,275.324"/>
<polyline class="" fill="none" stroke="#000000" stroke-width="1.81" stroke-linejoin="bevel" points="1244.71,291.822 1691.07,291.822"/>
<polyline class="" fill="none" stroke="#000000" stroke-width="1.81" stroke-linejoin="bevel" points="1244.71,308.32 1691.07,308.32"/>
<polyline class="" fill="none" stroke="#000000" stroke-width="1.81" stroke-linejoin="bevel" points="1244.71,324.817 1691.07,324.817"/>
<polyline class="" fill="none" stroke="#000000" stroke-width="1.81" stroke-linejoin="bevel" points="1244.71,341.315 1691.07,341.315"/>
<polyline class="" fill="none" stroke="#000000" stroke-width="1.81" stroke-linejoin="bevel" points="893.518,275.324 1244.71,275.324"/>
<polyline class="" fill="none" stroke="#000000" stroke-width="1.81" stroke-linejoin="bevel" points="893.518,291.822 1244.71,291.822"/>
<polyline class="" fill="none" stroke="#000000" stroke-width="1.81" stroke-linejoin="bevel" points="893.518,308.32 1244.71,308.32"/>
<polyline class="" fill="none" stroke="#000000" stroke-width="1.81" stroke-linejoin="bevel" points="893.518,324.817 1244.71,324.817"/>
<polyline class="" fill="none" stroke="#000000" stroke-width="1.81" stroke-linejoin="bevel" points="893.518,341.315 1244.71,341.315"/>
<polyline class="" fill="none" stroke="#000000" stroke-width="1.81" stroke-linejoin="bevel" points="490.706,275.324 893.518,275.324"/>
<polyline class="" fill="none" stroke="#000000" stroke-width="1.81" stroke-linejoin="bevel" points="490.706,291.822 893.518,291.822"/>
<polyline class="" fill="none" stroke="#000000" stroke-width="1.81" stroke-linejoin="bevel" points="490.706,308.32 893.518,308.32"/>
<polyline class="" fill="none" stroke="#000000" stroke-width="1.81" stroke-linejoin="bevel" points="490.706,324.817 893.518,324.817"/>
<polyline class="" fill="none" stroke="#000000" stroke-width="1.81" stroke-linejoin="bevel" points="490.706,341.315 893.518,341.315"/>
<polyline class="" fill="none" stroke="#000000" stroke-width="1.81" stroke-linejoin="bevel" points="10.6952,275.324 490.706,275.324"/>
<polyline class="" fill="none" stroke="#000000" stroke-width="1.81" stroke-linejoin="bevel" points="10.6952,291.822 490.706,291.822"/>
<polyline class="" fill="none" stroke="#000000" stroke-width="1.81" stroke-linejoin="bevel" points="10.6952,308.32 490.706,308.32"/>
<polyline class="" fill="none" stroke="#000000" stroke-width="1.81" stroke-linejoin="bevel" points="10.6952,324.817 490.706,324.817"/>
<polyline class="" fill="none" stroke="#000000" stroke-width="1.81" stroke-linejoin="bevel" points="10.6952,341.315 490.706,341.315"/>
<polyline class="" fill="none" stroke="#000000" stroke-width="1.81" stroke-linejoin="bevel" points="2569.93,71.7907 2703.61,71.7907"/>
<polyline class="" fill="none" stroke="#000000" stroke-width="1.81" stroke-linejoin="bevel" points="2569.93,88.2884 2703.61,88.2884"/>
<polyline class="" fill="none" stroke="#000000" stroke-width="1.81" stroke-linejoin="bevel" points="2569.93,104.786 2703.61,104.786"/>
<polyline class="" fill="none" stroke="#000000" stroke-width="1.81" stroke-linejoin="bevel" points="2569.93,121.284 2703.61,121.284"/>
<polyline class="" fill="none" stroke="#000000" stroke-width="1.81" stroke-linejoin="bevel" points="2569.93,137.781 2703.61,137.781"/>
<polyline class="" fill="none" stroke="#000000" stroke-width="1.81" stroke-linejoin="bevel" points="2130.5,71.7907 2569.93,71.7907"/>
<polyline class="" fill="none" stroke="#000000" stroke-width="1.81" stroke-linejoin="bevel" points="2130.5,88.2884 2569.93,88.2884"/>
<polyline class="" fill="none" stroke="#000000" stroke-width="1.81" stroke-linejoin="bevel" points="2130.5,104.786 2569.93,104.786"/>
<polyline class="" fill="none" stroke="#000000" stroke-width="1.81" stroke-linejoin="bevel" points="2130.5,121.284 2569.93,121.284"/>
<polyline class="" fill="none" stroke="#000000" stroke-width="1.81" stroke-linejoin="bevel" points="2130.5,137.781 2569.93,137.781"/>
<polyline class="" fill="none" stroke="#000000" stroke-width="1.81" stroke-linejoin="bevel" points="1691.07,71.7907 2130.5,71.7907"/>
<polyline class="" fill="none" stroke="#000000" stroke-width="1.81" stroke-linejoin="bevel" points="1691.07,88.2884 2130.5,88.2884"/>
<polyline class="" fill="none" stroke="#000000" stroke-width="1.81" stroke-linejoin="bevel" points="1691.07,104.786 2130.5,104.786"/>
<polyline class="" fill="none" stroke="#000000" stroke-width="1.81" stroke-linejoin="bevel" points="1691.07,121.284 2130.5,121.284"/>
<polyline class="" fill="none" stroke="#000000" stroke-width="1.81" stroke-linejoin="bevel" points="1691.07,137.781 2130.5,137.781"/>
<polyline class="" fill="none" stroke="#000000" stroke-width="1.81" stroke-linejoin="bevel" points="1244.71,71.7907 1691.07,71.7907"/>
<polyline class="" fill="none" stroke="#000000" stroke-width="1.81" stroke-linejoin="bevel" points="1244.71,88.2884 1691.07,88.2884"/>
<polyline class="" fill="none" stroke="#000000" stroke-width="1.81" stroke-linejoin="bevel" points="1244.71,104.786 1691.07,104.786"/>
<polyline class="" fill="none" stroke="#000000" stroke-width="1.81" stroke-linejoin="bevel" points="1244.71,121.284 1691.07,121.284"/>
<polyline class="" fill="none" stroke="#000000" stroke-width="1.81" stroke-linejoin="bevel" points="1244.71,137.781 1691.07,137.781"/>
<polyline class="" fill="none" stroke="#000000" stroke-width="1.81" stroke-linejoin="bevel" points="893.518,71.7907 1244.71,71.7907"/>
<polyline class="" fill="none" stroke="#000000" stroke-width="1.81" stroke-linejoin="bevel" points="893.518,88.2884 1244.71,88.2884"/>
<polyline class="" fill="none" stroke="#000000" stroke-width="1.81" stroke-linejoin="bevel" points="893.518,104.786 1244.71,104.786"/>
<polyline class="" fill="none" stroke="#000000" stroke-width="1.81" stroke-linejoin="bevel" points="893.518,121.284 1244.71,121.284"/>
<polyline class="" fill="none" stroke="#000000" stroke-width="1.81" stroke-linejoin="bevel" points="893.518,137.781 1244.71,137.781"/>
<polyline class="" fill="none" stroke="#000000" stroke-width="1.81" stroke-linejoin="bevel" points="490.706,71.7907 893.518,71.7907"/>
<polyline class="" fill="none" stroke="#000000" stroke-width="1.81" stroke-linejoin="bevel" points="490.706,88.2884 893.518,88.2884"/>
<polyline class="" fill="none" stroke="#000000" stroke-width="1.81" stroke-linejoin="bevel" points="490.706,104.786 893.518,104.786"/>
<polyline class="" fill="none" stroke="#000000" stroke-width="1.81" stroke-linejoin="bevel" points="490.706,121.284 893.518,121.284"/>
<polyline class="" fill="none" stroke="#000000" stroke-width="1.81" stroke-linejoin="bevel" points="490.706,137.781 893.518,137.781"/>
<polyline class="" fill="none" stroke="#000000" stroke-width="1.81" stroke-linejoin="bevel" points="10.6952,71.7907 490.706,71.7907"/>
<polyline class="" fill="none" stroke="#000000" stroke-width="1.81" stroke-linejoin="bevel" points="10.6952,88.2884 490.706,88.2884"/>
<polyline class="" fill="none" stroke="#000000" stroke-width="1.81" stroke-linejoin="bevel" points="10.6952,104.786 490.706,104.786"/>
<polyline class="" fill="none" stroke="#000000" stroke-width="1.81" stroke-linejoin="bevel" points="10.6952,121.284 490.706,121.284"/>
<polyline class="" fill="none" stroke="#000000" stroke-width="1.81" stroke-linejoin="bevel" points="10.6952,137.781 490.706,137.781"/>
<polyline class="" fill="none" stroke="#000000" stroke-width="2.64" stroke-linejoin="bevel" points="2589.73,374.31 2622.72,374.31"/>
<polyline class="" fill="none" stroke="#000000" stroke-width="2.64" stroke-linejoin="bevel" points="2589.73,357.812 2622.72,357.812"/>
<polyline class="" fill="none" stroke="#000000" stroke-width="2.64" stroke-linejoin="bevel" points="2150.3,390.808 2183.29,390.808"/>
<polyline class="" fill="none" stroke="#000000" stroke-width="2.64" stroke-linejoin="bevel" points="2150.3,374.31 2183.29,374.31"/>
<polyline class="" fill="none" stroke="#000000" stroke-width="2.64" stroke-linejoin="bevel" points="2150.3,357.812 2183.29,357.812"/>
<polyline class="" fill="none" stroke="#000000" stroke-width="2.64" stroke-linejoin="bevel" points="1710.87,390.808 1743.86,390.808"/>
<polyline class="" fill="none" stroke="#000000" stroke-width="2.64" stroke-linejoin="bevel" points="1710.87,374.31 1743.86,374.31"/>
<polyline class="" fill="none" stroke="#000000" stroke-width="2.64" stroke-linejoin="bevel" points="1710.87,357.812 1743.86,357.812"/>
<polyline class="" fill="none" stroke="#000000" stroke-width="2.64" stroke-linejoin="bevel" points="1264.51,407.305 1297.5,407.305"/>
<polyline class="" fill="none" stroke="#000000" stroke-width="2.64" stroke-linejoin="bevel" points="1264.51,390.808 1297.5,390.808"/>
<polyline class="" fill="none" stroke="#000000" stroke-width="2.64" stroke-linejoin="bevel" points="1264.51,374.31 1297.5,374.31"/>
<polyline class="" fill="none" stroke="#000000" stroke-width="2.64" stroke-linejoin="bevel" points="1264.51,357.812 1297.5,357.812"/>
<polyline class="" fill="none" stroke="#000000" stroke-width="2.64" stroke-linejoin="bevel" points="2589.73,154.279 2622.72,154.279"/>
<polyline class="" fill="none" stroke="#000000" stroke-width="2.64" stroke-linejoin="bevel" points="2458.46,55.2931 2491.45,55.2931"/>
<polyline class="" fill="none" stroke="#000000" stroke-width="2.64" stroke-linejoin="bevel" points="2355.74,154.279 2388.73,154.279"/>
<polyline class="" fill="none" stroke="#000000" stroke-width="2.64" stroke-linejoin="bevel" points="1916.31,170.777 1949.3,170.777"/>
<polyline class="" fill="none" stroke="#000000" stroke-width="2.64" stroke-linejoin="bevel" points="1916.31,154.279 1949.3,154.279"/>
<polyline class="" fill="none" stroke="#000000" stroke-width="2.64" stroke-linejoin="bevel" points="1473.42,170.777 1506.41,170.777"/>
<polyline class="" fill="none" stroke="#000000" stroke-width="2.64" stroke-linejoin="bevel" points="1577.87,55.2931 1610.86,55.2931"/>
<polyline class="" fill="none" stroke="#000000" stroke-width="2.64" stroke-linejoin="bevel" points="1473.42,154.279 1506.41,154.279"/>
<polyline class="" fill="none" stroke="#000000" stroke-width="2.64" stroke-linejoin="bevel" points="614.467,55.2931 647.457,55.2931"/>
<polyline class="" fill="none" stroke="#000000" stroke-width="2.64" stroke-linejoin="bevel" points="614.467,38.7955 647.457,38.7955"/>
<polyline class="" fill="none" stroke="#000000" stroke-width="2.64" stroke-linejoin="bevel" points="510.503,154.279 543.493,154.279"/>
<polyline class="" fill="none" stroke="#000000" stroke-width="2.64" stroke-linejoin="bevel" points="107.691,154.279 140.681,154.279"/>
<polyline class="" fill="none" stroke="#000000" stroke-width="1.81" stroke-linejoin="bevel" points="2616.04,372.198 2616.04,275.324"/>
<polyline class="" fill="none" stroke="#000000" stroke-width="1.81" stroke-linejoin="bevel" points="2668.6,314.457 2668.6,262.951"/>
<polyline class="" fill="none" stroke="#000000" stroke-width="1.81" stroke-linejoin="bevel" points="2279.33,339.203 2279.33,238.205"/>
<polyline class="" fill="none" stroke="#000000" stroke-width="1.81" stroke-linejoin="bevel" points="2176.61,396.945 2176.61,283.573"/>
<polyline class="" fill="none" stroke="#000000" stroke-width="1.81" stroke-linejoin="bevel" points="1839.9,339.203 1839.9,238.205"/>
<polyline class="" fill="none" stroke="#000000" stroke-width="1.81" stroke-linejoin="bevel" points="1737.17,396.945 1737.17,283.573"/>
<polyline class="" fill="none" stroke="#000000" stroke-width="1.81" stroke-linejoin="bevel" points="1395.27,347.452 1395.27,244.391"/>
<polyline class="" fill="none" stroke="#000000" stroke-width="1.81" stroke-linejoin="bevel" points="1290.82,405.194 1290.82,291.822"/>
<polyline class="" fill="none" stroke="#000000" stroke-width="1.81" stroke-linejoin="bevel" points="536.811,330.954 536.811,250.578"/>
<polyline class="" fill="none" stroke="#000000" stroke-width="1.81" stroke-linejoin="bevel" points="134,339.203 134,244.391"/>
<polyline class="" fill="none" stroke="#000000" stroke-width="1.81" stroke-linejoin="bevel" points="2616.04,152.167 2616.04,55.2931"/>
<polyline class="" fill="none" stroke="#000000" stroke-width="1.81" stroke-linejoin="bevel" points="2668.6,94.4255 2668.6,42.9199"/>
<polyline class="" fill="none" stroke="#000000" stroke-width="1.81" stroke-linejoin="bevel" points="2465.15,49.2616 2465.15,156.341"/>
<polyline class="" fill="none" stroke="#000000" stroke-width="1.81" stroke-linejoin="bevel" points="2382.05,160.416 2382.05,53.2309"/>
<polyline class="" fill="none" stroke="#000000" stroke-width="1.81" stroke-linejoin="bevel" points="1942.62,176.914 1942.62,65.6041"/>
<polyline class="" fill="none" stroke="#000000" stroke-width="1.81" stroke-linejoin="bevel" points="2025.71,65.7592 2025.71,168.714"/>
<polyline class="" fill="none" stroke="#000000" stroke-width="1.81" stroke-linejoin="bevel" points="1584.55,57.5104 1584.55,162.528"/>
<polyline class="" fill="none" stroke="#000000" stroke-width="1.81" stroke-linejoin="bevel" points="1499.72,168.665 1499.72,59.4175"/>
<polyline class="" fill="none" stroke="#000000" stroke-width="1.81" stroke-linejoin="bevel" points="621.149,41.0127 621.149,104.786"/>
<polyline class="" fill="none" stroke="#000000" stroke-width="1.81" stroke-linejoin="bevel" points="536.811,152.167 536.811,96.5372"/>
<polyline class="" fill="none" stroke="#000000" stroke-width="1.81" stroke-linejoin="bevel" points="218.337,65.7592 218.337,121.284"/>
<polyline class="" fill="none" stroke="#000000" stroke-width="1.81" stroke-linejoin="bevel" points="134,160.416 134,104.786"/>
<path class="" transform="matrix(0.659906,0,0,0.659906,2595.5,374.31)" d="M31.5,-8.09375 C29.7031,-11.4063 25.9063,-13.2031 21.2969,-13.2031 C17.9063,-13.2031 14.2031,-12.2031 10.5938,-10.2969 C4,-6.79688 0,-0.90625 0,4.20313 C0,5.59375 0.296875,7 1,8.29688 C2.79688,11.5938 6.59375,13.2969 11.2031,13.2969 C14.5938,13.2969 18.2969,12.4063 21.9063,10.5 C28.5,7 32.5,1.09375 32.5,-4 C32.5,-5.40625 32.2031,-6.79688 31.5,-8.09375"/>
<path class="" transform="matrix(0.659906,0,0,0.659906,2648.07,316.568)" d="M31.5,-8.09375 C29.7031,-11.4063 25.9063,-13.2031 21.2969,-13.2031 C17.9063,-13.2031 14.2031,-12.2031 10.5938,-10.2969 C4,-6.79688 0,-0.90625 0,4.20313 C0,5.59375 0.296875,7 1,8.29688 C2.79688,11.5938 6.59375,13.2969 11.2031,13.2969 C14.5938,13.2969 18.2969,12.4063 21.9063,10.5 C28.5,7 32.5,1.09375 32.5,-4 C32.5,-5.40625 32.2031,-6.79688 31.5,-8.09375"/>
<path class="" transform="matrix(0.659906,0,0,0.659906,2258.79,341.315)" d="M31.5,-8.09375 C29.7031,-11.4063 25.9063,-13.2031 21.2969,-13.2031 C17.9063,-13.2031 14.2031,-12.2031 10.5938,-10.2969 C4,-6.79688 0,-0.90625 0,4.20313 C0,5.59375 0.296875,7 1,8.29688 C2.79688,11.5938 6.59375,13.2969 11.2031,13.2969 C14.5938,13.2969 18.2969,12.4063 21.9063,10.5 C28.5,7 32.5,1.09375 32.5,-4 C32.5,-5.40625 32.2031,-6.79688 31.5,-8.09375"/>
<path class="" transform="matrix(0.659906,0,0,0.659906,2156.07,399.057)" d="M31.5,-8.09375 C29.7031,-11.4063 25.9063,-13.2031 21.2969,-13.2031 C17.9063,-13.2031 14.2031,-12.2031 10.5938,-10.2969 C4,-6.79688 0,-0.90625 0,4.20313 C0,5.59375 0.296875,7 1,8.29688 C2.79688,11.5938 6.59375,13.2969 11.2031,13.2969 C14.5938,13.2969 18.2969,12.4063 21.9063,10.5 C28.5,7 32.5,1.09375 32.5,-4 C32.5,-5.40625 32.2031,-6.79688 31.5,-8.09375"/>
<path class="" transform="matrix(0.659906,0,0,0.659906,2156.07,341.315)" d="M31.5,-8.09375 C29.7031,-11.4063 25.9063,-13.2031 21.2969,-13.2031 C17.9063,-13.2031 14.2031,-12.2031 10.5938,-10.2969 C4,-6.79688 0,-0.90625 0,4.20313 C0,5.59375 0.296875,7 1,8.29688 C2.79688,11.5938 6.59375,13.2969 11.2031,13.2969 C14.5938,13.2969 18.2969,12.4063 21.9063,10.5 C28.5,7 32.5,1.09375 32.5,-4 C32.5,-5.40625 32.2031,-6.79688 31.5,-8.09375"/>
<path class="" transform="matrix(0.659906,0,0,0.659906,2258.79,283.573)" d="M31.5,-8.09375 C29.7031,-11.4063 25.9063,-13.2031 21.2969,-13.2031 C17.9063,-13.2031 14.2031,-12.2031 10.5938,-10.2969 C4,-6.79688 0,-0.90625 0,4.20313 C0,5.59375 0.296875,7 1,8.29688 C2.79688,11.5938 6.59375,13.2969 11.2031,13.2969 C14.5938,13.2969 18.2969,12.4063 21.9063,10.5 C28.5,7 32.5,1.09375 32.5,-4 C32.5,-5.40625 32.2031,-6.79688 31.5,-8.09375"/>
<path class="" transform="matrix(0.659906,0,0,0.659906,1819.36,341.315)" d="M31.5,-8.09375 C29.7031,-11.4063 25.9063,-13.2031 21.2969,-13.2031 C17.9063,-13.2031 14.2031,-12.2031 10.5938,-10.2969 C4,-6.79688 0,-0.90625 0,4.20313 C0,5.59375 0.296875,7 1,8.29688 C2.79688,11.5938 6.59375,13.2969 11.2031,13.2969 C14.5938,13.2969 18.2969,12.4063 21.9063,10.5 C28.5,7 32.5,1.09375 32.5,-4 C32.5,-5.40625 32.2031,-6.79688 31.5,-8.09375"/>
<path class="" transform="matrix(0.659906,0,0,0.659906,1716.64,399.057)" d="M31.5,-8.09375 C29.7031,-11.4063 25.9063,-13.2031 21.2969,-13.2031 C17.9063,-13.2031 14.2031,-12.2031 10.5938,-10.2969 C4,-6.79688 0,-0.90625 0,4.20313 C0,5.59375 0.296875,7 1,8.29688 C2.79688,11.5938 6.59375,13.2969 11.2031,13.2969 C14.5938,13.2969 18.2969,12.4063 21.9063,10.5 C28.5,7 32.5,1.09375 32.5,-4 C32.5,-5.40625 32.2031,-6.79688 31.5,-8.09375"/>
<path class="" transform="matrix(0.659906,0,0,0.659906,1716.64,341.315)" d="M31.5,-8.09375 C29.7031,-11.4063 25.9063,-13.2031 21.2969,-13.2031 C17.9063,-13.2031 14.2031,-12.2031 10.5938,-10.2969 C4,-6.79688 0,-0.90625 0,4.20313 C0,5.59375 0.296875,7 1,8.29688 C2.79688,11.5938 6.59375,13.2969 11.2031,13.2969 C14.5938,13.2969 18.2969,12.4063 21.9063,10.5 C28.5,7 32.5,1.09375 32.5,-4 C32.5,-5.40625 32.2031,-6.79688 31.5,-8.09375"/>
<path class="" transform="matrix(0.659906,0,0,0.659906,1374.74,349.564)" d="M31.5,-8.09375 C29.7031,-11.4063 25.9063,-13.2031 21.2969,-13.2031 C17.9063,-13.2031 14.2031,-12.2031 10.5938,-10.2969 C4,-6.79688 0,-0.90625 0,4.20313 C0,5.59375 0.296875,7 1,8.29688 C2.79688,11.5938 6.59375,13.2969 11.2031,13.2969 C14.5938,13.2969 18.2969,12.4063 21.9063,10.5 C28.5,7 32.5,1.09375 32.5,-4 C32.5,-5.40625 32.2031,-6.79688 31.5,-8.09375"/>
<path class="" transform="matrix(0.659906,0,0,0.659906,1819.36,283.573)" d="M31.5,-8.09375 C29.7031,-11.4063 25.9063,-13.2031 21.2969,-13.2031 C17.9063,-13.2031 14.2031,-12.2031 10.5938,-10.2969 C4,-6.79688 0,-0.90625 0,4.20313 C0,5.59375 0.296875,7 1,8.29688 C2.79688,11.5938 6.59375,13.2969 11.2031,13.2969 C14.5938,13.2969 18.2969,12.4063 21.9063,10.5 C28.5,7 32.5,1.09375 32.5,-4 C32.5,-5.40625 32.2031,-6.79688 31.5,-8.09375"/>
<path class="" transform="matrix(0.659906,0,0,0.659906,1374.74,291.822)" d="M31.5,-8.09375 C29.7031,-11.4063 25.9063,-13.2031 21.2969,-13.2031 C17.9063,-13.2031 14.2031,-12.2031 10.5938,-10.2969 C4,-6.79688 0,-0.90625 0,4.20313 C0,5.59375 0.296875,7 1,8.29688 C2.79688,11.5938 6.59375,13.2969 11.2031,13.2969 C14.5938,13.2969 18.2969,12.4063 21.9063,10.5 C28.5,7 32.5,1.09375 32.5,-4 C32.5,-5.40625 32.2031,-6.79688 31.5,-8.09375"/>
<path class="" transform="matrix(0.659906,0,0,0.659906,1270.28,407.305)" d="M31.5,-8.09375 C29.7031,-11.4063 25.9063,-13.2031 21.2969,-13.2031 C17.9063,-13.2031 14.2031,-12.2031 10.5938,-10.2969 C4,-6.79688 0,-0.90625 0,4.20313 C0,5.59375 0.296875,7 1,8.29688 C2.79688,11.5938 6.59375,13.2969 11.2031,13.2969 C14.5938,13.2969 18.2969,12.4063 21.9063,10.5 C28.5,7 32.5,1.09375 32.5,-4 C32.5,-5.40625 32.2031,-6.79688 31.5,-8.09375"/>
<path class="" transform="matrix(0.659906,0,0,0.659906,1270.28,349.564)" d="M31.5,-8.09375 C29.7031,-11.4063 25.9063,-13.2031 21.2969,-13.2031 C17.9063,-13.2031 14.2031,-12.2031 10.5938,-10.2969 C4,-6.79688 0,-0.90625 0,4.20313 C0,5.59375 0.296875,7 1,8.29688 C2.79688,11.5938 6.59375,13.2969 11.2031,13.2969 C14.5938,13.2969 18.2969,12.4063 21.9063,10.5 C28.5,7 32.5,1.09375 32.5,-4 C32.5,-5.40625 32.2031,-6.79688 31.5,-8.09375"/>
<path class="" transform="matrix(0.659906,0,0,0.659906,516.277,333.066)" d="M31.5,-8.09375 C29.7031,-11.4063 25.9063,-13.2031 21.2969,-13.2031 C17.9063,-13.2031 14.2031,-12.2031 10.5938,-10.2969 C4,-6.79688 0,-0.90625 0,4.20313 C0,5.59375 0.296875,7 1,8.29688 C2.79688,11.5938 6.59375,13.2969 11.2031,13.2969 C14.5938,13.2969 18.2969,12.4063 21.9063,10.5 C28.5,7 32.5,1.09375 32.5,-4 C32.5,-5.40625 32.2031,-6.79688 31.5,-8.09375"/>
<path class="" transform="matrix(0.659906,0,0,0.659906,516.277,316.568)" d="M31.5,-8.09375 C29.7031,-11.4063 25.9063,-13.2031 21.2969,-13.2031 C17.9063,-13.2031 14.2031,-12.2031 10.5938,-10.2969 C4,-6.79688 0,-0.90625 0,4.20313 C0,5.59375 0.296875,7 1,8.29688 C2.79688,11.5938 6.59375,13.2969 11.2031,13.2969 C14.5938,13.2969 18.2969,12.4063 21.9063,10.5 C28.5,7 32.5,1.09375 32.5,-4 C32.5,-5.40625 32.2031,-6.79688 31.5,-8.09375"/>
<path class="" transform="matrix(0.659906,0,0,0.659906,113.465,341.315)" d="M31.5,-8.09375 C29.7031,-11.4063 25.9063,-13.2031 21.2969,-13.2031 C17.9063,-13.2031 14.2031,-12.2031 10.5938,-10.2969 C4,-6.79688 0,-0.90625 0,4.20313 C0,5.59375 0.296875,7 1,8.29688 C2.79688,11.5938 6.59375,13.2969 11.2031,13.2969 C14.5938,13.2969 18.2969,12.4063 21.9063,10.5 C28.5,7 32.5,1.09375 32.5,-4 C32.5,-5.40625 32.2031,-6.79688 31.5,-8.09375"/>
<path class="" transform="matrix(0.659906,0,0,0.659906,113.465,308.32)" d="M31.5,-8.09375 C29.7031,-11.4063 25.9063,-13.2031 21.2969,-13.2031 C17.9063,-13.2031 14.2031,-12.2031 10.5938,-10.2969 C4,-6.79688 0,-0.90625 0,4.20313 C0,5.59375 0.296875,7 1,8.29688 C2.79688,11.5938 6.59375,13.2969 11.2031,13.2969 C14.5938,13.2969 18.2969,12.4063 21.9063,10.5 C28.5,7 32.5,1.09375 32.5,-4 C32.5,-5.40625 32.2031,-6.79688 31.5,-8.09375"/>
<path class="" transform="matrix(0.659906,0,0,0.659906,516.277,300.071)" d="M31.5,-8.09375 C29.7031,-11.4063 25.9063,-13.2031 21.2969,-13.2031 C17.9063,-13.2031 14.2031,-12.2031 10.5938,-10.2969 C4,-6.79688 0,-0.90625 0,4.20313 C0,5.59375 0.296875,7 1,8.29688 C2.79688,11.5938 6.59375,13.2969 11.2031,13.2969 C14.5938,13.2969 18.2969,12.4063 21.9063,10.5 C28.5,7 32.5,1.09375 32.5,-4 C32.5,-5.40625 32.2031,-6.79688 31.5,-8.09375"/>
<path class="" transform="matrix(0.659906,0,0,0.659906,113.465,291.822)" d="M31.5,-8.09375 C29.7031,-11.4063 25.9063,-13.2031 21.2969,-13.2031 C17.9063,-13.2031 14.2031,-12.2031 10.5938,-10.2969 C4,-6.79688 0,-0.90625 0,4.20313 C0,5.59375 0.296875,7 1,8.29688 C2.79688,11.5938 6.59375,13.2969 11.2031,13.2969 C14.5938,13.2969 18.2969,12.4063 21.9063,10.5 C28.5,7 32.5,1.09375 32.5,-4 C32.5,-5.40625 32.2031,-6.79688 31.5,-8.09375"/>
<path class="" transform="matrix(0.659906,0,0,0.659906,2595.5,154.279)" d="M31.5,-8.09375 C29.7031,-11.4063 25.9063,-13.2031 21.2969,-13.2031 C17.9063,-13.2031 14.2031,-12.2031 10.5938,-10.2969 C4,-6.79688 0,-0.90625 0,4.20313 C0,5.59375 0.296875,7 1,8.29688 C2.79688,11.5938 6.59375,13.2969 11.2031,13.2969 C14.5938,13.2969 18.2969,12.4063 21.9063,10.5 C28.5,7 32.5,1.09375 32.5,-4 C32.5,-5.40625 32.2031,-6.79688 31.5,-8.09375"/>
<path class="" transform="matrix(0.659906,0,0,0.659906,2648.07,96.5372)" d="M31.5,-8.09375 C29.7031,-11.4063 25.9063,-13.2031 21.2969,-13.2031 C17.9063,-13.2031 14.2031,-12.2031 10.5938,-10.2969 C4,-6.79688 0,-0.90625 0,4.20313 C0,5.59375 0.296875,7 1,8.29688 C2.79688,11.5938 6.59375,13.2969 11.2031,13.2969 C14.5938,13.2969 18.2969,12.4063 21.9063,10.5 C28.5,7 32.5,1.09375 32.5,-4 C32.5,-5.40625 32.2031,-6.79688 31.5,-8.09375"/>
<path class="" transform="matrix(0.659906,0,0,0.659906,2464.24,104.786)" d="M31.5,-8.09375 C29.7031,-11.4063 25.9063,-13.2031 21.2969,-13.2031 C17.9063,-13.2031 14.2031,-12.2031 10.5938,-10.2969 C4,-6.79688 0,-0.90625 0,4.20313 C0,5.59375 0.296875,7 1,8.29688 C2.79688,11.5938 6.59375,13.2969 11.2031,13.2969 C14.5938,13.2969 18.2969,12.4063 21.9063,10.5 C28.5,7 32.5,1.09375 32.5,-4 C32.5,-5.40625 32.2031,-6.79688 31.5,-8.09375"/>
<path class="" transform="matrix(0.659906,0,0,0.659906,2464.24,88.2884)" d="M31.5,-8.09375 C29.7031,-11.4063 25.9063,-13.2031 21.2969,-13.2031 C17.9063,-13.2031 14.2031,-12.2031 10.5938,-10.2969 C4,-6.79688 0,-0.90625 0,4.20313 C0,5.59375 0.296875,7 1,8.29688 C2.79688,11.5938 6.59375,13.2969 11.2031,13.2969 C14.5938,13.2969 18.2969,12.4063 21.9063,10.5 C28.5,7 32.5,1.09375 32.5,-4 C32.5,-5.40625 32.2031,-6.79688 31.5,-8.09375"/>
<path class="" transform="matrix(0.659906,0,0,0.659906,2464.24,71.7907)" d="M31.5,-8.09375 C29.7031,-11.4063 25.9063,-13.2031 21.2969,-13.2031 C17.9063,-13.2031 14.2031,-12.2031 10.5938,-10.2969 C4,-6.79688 0,-0.90625 0,4.20313 C0,5.59375 0.296875,7 1,8.29688 C2.79688,11.5938 6.59375,13.2969 11.2031,13.2969 C14.5938,13.2969 18.2969,12.4063 21.9063,10.5 C28.5,7 32.5,1.09375 32.5,-4 C32.5,-5.40625 32.2031,-6.79688 31.5,-8.09375"/>
<path class="" transform="matrix(0.659906,0,0,0.659906,2464.24,47.0443)" d="M31.5,-8.09375 C29.7031,-11.4063 25.9063,-13.2031 21.2969,-13.2031 C17.9063,-13.2031 14.2031,-12.2031 10.5938,-10.2969 C4,-6.79688 0,-0.90625 0,4.20313 C0,5.59375 0.296875,7 1,8.29688 C2.79688,11.5938 6.59375,13.2969 11.2031,13.2969 C14.5938,13.2969 18.2969,12.4063 21.9063,10.5 C28.5,7 32.5,1.09375 32.5,-4 C32.5,-5.40625 32.2031,-6.79688 31.5,-8.09375"/>
<path class="" transform="matrix(0.659906,0,0,0.659906,2361.52,162.528)" d="M31.5,-8.09375 C29.7031,-11.4063 25.9063,-13.2031 21.2969,-13.2031 C17.9063,-13.2031 14.2031,-12.2031 10.5938,-10.2969 C4,-6.79688 0,-0.90625 0,4.20313 C0,5.59375 0.296875,7 1,8.29688 C2.79688,11.5938 6.59375,13.2969 11.2031,13.2969 C14.5938,13.2969 18.2969,12.4063 21.9063,10.5 C28.5,7 32.5,1.09375 32.5,-4 C32.5,-5.40625 32.2031,-6.79688 31.5,-8.09375"/>
<path class="" transform="matrix(0.659906,0,0,0.659906,2361.52,146.03)" d="M31.5,-8.09375 C29.7031,-11.4063 25.9063,-13.2031 21.2969,-13.2031 C17.9063,-13.2031 14.2031,-12.2031 10.5938,-10.2969 C4,-6.79688 0,-0.90625 0,4.20313 C0,5.59375 0.296875,7 1,8.29688 C2.79688,11.5938 6.59375,13.2969 11.2031,13.2969 C14.5938,13.2969 18.2969,12.4063 21.9063,10.5 C28.5,7 32.5,1.09375 32.5,-4 C32.5,-5.40625 32.2031,-6.79688 31.5,-8.09375"/>
<path class="" transform="matrix(0.659906,0,0,0.659906,2361.52,129.532)" d="M31.5,-8.09375 C29.7031,-11.4063 25.9063,-13.2031 21.2969,-13.2031 C17.9063,-13.2031 14.2031,-12.2031 10.5938,-10.2969 C4,-6.79688 0,-0.90625 0,4.20313 C0,5.59375 0.296875,7 1,8.29688 C2.79688,11.5938 6.59375,13.2969 11.2031,13.2969 C14.5938,13.2969 18.2969,12.4063 21.9063,10.5 C28.5,7 32.5,1.09375 32.5,-4 C32.5,-5.40625 32.2031,-6.79688 31.5,-8.09375"/>
<path class="" transform="matrix(0.659906,0,0,0.659906,2361.52,104.786)" d="M31.5,-8.09375 C29.7031,-11.4063 25.9063,-13.2031 21.2969,-13.2031 C17.9063,-13.2031 14.2031,-12.2031 10.5938,-10.2969 C4,-6.79688 0,-0.90625 0,4.20313 C0,5.59375 0.296875,7 1,8.29688 C2.79688,11.5938 6.59375,13.2969 11.2031,13.2969 C14.5938,13.2969 18.2969,12.4063 21.9063,10.5 C28.5,7 32.5,1.09375 32.5,-4 C32.5,-5.40625 32.2031,-6.79688 31.5,-8.09375"/>
<path class="" transform="matrix(0.659906,0,0,0.659906,1922.09,179.025)" d="M31.5,-8.09375 C29.7031,-11.4063 25.9063,-13.2031 21.2969,-13.2031 C17.9063,-13.2031 14.2031,-12.2031 10.5938,-10.2969 C4,-6.79688 0,-0.90625 0,4.20313 C0,5.59375 0.296875,7 1,8.29688 C2.79688,11.5938 6.59375,13.2969 11.2031,13.2969 C14.5938,13.2969 18.2969,12.4063 21.9063,10.5 C28.5,7 32.5,1.09375 32.5,-4 C32.5,-5.40625 32.2031,-6.79688 31.5,-8.09375"/>
<path class="" transform="matrix(0.659906,0,0,0.659906,2024.81,121.284)" d="M31.5,-8.09375 C29.7031,-11.4063 25.9063,-13.2031 21.2969,-13.2031 C17.9063,-13.2031 14.2031,-12.2031 10.5938,-10.2969 C4,-6.79688 0,-0.90625 0,4.20313 C0,5.59375 0.296875,7 1,8.29688 C2.79688,11.5938 6.59375,13.2969 11.2031,13.2969 C14.5938,13.2969 18.2969,12.4063 21.9063,10.5 C28.5,7 32.5,1.09375 32.5,-4 C32.5,-5.40625 32.2031,-6.79688 31.5,-8.09375"/>
<path class="" transform="matrix(0.659906,0,0,0.659906,2024.81,96.5372)" d="M31.5,-8.09375 C29.7031,-11.4063 25.9063,-13.2031 21.2969,-13.2031 C17.9063,-13.2031 14.2031,-12.2031 10.5938,-10.2969 C4,-6.79688 0,-0.90625 0,4.20313 C0,5.59375 0.296875,7 1,8.29688 C2.79688,11.5938 6.59375,13.2969 11.2031,13.2969 C14.5938,13.2969 18.2969,12.4063 21.9063,10.5 C28.5,7 32.5,1.09375 32.5,-4 C32.5,-5.40625 32.2031,-6.79688 31.5,-8.09375"/>
<path class="" transform="matrix(0.659906,0,0,0.659906,2024.81,80.0396)" d="M31.5,-8.09375 C29.7031,-11.4063 25.9063,-13.2031 21.2969,-13.2031 C17.9063,-13.2031 14.2031,-12.2031 10.5938,-10.2969 C4,-6.79688 0,-0.90625 0,4.20313 C0,5.59375 0.296875,7 1,8.29688 C2.79688,11.5938 6.59375,13.2969 11.2031,13.2969 C14.5938,13.2969 18.2969,12.4063 21.9063,10.5 C28.5,7 32.5,1.09375 32.5,-4 C32.5,-5.40625 32.2031,-6.79688 31.5,-8.09375"/>
<path class="" transform="matrix(0.659906,0,0,0.659906,2024.81,63.5419)" d="M31.5,-8.09375 C29.7031,-11.4063 25.9063,-13.2031 21.2969,-13.2031 C17.9063,-13.2031 14.2031,-12.2031 10.5938,-10.2969 C4,-6.79688 0,-0.90625 0,4.20313 C0,5.59375 0.296875,7 1,8.29688 C2.79688,11.5938 6.59375,13.2969 11.2031,13.2969 C14.5938,13.2969 18.2969,12.4063 21.9063,10.5 C28.5,7 32.5,1.09375 32.5,-4 C32.5,-5.40625 32.2031,-6.79688 31.5,-8.09375"/>
<path class="" transform="matrix(0.659906,0,0,0.659906,1922.09,154.279)" d="M31.5,-8.09375 C29.7031,-11.4063 25.9063,-13.2031 21.2969,-13.2031 C17.9063,-13.2031 14.2031,-12.2031 10.5938,-10.2969 C4,-6.79688 0,-0.90625 0,4.20313 C0,5.59375 0.296875,7 1,8.29688 C2.79688,11.5938 6.59375,13.2969 11.2031,13.2969 C14.5938,13.2969 18.2969,12.4063 21.9063,10.5 C28.5,7 32.5,1.09375 32.5,-4 C32.5,-5.40625 32.2031,-6.79688 31.5,-8.09375"/>
<path class="" transform="matrix(0.659906,0,0,0.659906,1922.09,137.781)" d="M31.5,-8.09375 C29.7031,-11.4063 25.9063,-13.2031 21.2969,-13.2031 C17.9063,-13.2031 14.2031,-12.2031 10.5938,-10.2969 C4,-6.79688 0,-0.90625 0,4.20313 C0,5.59375 0.296875,7 1,8.29688 C2.79688,11.5938 6.59375,13.2969 11.2031,13.2969 C14.5938,13.2969 18.2969,12.4063 21.9063,10.5 C28.5,7 32.5,1.09375 32.5,-4 C32.5,-5.40625 32.2031,-6.79688 31.5,-8.09375"/>
<path class="" transform="matrix(0.659906,0,0,0.659906,1922.09,121.284)" d="M31.5,-8.09375 C29.7031,-11.4063 25.9063,-13.2031 21.2969,-13.2031 C17.9063,-13.2031 14.2031,-12.2031 10.5938,-10.2969 C4,-6.79688 0,-0.90625 0,4.20313 C0,5.59375 0.296875,7 1,8.29688 C2.79688,11.5938 6.59375,13.2969 11.2031,13.2969 C14.5938,13.2969 18.2969,12.4063 21.9063,10.5 C28.5,7 32.5,1.09375 32.5,-4 C32.5,-5.40625 32.2031,-6.79688 31.5,-8.09375"/>
<path class="" transform="matrix(0.659906,0,0,0.659906,1583.64,113.035)" d="M31.5,-8.09375 C29.7031,-11.4063 25.9063,-13.2031 21.2969,-13.2031 C17.9063,-13.2031 14.2031,-12.2031 10.5938,-10.2969 C4,-6.79688 0,-0.90625 0,4.20313 C0,5.59375 0.296875,7 1,8.29688 C2.79688,11.5938 6.59375,13.2969 11.2031,13.2969 C14.5938,13.2969 18.2969,12.4063 21.9063,10.5 C28.5,7 32.5,1.09375 32.5,-4 C32.5,-5.40625 32.2031,-6.79688 31.5,-8.09375"/>
<path class="" transform="matrix(0.659906,0,0,0.659906,1583.64,96.5372)" d="M31.5,-8.09375 C29.7031,-11.4063 25.9063,-13.2031 21.2969,-13.2031 C17.9063,-13.2031 14.2031,-12.2031 10.5938,-10.2969 C4,-6.79688 0,-0.90625 0,4.20313 C0,5.59375 0.296875,7 1,8.29688 C2.79688,11.5938 6.59375,13.2969 11.2031,13.2969 C14.5938,13.2969 18.2969,12.4063 21.9063,10.5 C28.5,7 32.5,1.09375 32.5,-4 C32.5,-5.40625 32.2031,-6.79688 31.5,-8.09375"/>
<path class="" transform="matrix(0.659906,0,0,0.659906,1583.64,71.7907)" d="M31.5,-8.09375 C29.7031,-11.4063 25.9063,-13.2031 21.2969,-13.2031 C17.9063,-13.2031 14.2031,-12.2031 10.5938,-10.2969 C4,-6.79688 0,-0.90625 0,4.20313 C0,5.59375 0.296875,7 1,8.29688 C2.79688,11.5938 6.59375,13.2969 11.2031,13.2969 C14.5938,13.2969 18.2969,12.4063 21.9063,10.5 C28.5,7 32.5,1.09375 32.5,-4 C32.5,-5.40625 32.2031,-6.79688 31.5,-8.09375"/>
<path class="" transform="matrix(0.659906,0,0,0.659906,1583.64,55.2931)" d="M31.5,-8.09375 C29.7031,-11.4063 25.9063,-13.2031 21.2969,-13.2031 C17.9063,-13.2031 14.2031,-12.2031 10.5938,-10.2969 C4,-6.79688 0,-0.90625 0,4.20313 C0,5.59375 0.296875,7 1,8.29688 C2.79688,11.5938 6.59375,13.2969 11.2031,13.2969 C14.5938,13.2969 18.2969,12.4063 21.9063,10.5 C28.5,7 32.5,1.09375 32.5,-4 C32.5,-5.40625 32.2031,-6.79688 31.5,-8.09375"/>
<path class="" transform="matrix(0.659906,0,0,0.659906,1479.19,170.777)" d="M31.5,-8.09375 C29.7031,-11.4063 25.9063,-13.2031 21.2969,-13.2031 C17.9063,-13.2031 14.2031,-12.2031 10.5938,-10.2969 C4,-6.79688 0,-0.90625 0,4.20313 C0,5.59375 0.296875,7 1,8.29688 C2.79688,11.5938 6.59375,13.2969 11.2031,13.2969 C14.5938,13.2969 18.2969,12.4063 21.9063,10.5 C28.5,7 32.5,1.09375 32.5,-4 C32.5,-5.40625 32.2031,-6.79688 31.5,-8.09375"/>
<path class="" transform="matrix(0.659906,0,0,0.659906,1479.19,154.279)" d="M31.5,-8.09375 C29.7031,-11.4063 25.9063,-13.2031 21.2969,-13.2031 C17.9063,-13.2031 14.2031,-12.2031 10.5938,-10.2969 C4,-6.79688 0,-0.90625 0,4.20313 C0,5.59375 0.296875,7 1,8.29688 C2.79688,11.5938 6.59375,13.2969 11.2031,13.2969 C14.5938,13.2969 18.2969,12.4063 21.9063,10.5 C28.5,7 32.5,1.09375 32.5,-4 C32.5,-5.40625 32.2031,-6.79688 31.5,-8.09375"/>
<path class="" transform="matrix(0.659906,0,0,0.659906,1479.19,129.532)" d="M31.5,-8.09375 C29.7031,-11.4063 25.9063,-13.2031 21.2969,-13.2031 C17.9063,-13.2031 14.2031,-12.2031 10.5938,-10.2969 C4,-6.79688 0,-0.90625 0,4.20313 C0,5.59375 0.296875,7 1,8.29688 C2.79688,11.5938 6.59375,13.2969 11.2031,13.2969 C14.5938,13.2969 18.2969,12.4063 21.9063,10.5 C28.5,7 32.5,1.09375 32.5,-4 C32.5,-5.40625 32.2031,-6.79688 31.5,-8.09375"/>
<path class="" transform="matrix(0.659906,0,0,0.659906,1479.19,113.035)" d="M31.5,-8.09375 C29.7031,-11.4063 25.9063,-13.2031 21.2969,-13.2031 C17.9063,-13.2031 14.2031,-12.2031 10.5938,-10.2969 C4,-6.79688 0,-0.90625 0,4.20313 C0,5.59375 0.296875,7 1,8.29688 C2.79688,11.5938 6.59375,13.2969 11.2031,13.2969 C14.5938,13.2969 18.2969,12.4063 21.9063,10.5 C28.5,7 32.5,1.09375 32.5,-4 C32.5,-5.40625 32.2031,-6.79688 31.5,-8.09375"/>
<path class="" transform="matrix(0.659906,0,0,0.659906,620.241,38.7955)" d="M31.5,-8.09375 C29.7031,-11.4063 25.9063,-13.2031 21.2969,-13.2031 C17.9063,-13.2031 14.2031,-12.2031 10.5938,-10.2969 C4,-6.79688 0,-0.90625 0,4.20313 C0,5.59375 0.296875,7 1,8.29688 C2.79688,11.5938 6.59375,13.2969 11.2031,13.2969 C14.5938,13.2969 18.2969,12.4063 21.9063,10.5 C28.5,7 32.5,1.09375 32.5,-4 C32.5,-5.40625 32.2031,-6.79688 31.5,-8.09375"/>
<path class="" transform="matrix(0.659906,0,0,0.659906,516.277,154.279)" d="M31.5,-8.09375 C29.7031,-11.4063 25.9063,-13.2031 21.2969,-13.2031 C17.9063,-13.2031 14.2031,-12.2031 10.5938,-10.2969 C4,-6.79688 0,-0.90625 0,4.20313 C0,5.59375 0.296875,7 1,8.29688 C2.79688,11.5938 6.59375,13.2969 11.2031,13.2969 C14.5938,13.2969 18.2969,12.4063 21.9063,10.5 C28.5,7 32.5,1.09375 32.5,-4 C32.5,-5.40625 32.2031,-6.79688 31.5,-8.09375"/>
<path class="" transform="matrix(0.659906,0,0,0.659906,217.429,63.5419)" d="M31.5,-8.09375 C29.7031,-11.4063 25.9063,-13.2031 21.2969,-13.2031 C17.9063,-13.2031 14.2031,-12.2031 10.5938,-10.2969 C4,-6.79688 0,-0.90625 0,4.20313 C0,5.59375 0.296875,7 1,8.29688 C2.79688,11.5938 6.59375,13.2969 11.2031,13.2969 C14.5938,13.2969 18.2969,12.4063 21.9063,10.5 C28.5,7 32.5,1.09375 32.5,-4 C32.5,-5.40625 32.2031,-6.79688 31.5,-8.09375"/>
<path class="" transform="matrix(0.659906,0,0,0.659906,113.465,162.528)" d="M31.5,-8.09375 C29.7031,-11.4063 25.9063,-13.2031 21.2969,-13.2031 C17.9063,-13.2031 14.2031,-12.2031 10.5938,-10.2969 C4,-6.79688 0,-0.90625 0,4.20313 C0,5.59375 0.296875,7 1,8.29688 C2.79688,11.5938 6.59375,13.2969 11.2031,13.2969 C14.5938,13.2969 18.2969,12.4063 21.9063,10.5 C28.5,7 32.5,1.09375 32.5,-4 C32.5,-5.40625 32.2031,-6.79688 31.5,-8.09375"/>
<path class="" transform="matrix(0.659906,0,0,0.659906,24.2232,291.822)" d="M25.4063,-25.0938 C17.7969,-25.0938 11.7031,-20.7031 11.5938,-20.7031 C5.79688,-16.4063 3.5,-11.2969 2.59375,-7.79688 C2.09375,-6 1.90625,-4.20313 1.90625,-2.5 C1.90625,-0.09375 2.29688,2.09375 3.20313,4 C4.40625,6.70313 6.70313,8.59375 9.70313,9.59375 C10.9063,10 12.2031,10.2031 13.5,10.2031 C15.7031,10.2031 18,9.59375 19.9063,8.5 C23,6.79688 24.9063,3.20313 24.9063,-0.703125 C24.9063,-4.20313 23.0938,-7.40625 20.0938,-9.29688 C18,-10.7031 16,-11.0938 14.2969,-11.0938 C13.0938,-11.0938 12,-10.9063 11.0938,-10.5938 C10.0938,-10.2031 8.40625,-9.20313 7.59375,-8.5 C7.90625,-10.4063 9.09375,-13.2969 10.2031,-14.9063 C11.2969,-16.5 13.5,-18.5 15.2031,-19.4063 C17.7031,-20.7969 20.9063,-21.4063 24.4063,-21.4063 C34.6094,-21.4063 39.6094,-13.2031 39.6094,3.59375 C39.6094,12.9063 36.1094,21.7969 33.1094,27.7031 C29.7969,34.2969 25.4063,40.6094 21.5,44.1094 C11.0938,53.6094 1.29688,58.1094 1.20313,58.1094 C1.20313,58.1094 -0.296875,59 0.09375,60.5 C0.40625,61.5 1.29688,61.7031 1.90625,61.7031 C2,61.7031 2.29688,61.6094 2.40625,61.6094 C2.5,61.6094 13.9063,56.9063 23,49.7969 C28.1094,46.1094 32.7031,42.1094 36.7031,37.7969 C40.2969,33.9063 43.4063,29.7031 45.9063,25.5 C50.2969,18 52.7969,10.2031 52.7969,3.5 C52.7969,-4.79688 50.6094,-11.7031 46.5,-16.5938 C41.7969,-22.2031 34.7031,-25.0938 25.4063,-25.0938 M56.7969,-12.4063 C56.7969,-9.59375 59,-7.40625 61.6094,-7.40625 C64.2031,-7.40625 66.4063,-9.59375 66.4063,-12.4063 C66.4063,-15.2031 64.2031,-17.5 61.6094,-17.5 C59,-17.5 56.7969,-15.2031 56.7969,-12.4063 M56.7969,12.2969 C56.7969,15.0938 59,17.4063 61.6094,17.4063 C64.2031,17.4063 66.4063,15.0938 66.4063,12.2969 C66.4063,9.5 64.2031,7.20313 61.6094,7.20313 C59,7.20313 56.7969,9.5 56.7969,12.2969"/>
<path class="" transform="matrix(0.659906,0,0,0.659906,24.2232,121.284)" d="M63.3594,-5.92188 C62.125,-11.3438 59.4844,-15.1719 58.7031,-16.2031 C55.5156,-20.4844 51.5,-23.3281 46.8125,-24.6875 C43.7031,-25.5625 40.7031,-25.6875 38.2813,-25.5 C37.2344,-31.5156 36.2344,-37.3906 35.3281,-42.8438 C40.7813,-49.0156 44.4063,-54.8125 46.6875,-59.1094 C50.1563,-65.6875 51.2969,-70.2656 51.3594,-70.4688 C53.0781,-75.6875 53.4375,-83.3906 52.3281,-91.5938 C51.3281,-99.1406 49.2344,-105.859 46.875,-109.109 C45.8594,-110.531 44.7969,-111.266 43.7656,-111.266 C42.5469,-111.266 40.0313,-110.031 37.1406,-107.25 C34.8438,-105.063 31.5781,-101.172 29.0156,-95.1563 C26.0156,-88.0938 25.7969,-78.6094 26.1563,-71.8906 C26.5313,-64.6094 27.6406,-58.9219 27.6563,-58.875 C27.6719,-58.7813 27.9375,-57.2813 28.375,-54.7188 C28.1563,-54.4844 27.9063,-54.2656 27.6563,-54.0156 C26.625,-53.0156 25.4375,-51.8906 24.0469,-50.5 C23.1875,-49.6406 22.2344,-48.7344 21.2344,-47.7656 C12.7969,-39.625 0,-27.2969 0,-8.14063 C0,-3.4375 0.90625,0.984375 2.6875,5 C4.26563,8.59375 6.5625,11.875 9.5,14.75 C17.2344,22.3125 27.8281,25.5156 34.875,25.3594 C37.8281,25.2813 40.4688,25.0469 42.8594,24.5938 C44.6875,34.2031 45.8281,41.2344 45.8594,46.5781 C45.9063,53.0938 44.25,57.0781 40.3594,59.8438 C37.9219,61.5781 35.1094,62.5313 32.0156,62.6719 C29.4219,62.7969 27.1563,62.3281 25.7344,61.9219 L25.7188,61.9219 C25.7188,61.9219 25.4375,61.8281 25.4219,61.6406 C25.4063,61.4531 25.7656,61.4063 25.7656,61.4063 L25.7969,61.4063 C27.7188,60.9688 31.2813,59.7344 33.6406,56.4375 C35.4375,53.9063 36.3125,49.2813 34.4688,45.3438 C33.3594,42.9531 30.8594,40 25.2344,39.5469 C22.7344,39.3438 20.4688,39.8594 18.4688,41.0625 C16.6563,42.1406 15.1563,43.7813 14.1094,45.7813 C11.6563,50.4844 12.1094,56.2188 15.2344,60.0625 C18.2031,63.6875 22.8125,66 28.25,66.5781 C29.1094,66.6719 29.9531,66.7031 30.7969,66.7031 C35.2344,66.7031 39.625,65.5 43.2031,63.2969 C46.8594,60.7188 48.9844,56.7344 49.6563,51.1094 C50.2188,46.4688 49.8281,40.5469 48.4375,32.4688 C48.0781,30.375 47.5313,27.3438 46.875,23.5938 C52.625,21.6719 56.7813,18.0938 60.5469,12.2344 C63.8438,6.5 64.7813,0.390625 63.3594,-5.92188 M29.1406,20.2969 C24.5,19.0781 20.0625,16.5781 16.3125,13.0625 C15,11.8438 13.125,9.67188 11.6563,6.28125 C10.2969,3.10938 9.625,-0.328125 9.6875,-3.90625 C9.75,-8.60938 11.0625,-13.4375 13.5625,-18.2188 C16.4844,-23.7969 21.0469,-29.3281 27.1094,-34.6563 C28.5625,-35.9375 29.9375,-37.2188 31.2188,-38.5 C31.9844,-34.2344 32.8125,-29.5469 33.6875,-24.6719 C29.8438,-23.4063 25.0938,-20.25 21.9844,-14.5938 C18.4375,-8.03125 18.5781,-2.5 19.3125,0.984375 C20.25,5.4375 22.7813,9.20313 26.2344,11.2969 C27.1719,11.8594 31.2969,13.9844 33.1406,13.4063 C33.5156,13.2969 33.7813,13.0625 33.9219,12.7344 C34.4375,11.5625 33.4063,10.9219 31.8594,9.96875 C31.25,9.59375 30.5781,9.17188 29.8594,8.64063 C26.5313,6.15625 25.0781,1.70313 26.1563,-2.6875 C26.7344,-5.07813 28.0156,-7.25 29.8594,-8.95313 C31.5156,-10.5 33.5625,-11.5938 35.9375,-12.2344 C37.9844,-0.984375 40.0469,10.1719 41.6875,18.5313 C41.8125,19.2188 41.9531,19.8906 42.0781,20.5625 C37.7031,21.5 33.3594,21.4063 29.1406,20.2969 M40.4688,-12.9063 C50.8125,-13.375 55.0781,-5.9375 55.9688,-1.10938 C56.4375,1.4375 56.4375,5.875 54.8906,10.0938 C53.7188,13.2656 51.2656,17.3438 46.125,19.4063 C46.0625,18.9844 45.9844,18.5469 45.9063,18.125 C44.3594,9.34375 42.4219,-1.65625 40.4688,-12.9063 M33.1406,-83.8594 C34.9219,-89.5938 37.6563,-92.8438 39.6563,-94.5781 C41.4063,-96.0938 43.0469,-96.8125 43.9688,-96.8125 C44.1094,-96.8125 44.2344,-96.7813 44.3281,-96.75 C44.7969,-96.6094 45.3281,-96.0469 45.7969,-95.1719 C48.1094,-90.8906 47.3594,-84.1719 46.0156,-79.7344 C44.3906,-74.3281 41.4688,-68.7188 32.6719,-59.1094 C32.5,-60.2188 32.3438,-61.2656 32.1875,-62.25 C30.9375,-70.5313 31.2656,-77.8125 33.1406,-83.8594"/>
<path class="" transform="matrix(0.659906,0,0,0.659906,2361.52,308.32)" d="M0,-11.7969 L0,-1 C0,0.40625 0,0.40625 1.40625,0.40625 L31.1094,0.40625 C32.5,0.40625 32.5,0.40625 32.5,-1 L32.5,-11.7969 C32.5,-13.2031 32.5,-13.2031 31.1094,-13.2031 L1.40625,-13.2031 C0,-13.2031 0,-13.2031 0,-11.7969"/>
<path class="" transform="matrix(0.659906,0,0,0.659906,1922.09,308.32)" d="M0,-11.7969 L0,-1 C0,0.40625 0,0.40625 1.40625,0.40625 L31.1094,0.40625 C32.5,0.40625 32.5,0.40625 32.5,-1 L32.5,-11.7969 C32.5,-13.2031 32.5,-13.2031 31.1094,-13.2031 L1.40625,-13.2031 C0,-13.2031 0,-13.2031 0,-11.7969"/>
<path class="" transform="matrix(0.659906,0,0,0.659906,1479.19,308.32)" d="M0,-11.7969 L0,-1 C0,0.40625 0,0.40625 1.40625,0.40625 L31.1094,0.40625 C32.5,0.40625 32.5,0.40625 32.5,-1 L32.5,-11.7969 C32.5,-13.2031 32.5,-13.2031 31.1094,-13.2031 L1.40625,-13.2031 C0,-13.2031 0,-13.2031 0,-11.7969"/>
<path class="" transform="matrix(0.659906,0,0,0.659906,724.205,308.32)" d="M0,-11.7969 L0,-1 C0,0.40625 0,0.40625 1.40625,0.40625 L31.1094,0.40625 C32.5,0.40625 32.5,0.40625 32.5,-1 L32.5,-11.7969 C32.5,-13.2031 32.5,-13.2031 31.1094,-13.2031 L1.40625,-13.2031 C0,-13.2031 0,-13.2031 0,-11.7969"/>
<path class="" transform="matrix(0.659906,0,0,0.659906,913.315,291.822)" d="M31.1094,-0.5 L1.40625,-0.5 C0.59375,-0.5 0,0.09375 0,0.90625 L0,11.7031 C0,12.5 0.59375,13.0938 1.40625,13.0938 L31.1094,13.0938 C31.9063,13.0938 32.5,12.5 32.5,11.7031 L32.5,0.90625 C32.5,0.09375 31.9063,-0.5 31.1094,-0.5"/>
<path class="" transform="matrix(0.659906,0,0,0.659906,620.241,308.32)" d="M23.2031,16.9063 L23,16.5938 C22.9063,16.5 22.7031,16.2969 22.4063,15.9063 L10.9063,1.70313 C10.5938,1.40625 10.7031,0.59375 10.9063,0.203125 L21.0938,-15.2031 C21.2031,-15.4063 21.2969,-15.7031 21.2969,-15.9063 L21.2969,-16.7969 C21.2969,-17.0938 21.2031,-17.4063 21,-17.5938 L4.79688,-39.5 C4.79688,-39.5 4,-40.7031 3,-39.7969 C2,-39 2.79688,-37.7031 2.79688,-37.7031 L10.4063,-27.2969 C10.7969,-26.7031 10.7969,-25.5 10.4063,-24.9063 L0.296875,-9.5 C0.203125,-9.29688 0.09375,-8.90625 0.09375,-8.70313 L0.09375,-7.79688 C0.09375,-7.5 0.203125,-7.20313 0.40625,-7 L11.5938,6.90625 C11.2031,6.79688 10.2969,6.59375 9.09375,6.59375 C7.40625,6.59375 5.20313,7 3.40625,8.59375 C1.20313,10.5938 0,13.4063 0,15.9063 C0,17.2969 0.296875,18.7031 1.09375,19.7969 C3.20313,23 10.7031,32.5 10.7031,32.5 C10.7031,32.5 11.5938,33.6094 12.5,32.9063 C13.4063,32.2031 13.2031,31.2969 12.9063,30.7969 C12.5938,30.2969 9.40625,24.5 9.40625,24.5 C9.40625,24.5 8.70313,23.0938 8.70313,21.2969 C8.70313,20 9.09375,18.4063 10.4063,17.0938 C11.5938,15.9063 13,15.5 14.2969,15.5 C15.5938,15.5 16.7031,15.9063 17.5,16.4063 L21.4063,18.9063 C21.4063,18.9063 22.5938,19.5 23.2031,18.5938 C23.7031,17.7969 23.5,17.4063 23.2031,16.9063"/>
<path class="" transform="matrix(0.659906,0,0,0.659906,321.393,308.32)" d="M0,-11.7969 L0,-1 C0,0.40625 0,0.40625 1.40625,0.40625 L31.1094,0.40625 C32.5,0.40625 32.5,0.40625 32.5,-1 L32.5,-11.7969 C32.5,-13.2031 32.5,-13.2031 31.1094,-13.2031 L1.40625,-13.2031 C0,-13.2031 0,-13.2031 0,-11.7969"/>
<path class="" transform="matrix(0.659906,0,0,0.659906,217.429,308.32)" d="M23.2031,16.9063 L23,16.5938 C22.9063,16.5 22.7031,16.2969 22.4063,15.9063 L10.9063,1.70313 C10.5938,1.40625 10.7031,0.59375 10.9063,0.203125 L21.0938,-15.2031 C21.2031,-15.4063 21.2969,-15.7031 21.2969,-15.9063 L21.2969,-16.7969 C21.2969,-17.0938 21.2031,-17.4063 21,-17.5938 L4.79688,-39.5 C4.79688,-39.5 4,-40.7031 3,-39.7969 C2,-39 2.79688,-37.7031 2.79688,-37.7031 L10.4063,-27.2969 C10.7969,-26.7031 10.7969,-25.5 10.4063,-24.9063 L0.296875,-9.5 C0.203125,-9.29688 0.09375,-8.90625 0.09375,-8.70313 L0.09375,-7.79688 C0.09375,-7.5 0.203125,-7.20313 0.40625,-7 L11.5938,6.90625 C11.2031,6.79688 10.2969,6.59375 9.09375,6.59375 C7.40625,6.59375 5.20313,7 3.40625,8.59375 C1.20313,10.5938 0,13.4063 0,15.9063 C0,17.2969 0.296875,18.7031 1.09375,19.7969 C3.20313,23 10.7031,32.5 10.7031,32.5 C10.7031,32.5 11.5938,33.6094 12.5,32.9063 C13.4063,32.2031 13.2031,31.2969 12.9063,30.7969 C12.5938,30.2969 9.40625,24.5 9.40625,24.5 C9.40625,24.5 8.70313,23.0938 8.70313,21.2969 C8.70313,20 9.09375,18.4063 10.4063,17.0938 C11.5938,15.9063 13,15.5 14.2969,15.5 C15.5938,15.5 16.7031,15.9063 17.5,16.4063 L21.4063,18.9063 C21.4063,18.9063 22.5938,19.5 23.2031,18.5938 C23.7031,17.7969 23.5,17.4063 23.2031,16.9063"/>
<path class="" transform="matrix(0.659906,0,0,0.659906,2156.07,104.786)" d="M0,-11.7969 L0,-1 C0,0.40625 0,0.40625 1.40625,0.40625 L31.1094,0.40625 C32.5,0.40625 32.5,0.40625 32.5,-1 L32.5,-11.7969 C32.5,-13.2031 32.5,-13.2031 31.1094,-13.2031 L1.40625,-13.2031 C0,-13.2031 0,-13.2031 0,-11.7969"/>
<path class="" transform="matrix(0.659906,0,0,0.659906,1716.64,104.786)" d="M0,-11.7969 L0,-1 C0,0.40625 0,0.40625 1.40625,0.40625 L31.1094,0.40625 C32.5,0.40625 32.5,0.40625 32.5,-1 L32.5,-11.7969 C32.5,-13.2031 32.5,-13.2031 31.1094,-13.2031 L1.40625,-13.2031 C0,-13.2031 0,-13.2031 0,-11.7969"/>
<path class="" transform="matrix(0.659906,0,0,0.659906,1270.28,104.786)" d="M0,-11.7969 L0,-1 C0,0.40625 0,0.40625 1.40625,0.40625 L31.1094,0.40625 C32.5,0.40625 32.5,0.40625 32.5,-1 L32.5,-11.7969 C32.5,-13.2031 32.5,-13.2031 31.1094,-13.2031 L1.40625,-13.2031 C0,-13.2031 0,-13.2031 0,-11.7969"/>
<path class="" transform="matrix(0.659906,0,0,0.659906,913.315,88.2884)" d="M31.1094,-0.5 L1.40625,-0.5 C0.59375,-0.5 0,0.09375 0,0.90625 L0,11.7031 C0,12.5 0.59375,13.0938 1.40625,13.0938 L31.1094,13.0938 C31.9063,13.0938 32.5,12.5 32.5,11.7031 L32.5,0.90625 C32.5,0.09375 31.9063,-0.5 31.1094,-0.5"/>
<path class="" transform="matrix(0.659906,0,0,0.659906,724.205,104.786)" d="M0,-11.7969 L0,-1 C0,0.40625 0,0.40625 1.40625,0.40625 L31.1094,0.40625 C32.5,0.40625 32.5,0.40625 32.5,-1 L32.5,-11.7969 C32.5,-13.2031 32.5,-13.2031 31.1094,-13.2031 L1.40625,-13.2031 C0,-13.2031 0,-13.2031 0,-11.7969"/>
<path class="" transform="matrix(0.659906,0,0,0.659906,321.393,104.786)" d="M0,-11.7969 L0,-1 C0,0.40625 0,0.40625 1.40625,0.40625 L31.1094,0.40625 C32.5,0.40625 32.5,0.40625 32.5,-1 L32.5,-11.7969 C32.5,-13.2031 32.5,-13.2031 31.1094,-13.2031 L1.40625,-13.2031 C0,-13.2031 0,-13.2031 0,-11.7969"/>
<path class="" transform="matrix(0.659906,0,0,0.659906,628.395,24.8704)" d="M1.14063,-1.14063 C2.67188,0.390625 5.14063,0.390625 6.65625,-1.14063 C8.1875,-2.65625 8.1875,-5.125 6.65625,-6.65625 C5.14063,-8.17188 2.67188,-8.17188 1.14063,-6.65625 C-0.375,-5.125 -0.375,-2.65625 1.14063,-1.14063"/>
<path class="" transform="matrix(0.659906,0,0,0.659906,524.43,168.204)" d="M1.14063,6.67188 C2.67188,8.1875 5.14063,8.1875 6.65625,6.67188 C8.1875,5.14063 8.1875,2.67188 6.65625,1.15625 C5.14063,-0.375 2.67188,-0.375 1.14063,1.15625 C-0.375,2.67188 -0.375,5.14063 1.14063,6.67188"/>
<path class="" transform="matrix(0.659906,0,0,0.659906,225.583,49.6169)" d="M1.14063,-1.14063 C2.67188,0.390625 5.14063,0.390625 6.65625,-1.14063 C8.1875,-2.65625 8.1875,-5.125 6.65625,-6.65625 C5.14063,-8.17188 2.67188,-8.17188 1.14063,-6.65625 C-0.375,-5.125 -0.375,-2.65625 1.14063,-1.14063"/>
<path class="" transform="matrix(0.659906,0,0,0.659906,121.619,176.453)" d="M1.14063,6.67188 C2.67188,8.1875 5.14063,8.1875 6.65625,6.67188 C8.1875,5.14063 8.1875,2.67188 6.65625,1.15625 C5.14063,-0.375 2.67188,-0.375 1.14063,1.15625 C-0.375,2.67188 -0.375,5.14063 1.14063,6.67188"/>
<path class="" d="M2603,183.515 L2603.07,183.296 C2604.97,176.249 2605.55,175.03 2606.57,174.233 C2607.07,173.843 2607.53,173.733 2607.86,173.733 C2608,173.733 2608.14,173.733 2608.25,173.765 C2608.58,173.843 2608.83,174.046 2608.94,174.311 C2608.97,174.452 2609,174.561 2609,174.702 C2609,175.03 2608.86,175.343 2608.61,175.499 C2607.93,176.061 2607.53,176.858 2607.53,177.796 C2607.53,178.124 2607.57,178.483 2607.68,178.796 C2607.86,179.452 2608.39,180.03 2609.11,180.358 C2609.41,180.499 2609.8,180.608 2610.3,180.608 C2610.8,180.608 2611.35,180.499 2611.99,180.14 C2612.82,179.702 2613.36,179.015 2613.61,178.155 C2613.72,177.796 2613.75,177.405 2613.75,176.999 C2613.75,176.14 2613.5,175.202 2613.08,174.405 C2612.5,173.405 2610.91,172.186 2608.72,171.827 C2608.36,171.749 2608,171.718 2607.57,171.718 C2605.91,171.718 2603.72,172.28 2601.49,174.343 C2599.72,175.952 2598.18,178.905 2596.66,183.405 L2596.6,183.515 L2591.44,183.515 C2591.05,183.515 2590.72,183.843 2590.72,184.233 L2590.72,185.718 C2590.72,186.108 2591.05,186.436 2591.44,186.436 L2595.69,186.436 L2595.66,186.655 C2594.97,189.343 2594.43,191.765 2593.93,194.03 C2593.35,196.593 2592.77,199.171 2591.99,202.343 L2591.77,203.171 C2590.33,208.78 2589.86,210.796 2588.21,211.89 C2587.88,212.093 2587.44,212.249 2587.05,212.249 C2586.69,212.249 2586.36,212.14 2586.11,211.921 C2585.94,211.78 2585.72,211.483 2585.75,211.124 C2585.78,210.843 2586,210.624 2586.33,210.483 C2587.66,209.936 2588.02,208.64 2588.02,207.561 C2588.02,206.593 2587.41,204.827 2584.93,204.827 C2583.1,204.827 2581.33,206.561 2581.33,208.39 C2581.33,211.983 2583.82,213.968 2586.94,213.968 C2589.14,213.968 2590.72,213.28 2592.46,211.561 C2595.44,208.577 2598.68,198.311 2600.36,192.483 C2600.99,190.327 2601.63,188.124 2602.1,186.546 L2602.13,186.436 L2612.75,186.436 L2612.72,186.655 C2612.03,189.39 2611.49,191.765 2610.99,194.03 C2610.41,196.593 2609.83,199.171 2609.05,202.343 L2608.83,203.171 C2607.39,208.78 2606.96,210.796 2605.3,211.89 C2604.97,212.093 2604.55,212.249 2604.11,212.249 C2603.75,212.249 2603.43,212.14 2603.18,211.921 C2603,211.78 2602.74,211.483 2602.82,211.124 C2602.85,210.843 2603.07,210.624 2603.39,210.483 C2604.72,209.936 2605.11,208.64 2605.11,207.561 C2605.11,206.593 2604.47,204.827 2601.99,204.827 C2600.16,204.827 2598.43,206.593 2598.43,208.421 C2598.43,212.03 2600.88,213.968 2604,213.968 C2606.21,213.968 2607.78,213.28 2609.52,211.561 C2612.5,208.53 2615.77,198.311 2617.47,192.483 C2618.08,190.327 2618.72,188.124 2619.19,186.546 L2619.24,186.436 L2624.16,186.436 C2624.55,186.436 2624.85,186.108 2624.85,185.718 L2624.85,184.233 C2624.85,183.843 2624.55,183.515 2624.16,183.515 L2620.07,183.515 L2620.13,183.296 C2622.03,176.249 2622.61,175.03 2623.63,174.233 C2624.13,173.843 2624.6,173.733 2624.93,173.733 C2625.07,173.733 2625.21,173.733 2625.32,173.765 C2625.64,173.843 2625.89,174.046 2626,174.311 C2626.03,174.452 2626.07,174.561 2626.07,174.702 C2626.07,175.03 2625.93,175.343 2625.68,175.499 C2624.99,176.061 2624.6,176.858 2624.6,177.796 C2624.6,178.124 2624.63,178.483 2624.74,178.796 C2624.93,179.452 2625.46,180.03 2626.18,180.358 C2626.47,180.499 2626.86,180.608 2627.36,180.608 C2627.86,180.608 2628.41,180.499 2629.05,180.14 C2629.88,179.702 2630.43,179.015 2630.68,178.155 C2630.78,177.796 2630.82,177.405 2630.82,176.999 C2630.82,176.14 2630.57,175.202 2630.14,174.405 C2629.57,173.405 2627.97,172.186 2625.78,171.827 C2625.43,171.749 2625.07,171.718 2624.63,171.718 C2622.97,171.718 2620.78,172.28 2618.55,174.343 C2616.78,175.952 2615.24,178.905 2613.72,183.405 L2613.64,183.515 L2603,183.515 "/>
<path class="" d="M1277.78,162.104 L1277.85,161.885 C1279.75,154.838 1280.33,153.619 1281.35,152.822 C1281.85,152.432 1282.31,152.322 1282.64,152.322 C1282.78,152.322 1282.92,152.322 1283.03,152.354 C1283.36,152.432 1283.61,152.635 1283.72,152.9 C1283.75,153.041 1283.78,153.15 1283.78,153.291 C1283.78,153.619 1283.64,153.932 1283.39,154.088 C1282.7,154.65 1282.31,155.447 1282.31,156.385 C1282.31,156.713 1282.35,157.072 1282.45,157.385 C1282.64,158.041 1283.17,158.619 1283.89,158.947 C1284.19,159.088 1284.58,159.197 1285.08,159.197 C1285.58,159.197 1286.13,159.088 1286.77,158.729 C1287.6,158.291 1288.14,157.604 1288.39,156.744 C1288.5,156.385 1288.53,155.994 1288.53,155.588 C1288.53,154.729 1288.28,153.791 1287.86,152.994 C1287.28,151.994 1285.69,150.775 1283.5,150.416 C1283.14,150.338 1282.78,150.307 1282.35,150.307 C1280.69,150.307 1278.5,150.869 1276.27,152.932 C1274.5,154.541 1272.95,157.494 1271.44,161.994 L1271.38,162.104 L1266.22,162.104 C1265.83,162.104 1265.5,162.432 1265.5,162.822 L1265.5,164.307 C1265.5,164.697 1265.83,165.025 1266.22,165.025 L1270.47,165.025 L1270.44,165.244 C1269.75,167.932 1269.2,170.354 1268.7,172.619 C1268.13,175.182 1267.55,177.76 1266.77,180.932 L1266.55,181.76 C1265.11,187.369 1264.64,189.385 1262.99,190.479 C1262.66,190.682 1262.22,190.838 1261.83,190.838 C1261.47,190.838 1261.14,190.729 1260.89,190.51 C1260.72,190.369 1260.5,190.072 1260.53,189.713 C1260.56,189.432 1260.78,189.213 1261.11,189.072 C1262.44,188.525 1262.8,187.229 1262.8,186.15 C1262.8,185.182 1262.19,183.416 1259.7,183.416 C1257.88,183.416 1256.11,185.15 1256.11,186.979 C1256.11,190.572 1258.6,192.557 1261.72,192.557 C1263.92,192.557 1265.5,191.869 1267.24,190.15 C1270.22,187.166 1273.45,176.9 1275.14,171.072 C1275.77,168.916 1276.41,166.713 1276.88,165.135 L1276.91,165.025 L1287.53,165.025 L1287.5,165.244 C1286.81,167.979 1286.27,170.354 1285.77,172.619 C1285.19,175.182 1284.61,177.76 1283.83,180.932 L1283.61,181.76 C1282.17,187.369 1281.74,189.385 1280.08,190.479 C1279.75,190.682 1279.33,190.838 1278.89,190.838 C1278.53,190.838 1278.2,190.729 1277.95,190.51 C1277.78,190.369 1277.52,190.072 1277.6,189.713 C1277.63,189.432 1277.85,189.213 1278.17,189.072 C1279.5,188.525 1279.89,187.229 1279.89,186.15 C1279.89,185.182 1279.25,183.416 1276.77,183.416 C1274.94,183.416 1273.2,185.182 1273.2,187.01 C1273.2,190.619 1275.66,192.557 1278.78,192.557 C1280.99,192.557 1282.56,191.869 1284.3,190.15 C1287.28,187.119 1290.55,176.9 1292.25,171.072 C1292.86,168.916 1293.5,166.713 1293.97,165.135 L1294.02,165.025 L1298.94,165.025 C1299.33,165.025 1299.63,164.697 1299.63,164.307 L1299.63,162.822 C1299.63,162.432 1299.33,162.104 1298.94,162.104 L1294.85,162.104 L1294.91,161.885 C1296.81,154.838 1297.39,153.619 1298.41,152.822 C1298.91,152.432 1299.38,152.322 1299.7,152.322 C1299.85,152.322 1299.99,152.322 1300.1,152.354 C1300.42,152.432 1300.67,152.635 1300.78,152.9 C1300.81,153.041 1300.85,153.15 1300.85,153.291 C1300.85,153.619 1300.7,153.932 1300.45,154.088 C1299.77,154.65 1299.38,155.447 1299.38,156.385 C1299.38,156.713 1299.41,157.072 1299.52,157.385 C1299.7,158.041 1300.24,158.619 1300.95,158.947 C1301.25,159.088 1301.64,159.197 1302.14,159.197 C1302.64,159.197 1303.19,159.088 1303.83,158.729 C1304.66,158.291 1305.2,157.604 1305.45,156.744 C1305.56,156.385 1305.6,155.994 1305.6,155.588 C1305.6,154.729 1305.35,153.791 1304.92,152.994 C1304.35,151.994 1302.75,150.775 1300.56,150.416 C1300.2,150.338 1299.85,150.307 1299.41,150.307 C1297.75,150.307 1295.56,150.869 1293.33,152.932 C1291.56,154.541 1290.02,157.494 1288.5,161.994 L1288.42,162.104 L1277.78,162.104 "/>
<path class="" d="M547.81,182.796 C547.514,182.718 547.185,182.686 546.904,182.686 C544.779,182.686 542.623,184.452 541.467,185.593 L541.295,185.78 L541.185,185.561 C541.185,185.53 539.748,182.936 537.326,182.608 C537.045,182.577 536.748,182.577 536.467,182.577 C534.232,182.577 531.576,183.577 530.029,187.186 C529.451,183.936 527.217,182.968 526.31,182.749 C526.029,182.686 525.701,182.64 525.42,182.64 C523.295,182.64 521.139,184.405 519.982,185.561 L519.795,185.749 L519.685,185.53 C519.685,185.483 518.248,182.936 515.842,182.577 C515.592,182.546 515.342,182.499 515.092,182.499 C512.81,182.499 510.435,184.093 508.498,189.702 L509.717,190.311 C510.014,189.421 510.764,187.296 511.56,186.218 C511.951,185.593 512.717,185.015 513.357,184.921 C513.685,184.843 513.935,184.921 514.154,185.061 C514.404,185.233 514.514,185.64 514.514,186.108 C514.514,187.765 513.326,190.671 512.998,191.358 L506.201,210.218 L501.982,210.218 L501.982,211.624 L517.357,211.624 L517.357,210.218 L512.17,210.218 L516.17,199.233 L516.342,199.671 C516.342,199.671 517.06,201.249 519.373,201.827 C519.795,201.936 520.232,201.983 520.67,201.983 C524.295,201.983 527.967,198.343 529.482,193.124 C530.56,189.343 531.357,187.655 532.185,186.499 C532.685,185.811 533.545,184.765 534.592,184.765 C534.732,184.765 534.889,184.811 535.06,184.843 C535.779,185.061 536.029,185.561 536.029,186.28 C536.029,187.436 535.31,189.202 534.482,191.39 L527.685,210.249 L523.467,210.249 L523.467,211.624 L538.842,211.624 L538.842,210.249 L533.701,210.249 L537.654,199.28 L537.873,199.702 C537.873,199.702 538.56,201.296 540.857,201.874 C541.295,201.983 541.717,202.015 542.154,202.015 C545.904,202.015 549.748,198.124 551.154,192.624 C551.545,191.108 551.685,189.843 551.685,188.765 C551.685,184.202 548.842,183.046 547.81,182.796 M524.295,192.765 C523.435,195.421 521.748,198.671 520.014,199.499 C519.795,199.593 519.435,199.671 519.232,199.671 C519.076,199.671 518.857,199.593 518.717,199.561 C517.717,199.171 517.389,198.015 517.389,196.686 C517.389,194.561 518.217,192.077 518.248,191.905 C518.904,189.311 520.81,186.421 522.607,185.421 C523.076,185.124 523.545,185.015 523.935,185.015 C524.123,185.015 524.295,185.015 524.482,185.093 C524.764,185.171 524.982,185.39 525.123,185.671 C525.342,186.061 525.42,186.608 525.42,187.218 C525.42,189.061 524.701,191.53 524.295,192.765 M545.795,192.796 C544.92,195.468 543.232,198.671 541.514,199.499 C541.295,199.593 540.935,199.702 540.717,199.702 C540.576,199.702 540.357,199.64 540.217,199.593 C539.201,199.202 538.873,198.046 538.873,196.718 C538.873,194.593 539.701,192.108 539.748,191.936 C540.389,189.343 542.295,186.468 544.092,185.452 C544.56,185.171 545.029,185.061 545.435,185.061 C545.607,185.061 545.795,185.061 545.967,185.124 C546.264,185.202 546.467,185.421 546.623,185.702 C546.826,186.108 546.904,186.64 546.904,187.249 C546.904,189.093 546.185,191.577 545.795,192.796"/>
<path class="" d="M110.17,218.951 L125.545,218.951 L125.545,217.545 L120.358,217.545 L124.358,206.56 L124.53,207.029 C124.53,207.029 125.249,208.607 127.561,209.185 C127.983,209.295 128.42,209.326 128.858,209.326 C132.592,209.326 136.452,205.451 137.858,199.935 C138.249,198.42 138.389,197.17 138.389,196.091 C138.389,191.513 135.545,190.326 134.499,190.076 C134.217,189.998 133.889,189.966 133.608,189.966 C131.483,189.966 129.327,191.732 128.17,192.888 L127.983,193.091 L127.874,192.841 C127.874,192.81 126.436,190.295 124.03,189.935 C123.78,189.888 123.53,189.857 123.28,189.857 C120.999,189.857 118.624,191.451 116.686,197.06 L117.905,197.67 C118.202,196.763 118.952,194.607 119.749,193.529 C120.139,192.92 120.905,192.341 121.545,192.232 C121.874,192.17 122.124,192.232 122.342,192.373 C122.592,192.56 122.702,192.92 122.702,193.42 C122.702,195.076 121.514,198.029 121.186,198.716 L114.389,217.545 L110.17,217.545 L110.17,218.951 M127.42,206.998 C127.264,206.998 127.045,206.951 126.905,206.92 C125.905,206.529 125.608,205.341 125.608,204.013 C125.608,201.888 126.405,199.404 126.436,199.216 C127.092,196.623 128.999,193.748 130.795,192.732 C131.264,192.451 131.733,192.341 132.124,192.341 C132.311,192.341 132.483,192.341 132.67,192.42 C132.952,192.482 133.17,192.732 133.311,193.029 C133.53,193.42 133.608,193.966 133.608,194.576 C133.608,196.404 132.889,198.888 132.483,200.123 C131.624,202.779 129.936,205.982 128.202,206.81 C127.983,206.92 127.624,206.998 127.42,206.998"/>
<path class="" fill-rule="evenodd" d="M2615.13,271.514 L2669.51,258.714 L2669.51,267.188 L2615.13,279.989 L2615.13,271.514 "/>
<path class="" fill-rule="evenodd" d="M2615.13,283.887 L2669.51,271.087 L2669.51,279.561 L2615.13,292.362 L2615.13,283.887 "/>
<path class="" fill-rule="evenodd" d="M2615.13,51.4831 L2669.51,38.6828 L2669.51,47.157 L2615.13,59.9574 L2615.13,51.4831 "/>
<path class="" fill-rule="evenodd" d="M2615.13,63.8564 L2669.51,51.056 L2669.51,59.5302 L2615.13,72.3306 L2615.13,63.8564 "/>
<path class="" d="M2595.75,464.057 L2609.94,464.057 L2609.94,463.135 L2608.74,463.135 C2608.44,463.135 2608.13,463.103 2607.83,463.025 C2607.52,462.963 2607.22,462.853 2606.92,462.76 C2606.64,462.666 2606.39,462.541 2606.19,462.4 C2605.97,462.244 2605.83,462.135 2605.75,461.978 C2605.56,461.682 2605.44,461.244 2605.34,460.666 C2605.25,460.072 2605.19,459.244 2605.19,458.166 L2605.19,436.791 C2605.19,435.807 2605.25,435.01 2605.36,434.369 C2605.47,433.76 2605.61,433.322 2605.8,433.025 C2606.44,432.244 2607.42,431.822 2608.74,431.822 L2609.94,431.822 L2609.94,430.947 L2595.75,430.947 L2595.75,431.822 L2596.94,431.822 C2597.5,431.822 2598.06,431.947 2598.63,432.166 C2599.16,432.385 2599.61,432.682 2599.92,433.072 C2600.05,433.228 2600.14,433.385 2600.22,433.588 C2600.28,433.775 2600.33,434.025 2600.39,434.322 C2600.41,434.619 2600.44,434.947 2600.44,435.338 C2600.44,435.728 2600.45,436.228 2600.45,436.791 L2600.45,458.166 C2600.45,460.228 2600.27,461.494 2599.88,461.932 C2599.53,462.369 2599.14,462.666 2598.67,462.853 C2598.19,463.057 2597.63,463.135 2596.94,463.135 L2595.75,463.135 L2595.75,464.057 M2617.99,476.463 L2620.42,476.463 L2620.42,425.744 L2617.99,425.744 L2617.99,476.463 M2653.33,440.088 C2653.33,439.228 2653.24,438.447 2653.03,437.76 C2652.84,437.072 2652.56,436.447 2652.22,435.853 C2651.89,435.291 2651.47,434.791 2651,434.322 C2650.55,433.853 2650.05,433.416 2649.52,433.025 C2648.94,432.588 2648.3,432.244 2647.56,431.978 C2646.83,431.713 2646.05,431.494 2645.25,431.338 C2644.44,431.197 2643.61,431.072 2642.75,431.025 C2641.88,430.978 2641.02,430.947 2640.19,430.947 L2628.13,430.947 L2628.13,431.822 L2629.33,431.822 C2629.95,431.822 2630.52,431.932 2630.99,432.103 C2631.42,432.291 2631.81,432.541 2632.16,432.885 C2632.58,433.463 2632.8,434.76 2632.8,436.791 L2632.8,458.166 C2632.8,459.15 2632.75,459.947 2632.64,460.541 C2632.55,461.119 2632.42,461.572 2632.3,461.807 C2632.02,462.275 2631.59,462.619 2631.11,462.807 C2630.59,463.025 2630.02,463.135 2629.33,463.135 L2628.13,463.135 L2628.13,464.057 L2642.27,464.057 L2642.27,463.135 L2641.02,463.135 C2639.75,463.135 2638.83,462.76 2638.22,462.025 C2637.92,461.807 2637.75,461.369 2637.66,460.713 C2637.55,460.072 2637.5,459.228 2637.5,458.166 L2637.5,448.994 C2638.14,449.072 2638.66,449.119 2639.05,449.166 C2639.44,449.213 2639.8,449.244 2640.09,449.244 C2640.39,449.244 2640.66,449.244 2640.89,449.244 L2641.74,449.244 C2643.91,449.26 2645.74,449.041 2647.22,448.557 C2648.69,448.072 2649.88,447.4 2650.78,446.572 C2651.69,445.744 2652.34,444.791 2652.74,443.666 C2653.13,442.541 2653.33,441.353 2653.33,440.088 M2647.74,440.588 C2647.7,441.666 2647.53,442.65 2647.2,443.494 C2646.86,444.385 2646.42,445.103 2645.86,445.728 C2645.3,446.353 2644.64,446.822 2643.88,447.166 C2643.13,447.51 2642.31,447.65 2641.49,447.65 C2641,447.65 2640.44,447.65 2639.78,447.603 C2639.09,447.572 2638.33,447.51 2637.5,447.353 L2637.5,433.338 C2638.16,433.228 2638.78,433.119 2639.31,433.025 C2639.84,432.932 2640.31,432.885 2640.7,432.885 C2641.88,432.885 2642.91,433.103 2643.78,433.51 C2644.66,433.947 2645.42,434.51 2646,435.228 C2646.59,435.932 2647.03,436.76 2647.31,437.682 C2647.61,438.619 2647.74,439.588 2647.74,440.588 M2677.56,464.057 L2690.59,464.057 L2690.59,463.135 C2689.91,463.072 2689.3,463.01 2688.81,462.853 C2688.33,462.713 2687.86,462.463 2687.44,462.072 C2687.03,461.713 2686.64,461.182 2686.25,460.494 C2685.86,459.807 2685.42,458.885 2684.94,457.713 L2673.44,430.166 L2672.55,430.166 L2660.94,457.463 C2660.55,458.369 2660.16,459.166 2659.81,459.853 C2659.44,460.541 2659.05,461.119 2658.64,461.588 C2658.22,462.072 2657.75,462.447 2657.25,462.682 C2656.7,462.932 2656.09,463.072 2655.41,463.135 L2655.41,464.057 L2665.89,464.057 L2665.89,463.135 C2664.72,463.025 2663.86,462.885 2663.28,462.635 C2662.69,462.4 2662.33,462.072 2662.16,461.666 C2661.99,461.275 2661.99,460.791 2662.16,460.197 C2662.3,459.635 2662.55,458.978 2662.86,458.228 L2665.11,452.947 L2677.95,452.947 L2679.92,457.713 C2680.19,458.385 2680.44,459.057 2680.66,459.682 C2680.88,460.322 2680.95,460.9 2680.88,461.4 C2680.78,461.9 2680.52,462.322 2680.02,462.635 C2679.53,462.963 2678.7,463.135 2677.56,463.135 L2677.56,464.057 M2671.66,437.744 L2677.27,451.166 L2665.89,451.166 L2671.66,437.744 M2722.59,456.291 L2721.89,455.775 C2720.92,457.166 2719.99,458.322 2719.11,459.197 C2718.24,460.072 2717.38,460.791 2716.5,461.291 C2715.63,461.807 2714.72,462.182 2713.78,462.369 C2712.86,462.572 2711.83,462.666 2710.77,462.666 C2708.88,462.666 2707.17,462.353 2705.66,461.713 C2704.14,461.072 2702.83,460.15 2701.75,458.9 C2700.66,457.682 2699.8,456.15 2699.22,454.322 C2698.63,452.51 2698.33,450.416 2698.33,448.041 C2698.33,445.275 2698.63,442.885 2699.22,440.869 C2699.8,438.853 2700.61,437.182 2701.63,435.838 C2702.66,434.51 2703.91,433.51 2705.34,432.885 C2706.75,432.244 2708.34,431.9 2710.05,431.9 C2711.33,431.9 2712.55,432.103 2713.67,432.447 C2714.78,432.807 2715.81,433.369 2716.74,434.119 C2717.67,434.9 2718.53,435.885 2719.25,437.072 C2719.99,438.307 2720.59,439.744 2721.11,441.432 L2721.89,441.432 L2721.11,430.166 L2720.24,430.166 C2720.03,430.947 2719.77,431.541 2719.41,431.932 C2719.03,432.322 2718.64,432.494 2718.2,432.494 C2717.97,432.494 2717.59,432.369 2717.16,432.119 C2716.69,431.885 2716.11,431.635 2715.42,431.338 C2714.74,431.041 2713.91,430.775 2712.95,430.541 C2712,430.291 2710.91,430.166 2709.66,430.166 C2707.13,430.166 2704.8,430.65 2702.74,431.603 C2700.63,432.557 2698.84,433.853 2697.38,435.463 C2695.92,437.103 2694.77,439.01 2693.97,441.15 C2693.16,443.307 2692.77,445.603 2692.77,447.994 C2692.77,449.51 2692.91,450.963 2693.25,452.385 C2693.58,453.807 2694.06,455.15 2694.7,456.385 C2695.33,457.635 2696.09,458.775 2697.02,459.807 C2697.94,460.853 2699,461.76 2700.19,462.494 C2701.39,463.228 2702.7,463.807 2704.17,464.228 C2705.61,464.65 2707.17,464.838 2708.88,464.838 C2710.44,464.838 2711.89,464.666 2713.2,464.322 C2714.52,463.978 2715.74,463.447 2716.86,462.744 C2717.99,462.025 2719.02,461.15 2719.97,460.072 C2720.89,459.01 2721.77,457.76 2722.59,456.291 M2742.95,446.603 L2742.95,445.338 C2742.38,445.275 2741.74,445.103 2741.09,444.838 C2740.44,444.572 2739.83,444.213 2739.3,443.775 C2738.74,443.322 2738.27,442.822 2737.91,442.182 C2737.53,441.572 2737.36,440.885 2737.36,440.103 C2737.36,439.541 2737.41,438.963 2737.53,438.322 C2737.63,437.682 2737.75,437.057 2737.91,436.369 C2738.05,435.682 2738.17,435.01 2738.3,434.322 C2738.39,433.635 2738.47,432.932 2738.47,432.244 C2738.47,431.072 2738.19,429.978 2737.69,428.932 C2737.14,427.9 2736.45,426.978 2735.61,426.166 C2734.75,425.353 2733.78,424.697 2732.7,424.182 C2731.63,423.682 2730.5,423.353 2729.38,423.213 L2729.38,424.072 C2730.16,424.291 2730.89,424.572 2731.58,424.947 C2732.24,425.307 2732.8,425.744 2733.28,426.291 C2733.78,426.822 2734.14,427.432 2734.41,428.15 C2734.66,428.853 2734.8,429.65 2734.8,430.541 C2734.8,431.119 2734.74,431.682 2734.63,432.244 C2734.53,432.807 2734.41,433.369 2734.27,433.9 C2734.11,434.463 2734,435.025 2733.89,435.588 C2733.8,436.15 2733.75,436.713 2733.75,437.291 C2733.75,438.4 2733.89,439.4 2734.24,440.307 C2734.58,441.197 2735.05,442.01 2735.63,442.744 C2736.22,443.478 2736.92,444.103 2737.75,444.65 C2738.58,445.182 2739.47,445.619 2740.44,445.963 C2739.47,446.307 2738.56,446.775 2737.75,447.307 C2736.92,447.838 2736.22,448.478 2735.63,449.213 C2735.05,449.947 2734.58,450.775 2734.24,451.697 C2733.89,452.635 2733.75,453.65 2733.75,454.728 C2733.75,455.322 2733.8,455.885 2733.89,456.416 C2734,456.978 2734.11,457.541 2734.27,458.072 C2734.41,458.619 2734.53,459.166 2734.63,459.713 C2734.74,460.275 2734.8,460.838 2734.8,461.4 C2734.8,462.291 2734.66,463.103 2734.41,463.807 C2734.14,464.525 2733.78,465.135 2733.28,465.666 C2732.8,466.213 2732.24,466.666 2731.58,467.01 C2730.89,467.385 2730.16,467.666 2729.38,467.869 L2729.38,468.744 C2730.55,468.65 2731.67,468.307 2732.78,467.775 C2733.84,467.228 2734.83,466.541 2735.67,465.713 C2736.52,464.885 2737.19,463.916 2737.7,462.807 C2738.19,461.744 2738.47,460.572 2738.47,459.338 C2738.47,458.713 2738.39,458.057 2738.3,457.385 C2738.17,456.76 2738.05,456.119 2737.91,455.494 C2737.75,454.853 2737.63,454.244 2737.53,453.65 C2737.41,453.072 2737.36,452.478 2737.36,451.947 C2737.36,451.166 2737.53,450.478 2737.91,449.853 C2738.25,449.213 2738.7,448.682 2739.27,448.213 C2739.81,447.775 2740.42,447.4 2741.08,447.135 C2741.74,446.869 2742.38,446.697 2742.95,446.603 M2767.22,468.744 L2767.22,467.869 C2766.39,467.666 2765.66,467.385 2765,467.01 C2764.31,466.666 2763.75,466.213 2763.27,465.666 C2762.78,465.135 2762.41,464.525 2762.14,463.807 C2761.88,463.103 2761.75,462.291 2761.75,461.4 C2761.75,460.838 2761.8,460.275 2761.92,459.713 C2762.02,459.166 2762.14,458.619 2762.28,458.072 C2762.41,457.541 2762.53,456.978 2762.66,456.416 C2762.75,455.885 2762.83,455.322 2762.83,454.728 C2762.83,453.65 2762.66,452.635 2762.31,451.697 C2761.97,450.775 2761.53,449.947 2760.94,449.213 C2760.36,448.478 2759.66,447.838 2758.81,447.307 C2757.99,446.775 2757.11,446.307 2756.14,445.963 C2757.09,445.619 2757.97,445.182 2758.8,444.65 C2759.63,444.103 2760.33,443.478 2760.92,442.744 C2761.5,442.01 2761.97,441.197 2762.31,440.307 C2762.66,439.4 2762.83,438.4 2762.83,437.291 C2762.83,436.713 2762.75,436.15 2762.66,435.588 C2762.53,435.025 2762.41,434.463 2762.28,433.9 C2762.14,433.369 2762.02,432.807 2761.92,432.244 C2761.8,431.682 2761.75,431.119 2761.75,430.541 C2761.75,429.65 2761.88,428.853 2762.14,428.15 C2762.41,427.432 2762.78,426.822 2763.27,426.291 C2763.75,425.744 2764.31,425.307 2765,424.947 C2765.66,424.572 2766.39,424.291 2767.22,424.072 L2767.22,423.213 C2766.08,423.353 2764.95,423.682 2763.88,424.182 C2762.78,424.697 2761.8,425.353 2760.94,426.166 C2760.09,426.978 2759.41,427.9 2758.89,428.932 C2758.36,429.978 2758.11,431.072 2758.11,432.244 C2758.11,432.932 2758.16,433.635 2758.28,434.322 C2758.38,435.01 2758.53,435.682 2758.67,436.369 C2758.81,437.057 2758.94,437.682 2759.06,438.322 C2759.16,438.963 2759.24,439.541 2759.24,440.103 C2759.24,440.885 2759.05,441.572 2758.67,442.182 C2758.31,442.822 2757.84,443.322 2757.31,443.775 C2756.75,444.213 2756.14,444.572 2755.47,444.838 C2754.81,445.103 2754.2,445.275 2753.63,445.338 L2753.63,446.603 C2754.2,446.697 2754.84,446.869 2755.5,447.135 C2756.16,447.4 2756.77,447.775 2757.33,448.213 C2757.88,448.682 2758.33,449.213 2758.7,449.853 C2759.05,450.478 2759.24,451.166 2759.24,451.947 C2759.24,452.478 2759.16,453.072 2759.06,453.65 C2758.94,454.244 2758.81,454.853 2758.67,455.494 C2758.53,456.119 2758.38,456.76 2758.28,457.385 C2758.16,458.057 2758.11,458.713 2758.11,459.338 C2758.11,460.572 2758.36,461.744 2758.88,462.807 C2759.38,463.916 2760.06,464.885 2760.89,465.713 C2761.72,466.541 2762.7,467.228 2763.8,467.775 C2764.91,468.307 2766.05,468.65 2767.22,468.744"/>
<path class="" d="M2191.57,431.822 L2191.57,430.947 L2181.38,430.947 L2181.38,431.822 C2181.98,431.932 2182.46,432.057 2182.85,432.166 C2183.24,432.291 2183.54,432.416 2183.77,432.541 C2184.02,432.682 2184.2,432.807 2184.34,432.932 C2184.46,433.072 2184.56,433.197 2184.66,433.338 C2184.9,433.775 2184.95,434.4 2184.76,435.119 C2184.56,435.885 2184.23,436.853 2183.76,438.072 L2175.95,457.322 L2167.48,437.885 C2166.91,436.619 2166.57,435.619 2166.43,434.838 C2166.27,434.057 2166.37,433.463 2166.66,433.025 C2166.87,432.682 2167.23,432.447 2167.76,432.244 C2168.31,432.057 2169.06,431.932 2170.04,431.822 L2170.04,430.947 L2156.49,430.947 L2156.49,431.822 C2157.27,431.9 2157.88,432.025 2158.37,432.166 C2158.84,432.322 2159.24,432.541 2159.63,432.838 C2159.79,432.947 2159.9,433.072 2160.06,433.166 C2160.18,433.275 2160.32,433.447 2160.49,433.666 C2160.63,433.885 2160.84,434.197 2161.06,434.588 C2161.24,434.978 2161.51,435.541 2161.81,436.244 L2174.16,464.838 L2175.09,464.838 L2186.62,436.588 C2187.29,434.932 2188.07,433.713 2188.93,432.932 C2189.2,432.635 2189.57,432.416 2190.02,432.213 C2190.48,432.057 2190.98,431.932 2191.57,431.822 M2200.79,444.822 L2208.73,425.025 L2208.73,424.51 L2195.98,424.51 L2193.66,429.166 L2194.2,429.322 C2194.37,429.072 2194.57,428.807 2194.76,428.51 C2194.96,428.213 2195.24,427.978 2195.62,427.728 C2195.98,427.478 2196.46,427.291 2197.09,427.135 C2197.66,426.994 2198.48,426.9 2199.45,426.9 L2205.99,426.9 L2198.81,444.822 L2200.79,444.822 "/>
<path class="" d="M1752.14,431.822 L1752.14,430.947 L1741.95,430.947 L1741.95,431.822 C1742.55,431.932 1743.03,432.057 1743.42,432.166 C1743.81,432.291 1744.11,432.416 1744.34,432.541 C1744.59,432.682 1744.77,432.807 1744.91,432.932 C1745.03,433.072 1745.12,433.197 1745.23,433.338 C1745.47,433.775 1745.52,434.4 1745.33,435.119 C1745.12,435.885 1744.8,436.853 1744.33,438.072 L1736.52,457.322 L1728.05,437.885 C1727.48,436.619 1727.14,435.619 1727,434.838 C1726.84,434.057 1726.94,433.463 1727.23,433.025 C1727.44,432.682 1727.8,432.447 1728.33,432.244 C1728.87,432.057 1729.62,431.932 1730.61,431.822 L1730.61,430.947 L1717.06,430.947 L1717.06,431.822 C1717.84,431.9 1718.45,432.025 1718.94,432.166 C1719.41,432.322 1719.81,432.541 1720.2,432.838 C1720.36,432.947 1720.47,433.072 1720.62,433.166 C1720.75,433.275 1720.89,433.447 1721.06,433.666 C1721.2,433.885 1721.41,434.197 1721.62,434.588 C1721.81,434.978 1722.08,435.541 1722.37,436.244 L1734.73,464.838 L1735.66,464.838 L1747.19,436.588 C1747.86,434.932 1748.64,433.713 1749.5,432.932 C1749.77,432.635 1750.14,432.416 1750.59,432.213 C1751.05,432.057 1751.55,431.932 1752.14,431.822 M1768.25,468.697 L1768.25,467.775 C1766.97,466.994 1765.87,466.088 1764.95,465.041 C1764.02,463.978 1763.22,462.838 1762.58,461.619 C1761.92,460.4 1761.39,459.119 1761,457.76 C1760.61,456.385 1760.28,455.025 1760.06,453.603 C1759.84,452.213 1759.7,450.822 1759.62,449.4 C1759.53,447.994 1759.5,446.619 1759.5,445.275 C1759.5,442.603 1759.7,440.103 1760.09,437.838 C1760.48,435.572 1761.06,433.541 1761.83,431.76 C1762.58,429.994 1763.52,428.463 1764.58,427.197 C1765.66,425.916 1766.87,424.947 1768.25,424.213 L1768.25,423.213 C1766.25,424.166 1764.41,425.416 1762.78,426.947 C1761.11,428.51 1759.72,430.26 1758.55,432.244 C1757.37,434.228 1756.45,436.369 1755.81,438.697 C1755.16,441.041 1754.84,443.432 1754.84,445.916 C1754.84,448.4 1755.16,450.807 1755.8,453.119 C1756.42,455.432 1757.31,457.588 1758.48,459.588 C1759.66,461.588 1761.05,463.369 1762.7,464.932 C1764.36,466.494 1766.19,467.775 1768.25,468.697 M1782.77,439.275 C1782.77,440.025 1782.66,440.697 1782.44,441.26 C1782.22,441.838 1781.95,442.307 1781.61,442.697 C1781.25,443.088 1780.83,443.385 1780.37,443.572 C1779.91,443.775 1779.42,443.885 1778.91,443.885 C1778.14,443.932 1777.48,443.744 1776.91,443.322 C1776.31,442.932 1775.83,442.4 1775.41,441.76 C1775,441.135 1774.7,440.447 1774.48,439.697 C1774.27,438.932 1774.17,438.228 1774.17,437.541 C1774.17,437.15 1774.19,436.682 1774.27,436.15 C1774.34,435.619 1774.44,435.025 1774.56,434.369 C1775.02,434.103 1775.58,433.807 1776.22,433.51 C1776.83,433.228 1777.52,433.072 1778.22,433.072 C1779.03,433.072 1779.7,433.275 1780.3,433.619 C1780.86,433.978 1781.34,434.447 1781.72,435.025 C1782.08,435.619 1782.34,436.291 1782.52,437.025 C1782.69,437.76 1782.77,438.525 1782.77,439.275 M1785.91,437.682 C1785.91,436.619 1785.69,435.682 1785.28,434.932 C1784.86,434.197 1784.34,433.588 1783.73,433.119 C1783.12,432.666 1782.47,432.322 1781.77,432.119 C1781.05,431.932 1780.44,431.822 1779.91,431.822 C1779.03,431.822 1778.17,431.947 1777.34,432.197 C1776.52,432.447 1775.66,432.807 1774.78,433.291 C1775,432.51 1775.3,431.775 1775.61,431.15 C1775.92,430.51 1776.27,429.932 1776.64,429.416 C1777,428.9 1777.36,428.463 1777.73,428.072 C1778.09,427.697 1778.42,427.385 1778.73,427.135 C1779.61,426.416 1780.61,425.822 1781.72,425.385 C1782.81,424.947 1784.03,424.697 1785.42,424.65 L1785.42,424.072 L1784.42,424.072 C1783.81,424.072 1783.17,424.135 1782.5,424.244 C1781.78,424.338 1781.08,424.51 1780.31,424.744 C1779.56,424.994 1778.81,425.338 1778.05,425.728 C1777.27,426.135 1776.52,426.65 1775.75,427.244 C1775.17,427.728 1774.58,428.26 1774,428.869 C1773.41,429.51 1772.89,430.197 1772.44,430.978 C1771.97,431.76 1771.58,432.635 1771.31,433.557 C1771.02,434.494 1770.87,435.51 1770.87,436.588 C1770.87,437.713 1771.06,438.76 1771.44,439.744 C1771.8,440.713 1772.31,441.588 1772.97,442.322 C1773.62,443.057 1774.41,443.65 1775.34,444.088 C1776.25,444.525 1777.27,444.713 1778.36,444.713 C1779.52,444.713 1780.56,444.525 1781.48,444.103 C1782.42,443.713 1783.22,443.182 1783.89,442.525 C1784.55,441.869 1785.03,441.103 1785.39,440.26 C1785.73,439.416 1785.91,438.572 1785.91,437.682 M1780.42,448.619 L1780.42,458.541 L1771.98,458.541 L1780.42,448.619 M1783.31,460.619 L1786.48,460.619 L1786.48,458.541 L1783.31,458.541 L1783.31,445.557 L1781.37,445.557 L1770.27,458.728 L1770.27,460.619 L1780.42,460.619 L1780.42,465.838 L1783.31,465.838 L1783.31,460.619 M1802.03,446.01 C1802.03,443.572 1801.7,441.197 1801.12,438.916 C1800.52,436.619 1799.62,434.494 1798.48,432.541 C1797.31,430.588 1795.89,428.807 1794.22,427.213 C1792.53,425.635 1790.62,424.291 1788.47,423.213 L1788.47,424.166 C1789.89,425.088 1791.09,426.135 1792.09,427.307 C1793.06,428.478 1793.89,429.728 1794.55,431.041 C1795.22,432.369 1795.72,433.713 1796.11,435.103 C1796.48,436.494 1796.75,437.853 1796.95,439.228 C1797.11,440.588 1797.22,441.885 1797.27,443.15 C1797.31,444.432 1797.34,445.603 1797.34,446.65 C1797.34,449.385 1797.11,451.869 1796.72,454.119 C1796.33,456.385 1795.75,458.416 1795,460.182 C1794.23,461.963 1793.31,463.463 1792.2,464.744 C1791.11,466.01 1789.86,467.041 1788.47,467.775 L1788.47,468.697 C1790.42,467.822 1792.27,466.619 1793.92,465.088 C1795.58,463.541 1797,461.791 1798.22,459.791 C1799.41,457.775 1800.34,455.603 1801.02,453.26 C1801.69,450.916 1802.03,448.51 1802.03,446.01"/>
<path class="" d="M1270.53,464.057 L1284.72,464.057 L1284.72,463.135 L1283.52,463.135 C1283.22,463.135 1282.91,463.103 1282.61,463.025 C1282.3,462.963 1282,462.853 1281.7,462.76 C1281.42,462.666 1281.17,462.541 1280.97,462.4 C1280.75,462.244 1280.61,462.135 1280.53,461.978 C1280.34,461.682 1280.22,461.244 1280.12,460.666 C1280.03,460.072 1279.97,459.244 1279.97,458.166 L1279.97,436.791 C1279.97,435.807 1280.03,435.01 1280.14,434.369 C1280.25,433.76 1280.39,433.322 1280.58,433.025 C1281.22,432.244 1282.2,431.822 1283.52,431.822 L1284.72,431.822 L1284.72,430.947 L1270.53,430.947 L1270.53,431.822 L1271.72,431.822 C1272.28,431.822 1272.84,431.947 1273.41,432.166 C1273.94,432.385 1274.39,432.682 1274.7,433.072 C1274.83,433.228 1274.92,433.385 1275,433.588 C1275.06,433.775 1275.11,434.025 1275.17,434.322 C1275.19,434.619 1275.22,434.947 1275.22,435.338 C1275.22,435.728 1275.23,436.228 1275.23,436.791 L1275.23,458.166 C1275.23,460.228 1275.05,461.494 1274.66,461.932 C1274.31,462.369 1273.92,462.666 1273.45,462.853 C1272.97,463.057 1272.41,463.135 1271.72,463.135 L1270.53,463.135 L1270.53,464.057 M1321.42,431.822 L1321.42,430.947 L1311.23,430.947 L1311.23,431.822 C1311.83,431.932 1312.31,432.057 1312.7,432.166 C1313.09,432.291 1313.39,432.416 1313.62,432.541 C1313.87,432.682 1314.05,432.807 1314.19,432.932 C1314.31,433.072 1314.41,433.197 1314.52,433.338 C1314.75,433.775 1314.8,434.4 1314.61,435.119 C1314.41,435.885 1314.08,436.853 1313.61,438.072 L1305.8,457.322 L1297.33,437.885 C1296.77,436.619 1296.42,435.619 1296.28,434.838 C1296.12,434.057 1296.22,433.463 1296.52,433.025 C1296.72,432.682 1297.08,432.447 1297.61,432.244 C1298.16,432.057 1298.91,431.932 1299.89,431.822 L1299.89,430.947 L1286.34,430.947 L1286.34,431.822 C1287.12,431.9 1287.73,432.025 1288.22,432.166 C1288.69,432.322 1289.09,432.541 1289.48,432.838 C1289.64,432.947 1289.75,433.072 1289.91,433.166 C1290.03,433.275 1290.17,433.447 1290.34,433.666 C1290.48,433.885 1290.69,434.197 1290.91,434.588 C1291.09,434.978 1291.36,435.541 1291.66,436.244 L1304.02,464.838 L1304.94,464.838 L1316.47,436.588 C1317.14,434.932 1317.92,433.713 1318.78,432.932 C1319.05,432.635 1319.42,432.416 1319.87,432.213 C1320.33,432.057 1320.83,431.932 1321.42,431.822"/>
<path class="" d="M540.886,442.603 L540.886,441.697 L533.543,441.697 L533.543,442.603 C533.98,442.603 534.34,442.619 534.636,442.65 C534.933,442.697 535.152,442.744 535.324,442.791 C535.496,442.838 535.621,442.916 535.715,442.963 C535.808,443.041 535.886,443.103 535.933,443.15 C536.105,443.447 536.152,443.791 536.074,444.182 C535.98,444.603 535.808,445.135 535.511,445.822 L530.293,458.682 L525.09,446.338 C524.699,445.525 524.527,444.869 524.558,444.322 C524.574,443.822 524.746,443.385 525.09,443.041 C525.215,442.869 525.402,442.744 525.683,442.697 C525.918,442.65 526.215,442.603 526.527,442.603 L527.246,442.603 L527.246,441.697 L516.636,441.697 L516.636,442.603 C517.09,442.697 517.418,442.744 517.715,442.791 C517.98,442.838 518.199,442.916 518.355,442.994 C518.574,443.135 518.793,443.307 518.98,443.447 C519.183,443.619 519.355,443.822 519.543,444.01 C519.715,444.228 519.886,444.478 520.058,444.775 C520.215,445.057 520.386,445.432 520.543,445.822 L528.59,464.791 L529.605,464.791 L537.543,445.557 C537.793,444.963 538.027,444.478 538.277,444.088 C538.511,443.697 538.761,443.385 539.058,443.088 C539.246,442.932 539.496,442.838 539.793,442.76 C540.074,442.697 540.449,442.65 540.886,442.603 M551.105,434.072 C551.105,433.728 551.027,433.416 550.918,433.119 C550.761,432.838 550.59,432.588 550.371,432.369 C550.152,432.15 549.886,431.978 549.59,431.822 C549.308,431.713 548.98,431.635 548.636,431.635 C548.293,431.635 547.965,431.713 547.668,431.822 C547.371,431.947 547.105,432.119 546.886,432.322 C546.636,432.541 546.465,432.807 546.34,433.103 C546.199,433.385 546.152,433.728 546.152,434.072 C546.152,434.807 546.371,435.416 546.855,435.885 C547.324,436.369 547.902,436.588 548.636,436.588 C549.355,436.588 549.933,436.353 550.402,435.853 C550.871,435.369 551.105,434.791 551.105,434.072 M543.168,464.057 L554.105,464.057 L554.105,463.135 C553.402,463.135 552.824,463.072 552.371,462.978 C551.933,462.885 551.574,462.713 551.324,462.447 C551.09,462.182 550.918,461.807 550.808,461.322 C550.715,460.838 550.668,460.228 550.668,459.463 L550.668,441.057 L549.621,441.057 L542.855,443.744 L543.168,444.619 C543.543,444.494 543.855,444.4 544.152,444.322 C544.418,444.275 544.668,444.228 544.902,444.228 C545.543,444.228 545.98,444.525 546.23,445.057 C546.465,445.619 546.59,446.432 546.59,447.51 L546.59,459.463 C546.59,460.228 546.543,460.838 546.449,461.322 C546.34,461.807 546.183,462.182 545.933,462.447 C545.683,462.713 545.324,462.885 544.886,462.978 C544.449,463.072 543.855,463.135 543.168,463.135 L543.168,464.057 M562.043,476.463 L564.48,476.463 L564.48,425.744 L562.043,425.744 L562.043,476.463 M605.511,447.307 C605.511,446.01 605.386,444.775 605.152,443.541 C604.902,442.353 604.543,441.228 604.09,440.15 C603.652,439.103 603.121,438.135 602.48,437.228 C601.855,436.353 601.168,435.541 600.418,434.853 C599.636,434.166 598.746,433.588 597.793,433.103 C596.84,432.603 595.777,432.197 594.605,431.885 C593.402,431.557 592.058,431.322 590.59,431.166 C589.136,431.025 587.465,430.947 585.636,430.947 L572.183,430.947 L572.183,431.822 L573.433,431.822 C574.043,431.822 574.574,431.932 575.043,432.103 C575.511,432.291 575.918,432.541 576.261,432.885 C576.683,433.463 576.902,434.76 576.902,436.791 L576.902,458.166 C576.902,459.119 576.855,459.9 576.746,460.494 C576.652,461.103 576.511,461.541 576.355,461.807 C576.09,462.275 575.699,462.619 575.215,462.807 C574.73,463.025 574.121,463.135 573.433,463.135 L572.183,463.135 L572.183,464.057 L587.011,464.057 C590.183,464.057 592.933,463.635 595.277,462.76 C597.605,461.885 599.527,460.682 601.043,459.166 C602.558,457.666 603.683,455.9 604.418,453.853 C605.152,451.822 605.511,449.65 605.511,447.307 M599.996,447.557 C599.996,449.869 599.652,451.947 598.965,453.775 C598.293,455.635 597.355,457.197 596.183,458.463 C595.011,459.728 593.621,460.713 592.011,461.4 C590.402,462.072 588.636,462.4 586.793,462.369 C586.074,462.369 585.293,462.322 584.449,462.182 C583.558,462.057 582.636,461.885 581.605,461.666 L581.605,433.51 C582.558,433.244 583.449,433.057 584.277,432.947 C585.105,432.853 585.886,432.775 586.621,432.775 C588.574,432.775 590.355,433.119 591.98,433.807 C593.621,434.494 595.043,435.463 596.215,436.744 C597.386,438.01 598.308,439.572 598.996,441.369 C599.652,443.213 599.996,445.26 599.996,447.557 M639.043,456.291 L638.34,455.775 C637.371,457.166 636.433,458.322 635.558,459.197 C634.683,460.072 633.824,460.791 632.949,461.291 C632.074,461.807 631.168,462.182 630.23,462.369 C629.308,462.572 628.277,462.666 627.215,462.666 C625.324,462.666 623.621,462.353 622.105,461.713 C620.59,461.072 619.277,460.15 618.199,458.9 C617.105,457.682 616.246,456.15 615.668,454.322 C615.074,452.51 614.777,450.416 614.777,448.041 C614.777,445.275 615.074,442.885 615.668,440.869 C616.246,438.853 617.058,437.182 618.074,435.838 C619.105,434.51 620.355,433.51 621.793,432.885 C623.199,432.244 624.793,431.9 626.496,431.9 C627.777,431.9 628.996,432.103 630.121,432.447 C631.23,432.807 632.261,433.369 633.183,434.119 C634.121,434.9 634.98,435.885 635.699,437.072 C636.433,438.307 637.043,439.744 637.558,441.432 L638.34,441.432 L637.558,430.166 L636.683,430.166 C636.48,430.947 636.215,431.541 635.855,431.932 C635.48,432.322 635.09,432.494 634.652,432.494 C634.418,432.494 634.043,432.369 633.605,432.119 C633.136,431.885 632.558,431.635 631.871,431.338 C631.183,431.041 630.355,430.775 629.402,430.541 C628.449,430.291 627.355,430.166 626.105,430.166 C623.574,430.166 621.246,430.65 619.183,431.603 C617.074,432.557 615.293,433.853 613.824,435.463 C612.371,437.103 611.215,439.01 610.418,441.15 C609.605,443.307 609.215,445.603 609.215,447.994 C609.215,449.51 609.355,450.963 609.699,452.385 C610.027,453.807 610.511,455.15 611.152,456.385 C611.777,457.635 612.543,458.775 613.465,459.807 C614.386,460.853 615.449,461.76 616.636,462.494 C617.84,463.228 619.152,463.807 620.621,464.228 C622.058,464.65 623.621,464.838 625.324,464.838 C626.886,464.838 628.34,464.666 629.652,464.322 C630.965,463.978 632.183,463.447 633.308,462.744 C634.433,462.025 635.465,461.15 636.418,460.072 C637.34,459.01 638.215,457.76 639.043,456.291"/>
<path class="" d="M148.965,431.822 L148.965,430.947 L138.778,430.947 L138.778,431.822 C139.371,431.932 139.856,432.057 140.246,432.166 C140.637,432.291 140.934,432.416 141.168,432.541 C141.418,432.682 141.59,432.807 141.731,432.932 C141.856,433.072 141.95,433.197 142.059,433.338 C142.293,433.775 142.34,434.4 142.153,435.119 C141.95,435.885 141.621,436.853 141.153,438.072 L133.34,457.322 L124.871,437.885 C124.309,436.619 123.965,435.619 123.825,434.838 C123.668,434.057 123.762,433.463 124.059,433.025 C124.262,432.682 124.621,432.447 125.153,432.244 C125.7,432.057 126.45,431.932 127.434,431.822 L127.434,430.947 L113.887,430.947 L113.887,431.822 C114.668,431.9 115.278,432.025 115.762,432.166 C116.231,432.322 116.637,432.541 117.028,432.838 C117.184,432.947 117.293,433.072 117.45,433.166 C117.575,433.275 117.715,433.447 117.887,433.666 C118.028,433.885 118.231,434.197 118.45,434.588 C118.637,434.978 118.903,435.541 119.2,436.244 L131.559,464.838 L132.481,464.838 L144.012,436.588 C144.684,434.932 145.465,433.713 146.325,432.932 C146.59,432.635 146.965,432.416 147.418,432.213 C147.871,432.057 148.371,431.932 148.965,431.822 M158.184,444.822 L166.121,425.025 L166.121,424.51 L153.371,424.51 L151.059,429.166 L151.59,429.322 C151.762,429.072 151.965,428.807 152.153,428.51 C152.356,428.213 152.637,427.978 153.012,427.728 C153.371,427.478 153.856,427.291 154.481,427.135 C155.059,426.994 155.871,426.9 156.84,426.9 L163.387,426.9 L156.2,444.822 L158.184,444.822 "/>
</svg>
